<svg width="34" height="34" viewBox="0 0 34 34" fill="none" xmlns="http://www.w3.org/2000/svg">
<path d="M14.9049 3.71684C16.0289 2.48273 17.9706 2.48273 19.0945 3.71684L20.5398 5.30383C21.1078 5.92754 21.9242 6.2657 22.767 6.22632L24.9111 6.12612C26.5784 6.04819 27.9515 7.42126 27.8736 9.08864L27.7733 11.2328C27.7339 12.0755 28.0721 12.8918 28.6958 13.4599L30.2828 14.9051C31.517 16.0291 31.517 17.9708 30.2828 19.0948L28.6958 20.5401C28.0721 21.108 27.7339 21.9244 27.7733 22.7672L27.8736 24.9113C27.9515 26.5786 26.5784 27.9518 24.9111 27.8739L22.767 27.7736C21.9242 27.7342 21.1078 28.0723 20.5398 28.6961L19.0945 30.283C17.9706 31.5172 16.0289 31.5172 14.9049 30.283L13.4596 28.6961C12.8916 28.0723 12.0752 27.7342 11.2325 27.7736L9.08838 27.8739C7.42102 27.9518 6.04794 26.5786 6.12587 24.9113L6.22607 22.7672C6.26546 21.9244 5.9273 21.108 5.30358 20.5401L3.71659 19.0948C2.48249 17.9708 2.48249 16.0291 3.71659 14.9051L5.30358 13.4599C5.9273 12.8918 6.26546 12.0755 6.22607 11.2328L6.12587 9.08862C6.04794 7.42126 7.42102 6.04819 9.08839 6.12612L11.2325 6.22632C12.0752 6.2657 12.8916 5.92754 13.4596 5.30383L14.9049 3.71684Z" fill="#D69212"/>
</svg>
