<svg width="46" height="46" viewBox="0 0 46 46" fill="none" xmlns="http://www.w3.org/2000/svg">
<path d="M19.2397 1.47003C21.0248 -0.490011 24.1087 -0.490011 25.8938 1.47003L28.1893 3.99055C29.0913 4.98116 30.388 5.51823 31.7265 5.45568L35.1319 5.29654C37.7799 5.17277 39.9608 7.35353 39.8371 10.0017L39.6778 13.4071C39.6152 14.7455 40.1523 16.0421 41.143 16.9442L43.6634 19.2397C45.6236 21.0248 45.6236 24.1087 43.6634 25.8938L41.143 28.1893C40.1523 29.0913 39.6152 30.388 39.6778 31.7265L39.8371 35.1319C39.9608 37.7799 37.7799 39.9608 35.1319 39.8371L31.7265 39.6778C30.388 39.6152 29.0913 40.1523 28.1893 41.143L25.8938 43.6634C24.1087 45.6236 21.0248 45.6236 19.2397 43.6634L16.9442 41.143C16.0421 40.1523 14.7455 39.6152 13.4071 39.6778L10.0017 39.8371C7.35353 39.9608 5.17277 37.7799 5.29654 35.1319L5.45568 31.7265C5.51823 30.388 4.98116 29.0913 3.99055 28.1893L1.47003 25.8938C-0.490011 24.1087 -0.490011 21.0248 1.47003 19.2397L3.99055 16.9442C4.98116 16.0421 5.51823 14.7455 5.45568 13.4071L5.29654 10.0017C5.17277 7.35353 7.35353 5.17277 10.0017 5.29654L13.4071 5.45568C14.7455 5.51823 16.0421 4.98116 16.9442 3.99055L19.2397 1.47003Z" fill="#3D8C58"/>
<path d="M12.5664 22.9014L18.9014 29.2364L31.5714 16.5664" stroke="white" stroke-width="3" stroke-linecap="round" stroke-linejoin="round"/>
</svg>
