<svg width="62" height="44" viewBox="0 0 62 44" fill="none" xmlns="http://www.w3.org/2000/svg">
<path fill-rule="evenodd" clip-rule="evenodd" d="M20.8689 24.5C20.578 27.2097 19.7939 29.3724 18.4264 31.2869C16.5963 33.8489 13.53 36.2376 8.45107 38.7772C7.15438 39.4254 6.62879 41.0022 7.27713 42.2989C7.92547 43.5957 9.50226 44.1213 10.7989 43.4728C16.22 40.7624 20.1537 37.9012 22.6986 34.3382C25.2913 30.7083 26.25 26.6249 26.25 21.875V6.125C26.25 2.74229 23.5077 0 20.125 0H6.125C2.74229 0 0 2.74229 0 6.125V18.375C0 21.7578 2.74232 24.5 6.125 24.5H20.8689Z" fill="#024F2D"/>
<path fill-rule="evenodd" clip-rule="evenodd" d="M55.8687 24.5C55.5779 27.2097 54.7939 29.3724 53.4264 31.2869C51.5963 33.8489 48.53 36.2376 43.4511 38.7772C42.1544 39.4254 41.6286 41.0022 42.2772 42.2989C42.9254 43.5957 44.5021 44.1213 45.7989 43.4728C51.22 40.7624 55.1537 37.9012 57.6986 34.3382C60.2913 30.7083 61.25 26.6249 61.25 21.875V6.125C61.25 2.74232 58.5077 0 55.125 0H41.125C37.7422 0 35 2.74232 35 6.125V18.375C35 21.7578 37.7422 24.5 41.125 24.5H55.8687Z" fill="#024F2D"/>
</svg>
