<svg width="54" height="54" viewBox="0 0 54 54" fill="none" xmlns="http://www.w3.org/2000/svg">
<path d="M23.6728 5.90363C25.4579 3.94358 28.5418 3.94358 30.3269 5.90363L32.6224 8.42414C33.5244 9.41475 34.8211 9.95183 36.1596 9.88928L39.565 9.73013C42.213 9.60636 44.3939 11.7871 44.2702 14.4353L44.1109 17.8407C44.0483 19.1791 44.5854 20.4757 45.5761 21.3778L48.0965 23.6733C50.0567 25.4584 50.0567 28.5423 48.0965 30.3274L45.5761 32.6229C44.5854 33.5249 44.0483 34.8216 44.1109 36.1601L44.2702 39.5655C44.3939 42.2135 42.213 44.3944 39.565 44.2707L36.1596 44.1114C34.8211 44.0488 33.5244 44.5859 32.6224 45.5766L30.3269 48.097C28.5418 50.0572 25.4579 50.0572 23.6728 48.097L21.3774 45.5766C20.4752 44.5859 19.1786 44.0488 17.8402 44.1114L14.4348 44.2707C11.7866 44.3944 9.60587 42.2135 9.72964 39.5655L9.88879 36.1601C9.95134 34.8216 9.41426 33.5249 8.42365 32.6229L5.90314 30.3274C3.94309 28.5423 3.94309 25.4584 5.90314 23.6733L8.42365 21.3778C9.41426 20.4757 9.95134 19.1791 9.88879 17.8407L9.72964 14.4353C9.60587 11.7871 11.7866 9.60636 14.4348 9.73013L17.8402 9.88928C19.1786 9.95183 20.4752 9.41475 21.3774 8.42414L23.6728 5.90363Z" fill="#D69212"/>
<path d="M17 27.335L23.335 33.67L36.005 21" stroke="white" stroke-width="3" stroke-linecap="round" stroke-linejoin="round"/>
</svg>
