<svg width="120" height="120" viewBox="0 0 120 120" fill="none" xmlns="http://www.w3.org/2000/svg">
<path fill-rule="evenodd" clip-rule="evenodd" d="M39.3197 28.713C45.2477 24.7866 52.3568 22.5 60 22.5C80.7108 22.5 97.5 39.2892 97.5 60C97.5 67.6432 95.2134 74.7523 91.2869 80.6803L39.3197 28.713ZM28.713 39.3197C24.7866 45.2477 22.5 52.3568 22.5 60C22.5 80.7108 39.2892 97.5 60 97.5C67.6432 97.5 74.7523 95.2134 80.6803 91.2869L28.713 39.3197ZM60 7.5C31.005 7.5 7.5 31.005 7.5 60C7.5 88.995 31.005 112.5 60 112.5C88.995 112.5 112.5 88.995 112.5 60C112.5 31.005 88.995 7.5 60 7.5Z" fill="#99680C"/>
<path fill-rule="evenodd" clip-rule="evenodd" d="M87.7337 77.1273C87.6716 77.2229 87.609 77.3183 87.5462 77.4132L37.8985 27.7658C43.5622 24.0147 50.3539 21.8302 57.6559 21.8302C61.2913 21.8302 64.8003 22.3717 68.1067 23.3784C84.92 27.0838 97.4996 42.0728 97.4996 59.9999C97.4996 67.6429 95.2131 74.7519 91.2866 80.6802L87.7337 77.1273ZM77.1271 87.7339C77.2227 87.6718 77.3181 87.6093 77.413 87.5464L27.7656 37.8988C24.0144 43.5625 21.8299 50.3542 21.8299 57.6561C21.8299 61.2915 22.3714 64.8006 23.3782 68.1069C27.0835 84.9203 42.0725 97.4999 59.9996 97.4999C67.6426 97.4999 74.7517 95.2133 80.68 91.2868L77.1271 87.7339ZM58.8144 7.51294C30.7609 8.13436 8.13412 30.7611 7.5127 58.8147C8.12837 85.9799 30.3425 107.812 57.6559 107.812C85.3564 107.812 107.812 85.3567 107.812 57.6561C107.812 30.3428 85.9796 8.12862 58.8144 7.51294Z" fill="#D69212"/>
<path fill-rule="evenodd" clip-rule="evenodd" d="M60 9.375C32.0405 9.375 9.375 32.0405 9.375 60C9.375 87.9595 32.0405 110.625 60 110.625C87.9595 110.625 110.625 87.9595 110.625 60C110.625 32.0405 87.9595 9.375 60 9.375ZM5.625 60C5.625 29.9695 29.9695 5.625 60 5.625C90.0305 5.625 114.375 29.9695 114.375 60C114.375 90.0305 90.0305 114.375 60 114.375C29.9695 114.375 5.625 90.0305 5.625 60ZM38.2842 27.1498C44.5099 23.0263 51.9773 20.625 60 20.625C81.7462 20.625 99.375 38.2537 99.375 60C99.375 68.0227 96.9736 75.4901 92.8502 81.7158C92.5395 82.185 92.0346 82.4897 91.4747 82.5459C90.9148 82.6024 90.3591 82.4041 89.9611 82.0062L37.9938 30.0389C37.5959 29.6409 37.3976 29.0852 37.4541 28.5253C37.5103 27.9654 37.815 27.4605 38.2842 27.1498ZM42.3216 29.0634L90.9366 77.6784C93.9197 72.4699 95.625 66.4364 95.625 60C95.625 40.3249 79.6751 24.375 60 24.375C53.5636 24.375 47.5301 26.0803 42.3216 29.0634ZM28.5253 37.4541C29.0852 37.3976 29.6409 37.5959 30.0389 37.9938L82.0062 89.9611C82.4041 90.3591 82.6024 90.9148 82.5459 91.4747C82.4897 92.0346 82.185 92.5395 81.7158 92.8502C75.4901 96.9736 68.0227 99.375 60 99.375C38.2537 99.375 20.625 81.7462 20.625 60C20.625 51.9773 23.0263 44.5099 27.1498 38.2842C27.4605 37.815 27.9654 37.5103 28.5253 37.4541ZM29.0634 42.3216C26.0803 47.5301 24.375 53.5636 24.375 60C24.375 79.6751 40.3249 95.625 60 95.625C66.4364 95.625 72.4699 93.9197 77.6784 90.9366L29.0634 42.3216Z" fill="black"/>
</svg>
