<svg width="120" height="120" viewBox="0 0 120 120" fill="none" xmlns="http://www.w3.org/2000/svg">
<path d="M117.977 29.3378L61.2508 1.19536C60.8619 1.00294 60.434 0.902832 60.0001 0.902832C59.5663 0.902832 59.1383 1.00294 58.7495 1.19536L2.02344 29.3378C1.5545 29.5709 1.15987 29.9302 0.883953 30.3753C0.608032 30.8204 0.461755 31.3336 0.461569 31.8573C0.397311 49.2966 5.23704 66.4027 14.4284 81.2234C23.6198 96.0441 36.7926 107.982 52.4434 115.676L58.7495 118.804C59.1382 118.997 59.5663 119.097 60.0001 119.097C60.434 119.097 60.862 118.997 61.2508 118.804L67.5569 115.676C83.2077 107.982 96.3805 96.0441 105.572 81.2234C114.763 66.4027 119.603 49.2966 119.539 31.8573C119.539 31.3336 119.392 30.8203 119.116 30.3752C118.84 29.9301 118.446 29.5708 117.977 29.3378ZM65.0557 110.637L60.0001 113.145L54.9446 110.637C40.4985 103.538 28.2934 92.5869 19.6751 78.9924C11.0569 65.3978 6.3602 49.6873 6.10303 33.5931L60.0001 6.85422L113.897 33.5931C113.64 49.6873 108.943 65.3978 100.325 78.9924C91.7069 92.5869 79.5018 103.538 65.0557 110.637Z" fill="black"/>
<path d="M58.7492 13.7537L13.5606 36.1722C13.0555 36.4231 12.6373 36.8199 12.3605 37.3113C12.0836 37.8027 11.9608 38.3659 12.0079 38.928C13.1508 53.0261 17.9399 66.5848 25.9053 78.2731C33.8706 89.9614 44.7384 99.3777 57.4418 105.598L58.7511 106.246C59.1395 106.438 59.5672 106.539 60.0008 106.539C60.4343 106.539 60.862 106.438 61.2504 106.246L62.556 105.598C75.2597 99.3779 86.1278 89.9617 94.0935 78.2734C102.059 66.5851 106.849 53.0263 107.992 38.928C108.039 38.3659 107.916 37.8027 107.639 37.3113C107.362 36.8199 106.944 36.4231 106.439 36.1722L61.2504 13.7537C60.8616 13.5613 60.4336 13.4612 59.9998 13.4612C59.566 13.4612 59.138 13.5613 58.7492 13.7537ZM102.204 40.3507C100.901 53.1604 96.3385 65.4227 88.9502 75.9677C81.5619 86.5127 71.5948 94.9887 59.9998 100.587C59.8037 100.417 22.549 84.0396 17.7958 40.3507L59.9998 19.4126L102.204 40.3507Z" fill="black"/>
<path d="M78.1988 60.1387C79.1887 60.1387 79.9912 59.3362 79.9912 58.3462C79.9912 57.3562 79.1887 56.5537 78.1988 56.5537C77.2088 56.5537 76.4062 57.3562 76.4062 58.3462C76.4062 59.3362 77.2088 60.1387 78.1988 60.1387Z" fill="#D69212"/>
<path d="M82.8803 46.6561L78.1122 36.9649C77.3657 35.4332 76.2023 34.143 74.7557 33.2426C73.309 32.3422 71.6377 31.8682 69.9338 31.8748H50.0662C48.3622 31.8682 46.6908 32.3423 45.2442 33.2428C43.7975 34.1434 42.6342 35.4337 41.8879 36.9657L37.1198 46.656C35.6186 47.0594 34.2919 47.9455 33.3441 49.1775C32.3963 50.4095 31.8801 51.9191 31.875 53.4735V62.4491C31.8781 64.1024 32.4583 65.7026 33.5155 66.9737C34.5727 68.2447 36.0405 69.1067 37.6655 69.4109V72.4257C37.6673 73.9561 38.276 75.4234 39.3582 76.5056C40.4404 77.5878 41.9077 78.1965 43.4381 78.1983H48.4369C49.9673 78.1965 51.4346 77.5878 52.5168 76.5056C53.599 75.4234 54.2077 73.9561 54.2095 72.4257V69.5426H65.7905V72.4257C65.7923 73.9561 66.401 75.4234 67.4832 76.5056C68.5654 77.5878 70.0327 78.1965 71.5631 78.1983H76.5619C78.0923 78.1965 79.5596 77.5878 80.6418 76.5056C81.724 75.4234 82.3327 73.9561 82.3345 72.4257V69.4109C83.9595 69.1067 85.4273 68.2447 86.4845 66.9736C87.5417 65.7026 88.1219 64.1023 88.125 62.4491V53.4735C88.1199 51.9191 87.6037 50.4096 86.6559 49.1776C85.7081 47.9456 84.3814 47.0596 82.8803 46.6561ZM41.8013 64.8256C40.5196 64.8256 39.2667 64.4456 38.2011 63.7335C37.1354 63.0215 36.3048 62.0094 35.8143 60.8254C35.3238 59.6413 35.1955 58.3383 35.4455 57.0813C35.6955 55.8243 36.3127 54.6696 37.219 53.7634C38.1252 52.8571 39.2799 52.2399 40.5369 51.9899C41.7939 51.7398 43.0969 51.8681 44.281 52.3586C45.465 52.8491 46.4771 53.6796 47.1892 54.7453C47.9012 55.811 48.2813 57.0638 48.2812 58.3455C48.2792 60.0635 47.5958 61.7105 46.381 62.9253C45.1663 64.1401 43.5192 64.8235 41.8013 64.8256ZM67.4451 60.6892H52.5549C51.9333 60.6892 51.3372 60.4423 50.8977 60.0028C50.4581 59.5632 50.2112 58.9671 50.2112 58.3455C50.2112 57.7239 50.4581 57.1277 50.8977 56.6882C51.3372 56.2487 51.9333 56.0017 52.5549 56.0017H67.4451C68.0667 56.0017 68.6628 56.2487 69.1023 56.6882C69.5419 57.1277 69.7888 57.7239 69.7888 58.3455C69.7888 58.9671 69.5419 59.5632 69.1023 60.0028C68.6628 60.4423 68.0667 60.6892 67.4451 60.6892ZM43.5273 45.9373L45.8123 40.4836C46.1803 39.5097 46.8322 38.6686 47.6834 38.0691C48.5347 37.4697 49.5463 37.1395 50.5873 37.1213H69.4121C70.4532 37.1394 71.4649 37.4696 72.3164 38.069C73.1678 38.6684 73.8198 39.5096 74.1879 40.4836L76.4734 45.9373L43.5273 45.9373ZM78.1988 64.8256C76.9172 64.8256 75.6643 64.4455 74.5987 63.7335C73.533 63.0214 72.7025 62.0094 72.212 60.8253C71.7215 59.6412 71.5932 58.3383 71.8432 57.0812C72.0933 55.8242 72.7105 54.6696 73.6167 53.7633C74.523 52.8571 75.6776 52.2399 76.9346 51.9899C78.1917 51.7398 79.4946 51.8682 80.6787 52.3586C81.8628 52.8491 82.8748 53.6797 83.5869 54.7453C84.2989 55.811 84.679 57.0638 84.679 58.3455C84.6769 60.0635 83.9935 61.7105 82.7787 62.9253C81.5639 64.1401 79.9168 64.8235 78.1988 64.8256Z" fill="#3D8C58"/>
<path d="M41.8013 60.1387C42.7913 60.1387 43.5938 59.3362 43.5938 58.3462C43.5938 57.3562 42.7913 56.5537 41.8013 56.5537C40.8113 56.5537 40.0088 57.3562 40.0088 58.3462C40.0088 59.3362 40.8113 60.1387 41.8013 60.1387Z" fill="#D69212"/>
</svg>
