<svg width="120" height="120" viewBox="0 0 120 120" fill="none" xmlns="http://www.w3.org/2000/svg">
<path d="M98.6534 112.499C106.302 112.499 112.503 106.298 112.503 98.6495C112.503 91.0005 106.302 84.7998 98.6534 84.7998C91.0044 84.7998 84.8037 91.0005 84.8037 98.6495C84.8037 106.298 91.0044 112.499 98.6534 112.499Z" fill="#3D8C58"/>
<path d="M116.494 69.6657C117.49 69.2058 118.128 68.209 118.128 67.1121V52.8882C118.128 51.7908 117.489 50.7935 116.493 50.3342L106.398 45.6797L102.941 37.3224L106.78 26.8932C107.159 25.8638 106.905 24.7083 106.129 23.9328L96.0704 13.8743C95.2948 13.0988 94.1391 12.845 93.11 13.2237L82.681 17.0628L74.3237 13.6055L69.6692 3.51073C69.2098 2.51417 68.2126 1.87573 67.1152 1.87573H52.8913C51.7944 1.87573 50.7976 2.51347 50.3377 3.50933L45.677 13.605L37.3189 17.0625L26.8897 13.2235C25.8603 12.8445 24.7048 13.0985 23.9293 13.8741L13.8709 23.9325C13.0948 24.7085 12.8412 25.8647 13.2207 26.8943L17.0652 37.3219L13.6025 45.6795L3.51336 50.3342C2.51703 50.7938 1.87906 51.7908 1.87906 52.8879V67.1119C1.87906 68.2085 2.51656 69.2053 3.51219 69.6652L13.6027 74.3264L17.0654 82.6789L14.8981 88.5661L5.28523 98.1771C0.732266 102.739 0.733203 110.155 5.28711 114.709C7.4893 116.911 10.4262 118.124 13.5575 118.124C16.6888 118.124 19.6257 116.911 21.8279 114.709L31.4298 105.107L37.3184 102.938L45.677 106.401L50.338 116.491C50.7978 117.487 51.7946 118.124 52.8913 118.124H67.1152C68.2123 118.124 69.2094 117.486 69.669 116.49L74.3237 106.4L79.9505 104.068C82.3041 112.177 89.7945 118.124 98.6525 118.124C109.391 118.124 118.127 109.388 118.127 98.6494C118.127 89.7917 112.181 82.3015 104.072 79.9477L106.398 74.3264L116.494 69.6654L116.494 69.6657ZM17.8508 110.732C16.7113 111.872 15.1866 112.499 13.558 112.499C11.9293 112.499 10.4047 111.872 9.26516 110.732C6.90219 108.369 6.90313 104.52 9.26516 102.153L43.3138 68.111C44.0635 67.3615 44.3281 66.2541 43.9979 65.2465C43.4424 63.5515 43.1609 61.7874 43.1609 60.0033C43.1609 50.7181 50.7151 43.1639 60.0003 43.1639C60.0999 43.1639 60.1995 43.1649 60.2991 43.1665L53.9452 49.5246C52.8474 50.6231 52.8477 52.4032 53.9457 53.5015L66.5021 66.0582C67.6002 67.1562 69.3805 67.1567 70.479 66.0586L76.8371 59.7047C76.8388 59.8041 76.8397 59.9037 76.8397 60.0033C76.8397 69.2885 69.2855 76.8427 60.0003 76.8427C58.2165 76.8427 56.4523 76.5612 54.7569 76.0057C53.7495 75.6757 52.6423 75.9403 51.8926 76.6896L17.8505 110.732L17.8508 110.732ZM33.222 60.0033C33.222 45.2377 45.2347 33.225 60.0003 33.225C74.7659 33.225 86.7786 45.2377 86.7786 60.0033C86.7786 74.7689 74.7659 86.7816 60.0003 86.7816C57.0097 86.7816 54.039 86.276 51.2314 85.3062L54.703 81.8346C56.4352 82.2551 58.2104 82.4677 60.0003 82.4677C72.3873 82.4677 82.4647 72.39 82.4647 60.0033C82.4647 57.6024 82.0911 55.2483 81.354 53.0063C81.0491 52.0786 80.2845 51.3753 79.3344 51.1489C78.384 50.9222 77.3848 51.2049 76.6939 51.8953L68.4912 60.0926L59.911 51.5121L68.1083 43.3095C68.799 42.6183 69.0814 41.6182 68.8543 40.6678C68.6272 39.7175 67.9229 38.9529 66.9943 38.6487C64.7464 37.9123 62.3933 37.5389 59.9998 37.5389C47.6129 37.5389 37.5355 47.6164 37.5355 60.0033C37.5355 61.7935 37.748 63.5682 38.1685 65.3004L34.697 68.7713C33.7271 65.966 33.2216 62.9958 33.2216 60.0033H33.222ZM71.1545 101.625C70.501 101.896 69.9737 102.403 69.6774 103.045L65.3159 112.499H54.6905L50.3227 103.044C50.0263 102.402 49.4989 101.896 48.8459 101.625L38.9942 97.5432L46.8971 89.6403C51.0041 91.4534 55.4844 92.4064 60.0003 92.4064C77.8677 92.4064 92.4036 77.8702 92.4036 60.0031C92.4036 42.136 77.8674 27.5998 60.0003 27.5998C42.1332 27.5998 27.597 42.136 27.597 60.0031C27.597 64.5218 28.5502 69.0012 30.3636 73.1039L22.4609 81.005L18.3781 71.1567C18.1077 70.504 17.6012 69.9769 16.9595 69.6807L7.5043 65.3126V54.6874L16.9583 50.326C17.6007 50.0295 18.1077 49.5021 18.3784 48.8487L22.6834 38.4582C22.9543 37.8042 22.9688 37.0725 22.7239 36.4088L19.1213 26.6372L26.6349 19.1236L36.407 22.7208C37.07 22.965 37.8005 22.9505 38.4538 22.6805L48.8443 18.3821C49.4982 18.1116 50.026 17.6044 50.3227 16.962L54.6908 7.50073H65.3152L69.677 16.9608C69.9734 17.6039 70.5017 18.1114 71.1561 18.3821L81.5466 22.6805C82.1996 22.9505 82.9302 22.9648 83.5932 22.7208L93.3652 19.1236L100.88 26.6379L97.2823 36.41C97.0381 37.073 97.0527 37.8038 97.3227 38.4565L101.621 48.8473C101.892 49.5017 102.399 50.0297 103.042 50.3262L112.502 54.6879V65.3124L103.041 69.6804C102.399 69.9771 101.892 70.505 101.621 71.1586L98.3007 79.1834C87.8427 79.3704 79.3747 87.8379 79.187 98.2957L71.154 101.625H71.1545ZM112.503 98.6494C112.503 106.286 106.29 112.499 98.6532 112.499C91.0166 112.499 84.8035 106.286 84.8035 98.6494C84.8035 91.0128 91.0166 84.7997 98.6532 84.7997C106.29 84.7997 112.503 91.0128 112.503 98.6494ZM96.0697 99.7484L104.572 91.5905C105.693 90.5154 107.473 90.552 108.549 91.6728C109.624 92.7935 109.587 94.5741 108.466 95.6494L97.9761 105.714C97.4314 106.237 96.7299 106.497 96.0291 106.497C95.3087 106.497 94.5887 106.222 94.0402 105.674L88.7984 100.432C87.7002 99.3333 87.7002 97.5528 88.7984 96.4542C89.897 95.3557 91.6775 95.3557 92.776 96.4542L96.0699 99.7482L96.0697 99.7484Z" fill="black"/>
<path d="M101.622 48.8475L97.3232 38.4568C97.0532 37.8038 97.0387 37.0732 97.2829 36.4102L100.88 26.6382L93.3658 19.1239L83.5938 22.7211C82.9307 22.965 82.2 22.9505 81.5472 22.6807L71.1567 18.3823C70.5023 18.1116 69.9743 17.6039 69.6775 16.9611L65.3158 7.50098H54.6914L50.3233 16.9622C50.0266 17.6046 49.4988 18.1118 48.8449 18.3823L38.4543 22.6807C37.8011 22.9507 37.0706 22.9653 36.4075 22.7211L26.6355 19.1239L19.1219 26.6375L22.7245 36.409C22.9692 37.073 22.9546 37.8047 22.6839 38.4584L18.3789 48.8489C18.1082 49.5024 17.6013 50.03 16.9589 50.3262L7.50488 54.6877V65.3129L16.96 69.6809C17.6015 69.9771 18.108 70.5043 18.3787 71.157L22.4615 81.0052L30.3642 73.1042C28.5508 69.0014 27.5976 64.5221 27.5976 60.0033C27.5976 42.1362 42.1338 27.6 60.0009 27.6C77.868 27.6 92.4042 42.1362 92.4042 60.0033C92.4042 77.8704 77.868 92.4066 60.0009 92.4066C55.485 92.4066 51.0047 91.4534 46.8977 89.6405L38.9948 97.5434L48.8465 101.625C49.4995 101.896 50.0268 102.402 50.3233 103.044L54.6911 112.499H65.3165L69.678 103.045C69.9743 102.403 70.5016 101.896 71.155 101.626L79.188 98.296C79.376 87.8382 87.8437 79.3707 98.3018 79.1836L101.622 71.1589C101.893 70.5052 102.4 69.9774 103.042 69.6807L112.503 65.3126V54.6882L103.043 50.3264C102.4 50.03 101.893 49.5017 101.622 48.8475H101.622Z" fill="#D69212"/>
<path d="M54.7571 76.0056C56.4523 76.5611 58.2164 76.8426 60.0005 76.8426C69.2857 76.8426 76.8399 69.2884 76.8399 60.0032C76.8399 59.9036 76.8389 59.804 76.8373 59.7046L70.4792 66.0585C69.3806 67.1563 67.6003 67.1561 66.5023 66.058L53.9459 53.5014C52.8478 52.4031 52.8474 50.623 53.9454 49.5245L60.2993 43.1664C60.1997 43.1648 60.1001 43.1638 60.0005 43.1638C50.7153 43.1638 43.1611 50.718 43.1611 60.0032C43.1611 61.7873 43.4426 63.5514 43.9981 65.2464C44.3281 66.254 44.0635 67.3614 43.3139 68.1109L9.26486 102.153C6.90307 104.519 6.90213 108.369 9.26486 110.732C10.4044 111.872 11.929 112.499 13.5577 112.499C15.1863 112.499 16.711 111.872 17.8505 110.732L51.8925 76.6898C52.6421 75.9402 53.7495 75.6756 54.7568 76.0058L54.7571 76.0056Z" fill="#3D8C58"/>
<path d="M60.0009 82.4678C58.211 82.4678 56.4359 82.2552 54.7036 81.8347L51.232 85.3063C54.0396 86.2761 57.0103 86.7817 60.0009 86.7817C74.7666 86.7817 86.7792 74.769 86.7792 60.0034C86.7792 45.2378 74.7666 33.2251 60.0009 33.2251C45.2353 33.2251 33.2227 45.2378 33.2227 60.0034C33.2227 62.9959 33.7282 65.9661 34.6981 68.7714L38.1696 65.3005C37.7491 63.5682 37.5366 61.7935 37.5366 60.0034C37.5366 47.6164 47.6142 37.539 60.0009 37.539C62.3941 37.539 64.7475 37.9124 66.9954 38.6488C67.924 38.953 68.6281 39.7175 68.8554 40.6679C69.0827 41.6183 68.8001 42.6184 68.1094 43.3096L59.9121 51.5122L68.4923 60.0927L76.695 51.8954C77.3857 51.2049 78.3851 50.9223 79.3355 51.1489C80.2854 51.3753 81.0499 52.0787 81.3551 53.0063C82.0922 55.2484 82.4658 57.6024 82.4658 60.0034C82.4658 72.3903 72.3884 82.4678 60.0014 82.4678H60.0009Z" fill="#F3F3F3"/>
</svg>
