<svg width="120" height="120" viewBox="0 0 120 120" fill="none" xmlns="http://www.w3.org/2000/svg">
<path d="M60.7243 109.218C63.8646 108.758 66.0371 105.839 65.5767 102.699C65.1163 99.5584 62.1973 97.3859 59.0571 97.8463C55.9168 98.3067 53.7443 101.226 54.2047 104.366C54.6651 107.506 57.5841 109.679 60.7243 109.218Z" fill="#3D8C58"/>
<path fill-rule="evenodd" clip-rule="evenodd" d="M86.3435 93.3985L113.854 57.4172C114.874 56.0836 115.228 54.5391 114.895 52.8961C114.56 51.2532 113.629 49.9688 112.172 49.1391C81.1709 31.5165 38.7068 31.5165 7.70604 49.1391C6.24823 49.9688 5.31776 51.2532 4.9826 52.8961C4.64745 54.5391 5.0037 56.086 6.02323 57.4172L33.5318 93.3985C40.542 89.2454 49.7951 86.7188 59.9365 86.7188C70.0779 86.7188 79.3334 89.2454 86.3435 93.3985Z" fill="#F5F5F5"/>
<path fill-rule="evenodd" clip-rule="evenodd" d="M83.59 31.3875C85.1088 33.5156 88.683 37.5703 88.683 40.0968C88.683 42.8625 86.4025 45.1031 83.59 45.1031C80.7775 45.1031 78.4971 42.8625 78.4971 40.0968C78.4971 37.5703 82.0713 33.5156 83.59 31.3875Z" fill="#D69212"/>
<path fill-rule="evenodd" clip-rule="evenodd" d="M91.4693 49.0405C93.2928 51.5952 97.5842 56.4632 97.5842 59.496C97.5842 62.8147 94.8467 65.5077 91.4693 65.5077C88.092 65.5077 85.3545 62.8171 85.3545 59.496C85.3521 56.4632 89.6436 51.5952 91.4693 49.0405Z" fill="#D69212"/>
<path fill-rule="evenodd" clip-rule="evenodd" d="M91.4721 64.1015C88.8682 64.1015 86.7635 62.0343 86.7635 59.496C86.7635 57.5296 89.5971 53.8289 91.2916 51.6187C91.3479 51.5414 91.4158 51.464 91.4744 51.3867C91.533 51.464 91.5893 51.5414 91.6479 51.6187C93.3424 53.8289 96.1854 57.5296 96.1854 59.496C96.1807 62.0343 94.0666 64.1015 91.4721 64.1015ZM92.6111 48.2226C92.3533 47.8523 91.9221 47.632 91.4721 47.632C91.0127 47.632 90.5908 47.8523 90.3236 48.2226C89.9885 48.6984 89.5385 49.2843 89.0604 49.9054C86.7822 52.8773 83.9486 56.5734 83.9486 59.4937C83.9486 63.5835 87.319 66.9117 91.4721 66.9117C95.6158 66.9117 98.9955 63.5835 98.9955 59.4937C98.9955 56.5734 96.1525 52.875 93.8744 49.9054C93.4057 49.2843 92.9557 48.7007 92.6111 48.2226ZM22.4041 34.5937V28.8867C22.4041 28.1109 23.0369 27.4804 23.8104 27.4804C24.5861 27.4804 25.2166 28.1109 25.2166 28.8867V34.5937C25.2166 35.3695 24.5838 36 23.8104 36C23.0369 35.9976 22.4041 35.3671 22.4041 34.5937ZM56.7283 21.3773C56.3838 20.6859 56.651 19.8398 57.3494 19.4859C58.0385 19.1343 58.8799 19.4085 59.2361 20.1C59.4939 20.6062 59.7236 21.1195 59.9346 21.6398C60.1455 21.1195 60.3846 20.6062 60.6424 20.1C60.9963 19.4085 61.8377 19.132 62.5291 19.4859C63.2275 19.8398 63.4947 20.6859 63.1408 21.3773C62.2783 23.0742 61.7252 24.8906 61.4744 26.7726C61.3877 27.4828 60.7854 28.0007 60.0869 28.0007C60.04 28.0007 59.9908 27.996 59.9346 27.9914C59.8877 27.996 59.8385 28.0007 59.7916 28.0007C59.0932 28.0007 58.4908 27.4828 58.4041 26.7726C58.1533 24.8906 57.6002 23.0742 56.7283 21.3773ZM24.415 20.2875C25.4955 18.1242 26.9416 16.1929 28.7322 14.5523C29.3065 14.0273 30.1971 14.0648 30.7221 14.6367C31.2494 15.2085 31.2096 16.0992 30.6354 16.6242C29.1049 18.0304 27.8604 19.6851 26.9416 21.539C26.6932 22.0335 26.194 22.3195 25.6783 22.3195C25.4674 22.3195 25.2565 22.2726 25.0572 22.1742C24.3565 21.8273 24.0799 20.9812 24.415 20.2875ZM46.1041 11.2664C46.3432 10.5281 47.1377 10.1273 47.876 10.3664C49.9619 11.046 51.9049 12.0679 53.6486 13.4039C54.2697 13.875 54.3846 14.7585 53.9158 15.375C53.6393 15.7382 53.2174 15.9281 52.7955 15.9281C52.4979 15.9281 52.2025 15.8343 51.9447 15.6398C50.4518 14.496 48.7854 13.6218 47.0065 13.0406C46.2658 12.8015 45.865 12.007 46.1041 11.2664ZM35.0111 12.1242C34.7721 11.3859 35.1729 10.5914 35.9205 10.3523C37.8354 9.7312 39.8346 9.41714 41.8643 9.41479C42.64 9.41479 43.2705 10.0429 43.2705 10.821C43.2705 11.5968 42.6377 12.2273 41.8643 12.2273C40.1322 12.2296 38.4189 12.4992 36.7807 13.0289C36.6377 13.0757 36.4924 13.0968 36.3494 13.0968C35.7565 13.0992 35.201 12.7195 35.0111 12.1242ZM61.3408 76.4976V82.7296C61.3408 83.5054 60.7197 84.1359 59.9346 84.1359C59.1588 84.1359 58.5377 83.5054 58.5377 82.7296V76.4976C58.5377 75.7218 59.1588 75.0914 59.9346 75.0914C60.7197 75.089 61.3408 75.7218 61.3408 76.4976ZM61.3408 48.5437V54.7757C61.3408 55.5515 60.7197 56.182 59.9346 56.182C59.1588 56.182 58.5377 55.5515 58.5377 54.7757V48.5437C58.5377 47.7679 59.1588 47.1375 59.9346 47.1375C60.7197 47.1398 61.3408 47.7679 61.3408 48.5437ZM61.3408 62.5218V68.7539C61.3408 69.5296 60.7197 70.1601 59.9346 70.1601C59.1588 70.1601 58.5377 69.5296 58.5377 68.7539V62.5218C58.5377 61.746 59.1588 61.1156 59.9346 61.1156C60.7197 61.1156 61.3408 61.7437 61.3408 62.5218ZM65.965 15.3773C65.4963 14.7609 65.6111 13.8773 66.2229 13.4062C67.9736 12.0703 69.9166 11.0484 72.0049 10.3687C72.7408 10.1273 73.5354 10.5304 73.7768 11.2687C74.0158 12.007 73.615 12.8015 72.8768 13.0429C71.0955 13.6242 69.4314 14.4984 67.9385 15.6421C67.6807 15.8367 67.383 15.9304 67.0877 15.9304C66.6541 15.9281 66.2416 15.7382 65.965 15.3773ZM89.2432 16.6218C88.669 16.0968 88.6314 15.2062 89.1564 14.6343C89.6838 14.0625 90.5721 14.025 91.1463 14.55C92.9369 16.1906 94.3807 18.1218 95.4541 20.2851C95.7986 20.9812 95.5221 21.825 94.8213 22.1718C94.6197 22.2703 94.4088 22.3171 94.2002 22.3171C93.6822 22.3171 93.1854 22.0312 92.9369 21.5367C92.0182 19.6828 90.7736 18.0304 89.2432 16.6218ZM96.0658 27.4804C96.8416 27.4804 97.4721 28.1109 97.4721 28.8867V34.5937C97.4721 35.3695 96.8393 36 96.0658 36C95.29 36 94.6596 35.3695 94.6596 34.5937V28.8867C94.6596 28.1085 95.2924 27.4804 96.0658 27.4804ZM76.608 10.8234C76.608 10.0453 77.2408 9.41714 78.0143 9.41714C80.0439 9.41948 82.0432 9.73355 83.958 10.3546C84.694 10.5937 85.1065 11.3882 84.8674 12.1265C84.6752 12.7218 84.1197 13.0992 83.5268 13.0992C83.3838 13.0992 83.2385 13.0781 83.0955 13.0312C81.4596 12.5015 79.7463 12.232 78.0119 12.2296C77.2408 12.2273 76.608 11.5968 76.608 10.8234ZM112.742 56.564C113.508 55.5562 113.775 54.4171 113.517 53.175C113.269 51.9328 112.58 50.9859 111.478 50.3601C104.874 46.6054 97.6385 43.6078 89.951 41.4328C89.3299 44.3296 86.7166 46.5093 83.5947 46.5093C80.0065 46.5093 77.0955 43.6335 77.0955 40.0968C77.0955 39.6398 77.1729 39.164 77.3064 38.6765C72.0143 37.8468 66.6635 37.4039 61.3408 37.3359V40.8023C61.3408 41.5781 60.7197 42.2085 59.9346 42.2085C59.1588 42.2085 58.5377 41.5781 58.5377 40.8023V37.3335C40.6104 37.5515 23.065 42.0281 8.40255 50.3601C7.30099 50.9859 6.61192 51.9328 6.36349 53.175C6.10567 54.4171 6.37286 55.5562 7.13927 56.564L33.9002 91.5679C38.2643 89.1585 43.308 87.4031 48.6775 86.3742L36.7807 65.1703H28.4065L37.5752 78.6679C38.0158 79.3101 37.8424 80.1843 37.2025 80.6203C36.9635 80.7843 36.6846 80.864 36.4174 80.864C35.9674 80.864 35.5174 80.6484 35.2502 80.2476L17.869 54.6539C17.4283 54.0117 17.6018 53.1375 18.2416 52.7015C18.8838 52.2632 19.7533 52.432 20.194 53.0742L26.4916 62.3578H37.6033C38.1096 62.3578 38.5807 62.632 38.8291 63.075L51.6354 85.889C54.3447 85.5117 57.1291 85.3148 59.9346 85.3148C69.4666 85.3148 78.6564 87.5296 85.9783 91.5679L112.742 56.564ZM83.5947 33.7265C84.9916 35.5499 87.2791 38.55 87.2791 40.0945C87.2791 42.0796 85.6221 43.6945 83.5947 43.6945C81.5557 43.6945 79.901 42.0796 79.901 40.0945C79.901 38.5523 82.1979 35.5499 83.5947 33.7265ZM64.2799 103.561C64.2799 105.956 62.3369 107.904 59.9346 107.904C57.5416 107.904 55.5986 105.956 55.5986 103.561C55.5986 101.166 57.5416 99.2156 59.9346 99.2156C62.3369 99.2156 64.2799 101.168 64.2799 103.561ZM116.271 52.6124C115.859 50.5687 114.682 48.9445 112.863 47.9132C105.809 43.9007 98.0463 40.7273 89.8057 38.475C89.126 36.3234 87.3072 33.9515 85.7861 31.964C85.383 31.4484 85.0197 30.9632 84.7338 30.5695C84.476 30.1992 84.0447 29.9789 83.5947 29.9789C83.1354 29.9789 82.7135 30.1992 82.4463 30.5695C82.1697 30.9632 81.7947 31.4507 81.394 31.964C80.4377 33.2156 79.3643 34.6171 78.5229 36.0234C72.8275 35.0882 67.076 34.5937 61.3432 34.5234C61.3244 33.7664 60.701 33.1617 59.9369 33.1617C59.1799 33.1617 58.5588 33.7664 58.54 34.521C40.1252 34.7414 22.0924 39.3421 7.01739 47.9132C5.19864 48.9445 4.02208 50.5687 3.60958 52.6124C3.18771 54.6562 3.64708 56.6132 4.91036 58.2703L32.419 94.2515C32.8502 94.8164 33.6447 94.971 34.2565 94.6078C38.8315 91.896 44.2783 89.9742 50.1354 88.9593L55.2846 98.1351C53.7541 99.4476 52.7861 101.393 52.7861 103.561C52.7861 107.505 55.9924 110.716 59.9369 110.716C63.8908 110.716 67.0971 107.505 67.0971 103.561C67.0971 99.614 63.8908 96.4031 59.9369 96.4031C59.1705 96.4031 58.4346 96.5273 57.7361 96.7546L53.1143 88.5257C55.3549 88.2609 57.6424 88.125 59.9393 88.125C69.4525 88.125 78.5744 90.4265 85.6291 94.6078C85.8588 94.739 86.1072 94.8046 86.3463 94.8046C86.7775 94.8046 87.1877 94.6101 87.4666 94.2515L114.975 58.2703C116.234 56.6156 116.684 54.6585 116.271 52.6124Z" fill="black"/>
</svg>
