<svg width="193" height="79" viewBox="0 0 193 79" fill="none" xmlns="http://www.w3.org/2000/svg">
<path d="M30.0816 29.1942L33.2667 21.4184L36.4407 13.6644C36.9029 12.5359 37.6914 11.5704 38.7055 10.8909C39.7197 10.2114 40.9136 9.84881 42.1351 9.8493H60.9099C62.1313 9.84959 63.325 10.2125 64.3391 10.8919C65.3533 11.5712 66.142 12.5364 66.605 13.6644L69.772 21.4051L74.6072 33.2135L79.6337 45.4868L84.1945 56.6247L84.218 56.6849L89.0133 68.394H72.1685L67.3498 56.6247H39.9911C38.7567 56.6251 37.5503 56.9922 36.5255 57.6791C35.5007 58.366 34.7039 59.3417 34.2364 60.4821L30.9965 68.3925H14.0317L18.8238 56.6834L20.9169 51.5764L23.619 44.979H62.5796L57.4991 32.5727C57.0898 31.5736 56.3918 30.7187 55.494 30.117C54.5961 29.5153 53.5391 29.1941 52.4577 29.1942H30.0816Z" fill="#024F2D"/>
<path d="M127.368 44.9116H119.576C119.523 44.9117 119.472 44.8953 119.429 44.8647C119.386 44.8341 119.353 44.7909 119.336 44.741L118.102 41.181C118.084 41.1311 118.052 41.0879 118.009 41.0573C117.966 41.0267 117.915 41.0103 117.862 41.0104H108.232C108.178 41.0103 108.125 41.0277 108.081 41.06C108.037 41.0922 108.005 41.1377 107.989 41.1896L106.896 44.7332C106.88 44.7849 106.848 44.8301 106.805 44.8622C106.761 44.8943 106.708 44.9116 106.654 44.9116H99.3418C99.3013 44.9116 99.2614 44.9021 99.2254 44.8836C99.1894 44.8652 99.1584 44.8384 99.1348 44.8056C99.1113 44.7728 99.096 44.7348 99.0901 44.6948C99.0842 44.6549 99.088 44.6141 99.1011 44.5759L107.567 20.0388C107.708 19.6334 107.971 19.2817 108.321 19.0328C108.671 18.7838 109.09 18.65 109.519 18.65H116.035C116.45 18.65 116.856 18.7749 117.199 19.0084C117.542 19.2419 117.806 19.5732 117.957 19.959L127.607 44.5658C127.622 44.6043 127.627 44.646 127.622 44.6871C127.618 44.7283 127.603 44.7676 127.579 44.8017C127.556 44.8359 127.524 44.8637 127.488 44.8829C127.451 44.902 127.41 44.9119 127.368 44.9116ZM116.046 35.1617L112.989 26.3257C112.972 26.2759 112.939 26.2327 112.896 26.2022C112.853 26.1716 112.802 26.1551 112.749 26.1551H112.741C112.687 26.1553 112.634 26.1728 112.59 26.2052C112.546 26.2376 112.514 26.2831 112.498 26.3351L109.798 35.1703C109.786 35.2082 109.784 35.2482 109.79 35.2872C109.797 35.3262 109.813 35.3631 109.837 35.3949C109.86 35.4267 109.891 35.4525 109.926 35.4703C109.962 35.4881 110.001 35.4974 110.041 35.4974H115.806C115.847 35.4973 115.887 35.4876 115.922 35.4691C115.958 35.4506 115.989 35.4239 116.013 35.3911C116.036 35.3582 116.051 35.3203 116.057 35.2804C116.063 35.2405 116.059 35.1998 116.046 35.1617Z" fill="#024F2D"/>
<path d="M123.773 18.6525H130.784C130.838 18.6524 130.89 18.6696 130.934 18.7014C130.977 18.7331 131.01 18.778 131.026 18.8293L136.551 36.2588C136.567 36.31 136.6 36.3548 136.643 36.3866C136.687 36.4183 136.739 36.4355 136.793 36.4356C136.848 36.4357 136.902 36.4179 136.946 36.3848C136.99 36.3518 137.022 36.3053 137.037 36.2525L142.118 18.8348C142.133 18.7822 142.165 18.736 142.209 18.7031C142.253 18.6702 142.306 18.6525 142.361 18.6525H150.073C150.114 18.6529 150.154 18.6631 150.19 18.6823C150.226 18.7015 150.257 18.7291 150.28 18.7627C150.303 18.7963 150.317 18.835 150.322 18.8755C150.327 18.916 150.322 18.957 150.308 18.9952L140.984 43.5815C140.835 43.9726 140.571 44.3093 140.226 44.5469C139.881 44.7845 139.472 44.9117 139.053 44.9117H134.159C133.731 44.9116 133.315 44.7793 132.966 44.5331C132.618 44.2869 132.354 43.9389 132.212 43.5369L123.534 18.9897C123.521 18.9515 123.516 18.9107 123.522 18.8706C123.527 18.8305 123.543 18.7923 123.566 18.7592C123.589 18.7261 123.621 18.6992 123.657 18.6806C123.693 18.6621 123.733 18.6524 123.773 18.6525Z" fill="#024F2D"/>
<path d="M172.313 38.8368C171.636 42.3249 169.38 45.2888 164.344 45.2888C155.962 45.2888 151.188 39.9988 151.188 31.7832C151.188 23.5293 156.754 18.2776 165.133 18.2776C172.215 18.2776 177.284 20.3902 178.864 27.724C178.872 27.761 178.872 27.7994 178.863 27.8363C178.854 27.8732 178.837 27.9076 178.813 27.9371C178.789 27.9666 178.759 27.9904 178.725 28.0067C178.69 28.023 178.653 28.0315 178.615 28.0315H171.364C171.312 28.0306 171.262 28.0143 171.22 27.9845C171.178 27.9548 171.146 27.913 171.128 27.8648C170.303 25.7421 167.773 25.03 165.171 25.03C161.148 25.03 158.704 28.1066 158.704 31.7832C158.704 35.7595 160.698 39.1381 165.584 39.1381C168.67 39.1381 171.087 37.8017 171.981 35.8221C171.998 35.7831 172.006 35.7402 172.002 35.6975C171.999 35.6548 171.985 35.6136 171.962 35.5777C171.938 35.5418 171.906 35.5124 171.868 35.4921C171.831 35.4717 171.788 35.4612 171.745 35.4614H164.895C164.827 35.4612 164.763 35.4345 164.715 35.387C164.668 35.3395 164.641 35.2751 164.641 35.2079V30.6862C164.641 30.6191 164.668 30.5547 164.715 30.5072C164.763 30.4597 164.827 30.4329 164.895 30.4327H178.634C178.701 30.4327 178.766 30.4594 178.813 30.507C178.861 30.5545 178.888 30.619 178.888 30.6862V44.6605C178.888 44.7277 178.861 44.7922 178.813 44.8397C178.766 44.8873 178.701 44.914 178.634 44.914H172.502C172.467 44.914 172.433 44.9071 172.402 44.8936C172.37 44.8801 172.341 44.8603 172.318 44.8354C172.294 44.8105 172.275 44.781 172.263 44.7488C172.251 44.7166 172.246 44.6823 172.248 44.648L172.535 38.8368H172.313Z" fill="#024F2D"/>
<path d="M98.9551 49.4873H100.151L102.205 55.6067H102.26L104.271 49.4873H105.14L107.054 55.6067H107.108L109.121 49.4873H110.327L107.553 57.0824H106.466L104.683 51.2446H104.629L102.705 57.0824H101.607L98.9551 49.4873Z" fill="#024F2D"/>
<path d="M111.608 49.4873H112.662V57.0824H111.608V49.4873Z" fill="#024F2D"/>
<path d="M114.706 49.4873H115.76L119.631 55.1208H119.685V49.4873H120.696V57.0824H119.652L115.785 51.4058H115.73V57.08H114.711L114.706 49.4873Z" fill="#024F2D"/>
<path d="M125.51 49.4873C127.924 49.4873 128.923 51.1257 128.923 53.2845C128.923 55.4432 127.924 57.0824 125.51 57.0824H122.651V49.4873H125.51ZM123.728 50.5045V56.0496H125.249C126.902 56.0496 127.815 55.1701 127.815 53.2821C127.815 51.3941 126.891 50.5045 125.238 50.5045H123.728Z" fill="#024F2D"/>
<path d="M134.75 51.8527C134.75 50.8871 134.152 50.2573 132.947 50.2573C132.045 50.2573 131.262 50.5507 131.262 51.4082C131.262 52.33 132.371 52.5365 133.132 52.7204C134.653 53.1335 135.85 53.4582 135.85 54.9894C135.85 56.3783 134.74 57.192 133.034 57.192C131.11 57.192 130.11 56.3673 130.11 54.7179H131.186C131.186 55.7163 131.795 56.3125 133.023 56.3125C134.132 56.3125 134.784 55.8251 134.784 54.9894C134.784 53.9582 133.871 53.8393 132.773 53.5349C131.523 53.1992 130.229 52.9277 130.229 51.3871C130.229 50.1931 131.229 49.3794 132.936 49.3794C134.882 49.3794 135.806 50.3567 135.806 51.8534L134.75 51.8527Z" fill="#024F2D"/>
<path d="M136.999 53.2837C136.999 51.125 138.41 49.3778 140.728 49.3778C142.793 49.3778 144.12 50.4302 144.391 52.1234H143.336C143.054 51.1062 142.304 50.402 140.793 50.402C139.151 50.402 138.108 51.6281 138.108 53.2876C138.108 54.9151 139.086 56.174 140.804 56.174C142.065 56.174 143.01 55.5888 143.312 54.5254H144.378C144.095 56.0332 142.834 57.1943 140.823 57.1943C138.347 57.1912 136.999 55.4331 136.999 53.2837Z" fill="#024F2D"/>
<path d="M145.945 49.4873H148.902C150.674 49.4873 151.511 50.301 151.511 51.7657C151.511 52.8729 150.902 53.7218 149.859 54.0348L151.642 57.0863H150.434L148.76 54.1678H147V57.0863H145.945V49.4873ZM148.804 53.2743C149.823 53.2743 150.5 52.7422 150.5 51.7877C150.5 50.8761 149.989 50.4207 148.794 50.4207H147V53.2743H148.804Z" fill="#024F2D"/>
<path d="M153.01 49.4873H157.924V50.5045H154.083V52.6749H157.573V53.6514H154.087V56.0496H157.928V57.08H153.014L153.01 49.4873Z" fill="#024F2D"/>
<path d="M159.347 49.4873H164.261V50.5045H160.423V52.6749H163.917V53.6514H160.427V56.0496H164.264V57.08H159.35L159.347 49.4873Z" fill="#024F2D"/>
<path d="M165.707 49.4873H166.761L170.631 55.1208H170.685V49.4873H171.696V57.0824H170.653L166.783 51.4058H166.728V57.08H165.709L165.707 49.4873Z" fill="#024F2D"/>
<path d="M177.87 51.8527C177.87 50.8871 177.272 50.2573 176.067 50.2573C175.165 50.2573 174.383 50.5507 174.383 51.4082C174.383 52.33 175.491 52.5365 176.252 52.7204C177.775 53.1335 178.97 53.4582 178.97 54.9894C178.97 56.3783 177.862 57.192 176.155 57.192C174.231 57.192 173.23 56.3673 173.23 54.7179H174.307C174.307 55.7163 174.915 56.3125 176.144 56.3125C177.253 56.3125 177.905 55.8251 177.905 54.9894C177.905 53.9582 176.992 53.8393 175.894 53.5349C174.64 53.1992 173.35 52.9277 173.35 51.3871C173.35 50.1931 174.35 49.3794 176.057 49.3794C178.003 49.3794 178.927 50.3567 178.927 51.8534L177.87 51.8527Z" fill="#024F2D"/>
</svg>
