<svg width="120" height="120" viewBox="0 0 120 120" fill="none" xmlns="http://www.w3.org/2000/svg">
<path fill-rule="evenodd" clip-rule="evenodd" d="M62.9727 15.9807C67.3016 12.8682 72.6121 11.0352 78.351 11.0352C92.9186 11.0352 104.728 22.8446 104.728 37.4122C104.728 51.9798 92.9186 63.7892 78.351 63.7892C63.7834 63.7892 51.974 51.9798 51.974 37.4122C51.974 35.6267 52.1516 33.883 52.49 32.1974L57.2057 35.1913C57.7546 35.5398 58.4033 35.5585 58.9715 35.2428C59.5398 34.9269 59.8663 34.366 59.8597 33.7161L59.6783 14.5904C59.6725 13.9871 59.3861 13.4713 58.8765 13.1481C58.367 12.8246 57.7782 12.7846 57.23 13.0363L39.8441 21.0083C39.2532 21.2792 38.8843 21.8131 38.8403 22.4619C38.7962 23.1106 39.0892 23.6896 39.6381 24.0381L44.9518 27.4119C44.0047 30.5795 43.4959 33.9367 43.4959 37.4124C43.4959 56.6624 59.1011 72.2675 78.351 72.2675C97.6009 72.2675 113.206 56.6624 113.206 37.4124C113.206 18.1625 97.6007 2.55713 78.3508 2.55713C70.4385 2.55713 63.1431 5.19455 57.2936 9.63713C58.4429 9.48197 59.619 9.73299 60.6346 10.3778C62.0828 11.297 62.9427 12.8441 62.9591 14.5592L62.9725 15.981L62.9727 15.9807Z" fill="#D69212"/>
<path fill-rule="evenodd" clip-rule="evenodd" d="M91.2814 14.4194C99.3067 18.9426 104.727 27.5439 104.727 37.4125C104.727 51.9801 92.9178 63.7895 78.3502 63.7895C72.6509 63.7895 67.3742 61.9818 63.0613 58.9089C55.036 54.3857 49.6154 45.7844 49.6154 35.9158C49.6154 34.1303 49.7931 32.3865 50.1315 30.7009L52.4893 32.1979L54.8518 33.6979C55.3995 34.0433 56.0462 34.0611 56.6127 33.7464C57.181 33.4304 57.5075 32.8696 57.5009 32.2197L57.3195 13.094C57.3193 13.0621 57.3181 13.0307 57.3163 12.9993C57.2872 13.011 57.2581 13.0234 57.2291 13.0368L39.8431 21.0088C39.2523 21.2797 38.8834 21.8137 38.8393 22.4624C38.7952 23.1112 39.0882 23.6901 39.6371 24.0386L42.5931 25.9154L44.9509 27.4124C44.0038 30.58 43.4949 33.9372 43.4949 37.4129C43.4949 49.3056 49.4527 59.8051 58.5448 66.0953C63.6763 69.0683 69.635 70.7713 75.9922 70.7713C95.2421 70.7713 110.847 55.1659 110.847 35.9162C110.847 24.0238 104.89 13.5245 95.7981 7.23436C90.6664 4.26107 84.7074 2.55811 78.35 2.55811C70.4377 2.55811 63.1424 5.19553 57.2928 9.63811C58.4422 9.48295 59.6183 9.73397 60.6338 10.3787C61.6585 11.0291 62.3886 11.9936 62.7338 13.1099C66.6291 10.84 71.1587 9.53943 75.9922 9.53943C81.6913 9.53943 86.9682 11.3472 91.2812 14.4201L91.2814 14.4194Z" fill="#D69212"/>
<path fill-rule="evenodd" clip-rule="evenodd" d="M95.0789 26.0486C96.3612 27.3309 96.3612 29.4292 95.0789 30.7115L77.0801 48.7103C76.2855 49.5049 75.2648 49.8513 74.1509 49.7048C73.0369 49.5581 72.1406 48.9592 71.5788 47.9861L65.3367 37.1742C64.4299 35.6036 64.973 33.5767 66.5435 32.6702C68.1117 31.7646 70.1421 32.3088 71.0475 33.877L75.2716 41.1932L90.4162 26.0486C91.6985 24.7663 93.7969 24.7663 95.0791 26.0486H95.0789Z" fill="#3D8C58"/>
<path fill-rule="evenodd" clip-rule="evenodd" d="M81.15 85.986C83.2378 82.4729 80.5931 78.0228 76.5096 78.1773C42.9516 78.1773 42.892 50.8902 11.502 91.2599L28.1133 108.675C35.512 101.213 44.3074 100.869 54.0084 101.449C59.2999 101.765 65.6149 102.529 71.4084 102.401C79.5037 102.223 84.465 100.025 91.5734 96.2596C99.6666 91.9724 113.732 83.4339 116.186 80.2082C119.698 75.5912 115.164 71.2433 109.808 74.3357C103.508 77.9727 86.8277 85.9281 78.2346 88.3246C79.5349 87.7607 80.5507 86.9947 81.1502 85.9857L81.15 85.986Z" fill="#FDB0A0"/>
<path fill-rule="evenodd" clip-rule="evenodd" d="M81.15 85.986C83.2378 82.4729 80.5931 78.0228 76.5096 78.1773C42.9516 78.1773 42.892 50.8902 11.502 91.2599L24.3244 104.702C32.0768 97.0567 41.2676 96.7051 51.3949 97.311C56.9733 97.6447 63.6305 98.45 69.738 98.315C78.2721 98.1264 83.5022 95.81 90.9961 91.8404C99.4437 87.3655 114.062 78.4975 116.861 75.0224C115.7 73.2409 112.89 72.5563 109.808 74.3359C103.508 77.9729 86.8277 85.9283 78.2346 88.3248C79.5349 87.7609 80.5505 86.995 81.15 85.986Z" fill="#FFCEC0"/>
<path fill-rule="evenodd" clip-rule="evenodd" d="M81.1501 85.9858C82.7788 83.2455 81.5274 79.935 78.9601 78.6846C80.8182 80.7199 79.5718 83.6095 76.6573 84.6698C75.0444 85.2567 72.8705 85.5337 70.5085 85.5916C64.3391 85.7425 57.2405 84.295 54.4337 82.8342C53.4441 82.3197 52.2249 82.705 51.7105 83.6946C51.196 84.6841 51.5813 85.9033 52.5709 86.4178C55.8141 88.1057 63.7993 89.7834 70.6034 89.617C73.4138 89.5481 76.0716 89.1581 78.2349 88.3244C79.5352 87.7605 80.551 86.9946 81.1506 85.9856L81.1501 85.9858Z" fill="#FDB0A0"/>
<path fill-rule="evenodd" clip-rule="evenodd" d="M2.58105 93.6555L10.2716 85.9652C11.7812 84.4556 14.2518 84.4556 15.7614 85.9652L34.0447 104.248C35.5543 105.758 35.5543 108.228 34.0447 109.738L26.3542 117.429L2.58105 93.6555Z" fill="#3D8C58"/>
<path fill-rule="evenodd" clip-rule="evenodd" d="M2.58105 93.6553L10.2716 85.9648C11.7805 84.4556 14.2494 84.4552 15.7593 85.9629L15.7611 85.9648L30.1597 100.363C31.6696 101.873 31.6693 104.344 30.1597 105.853L22.4694 113.544L2.58105 93.6553Z" fill="#3D8C58"/>
<path fill-rule="evenodd" clip-rule="evenodd" d="M66.5935 35.0985C66.7065 34.668 66.9777 34.311 67.3618 34.0907C67.6103 33.9461 67.8927 33.8727 68.1751 33.8727C68.3221 33.8727 68.4688 33.892 68.6157 33.9304C69.0451 34.0466 69.4065 34.3178 69.6212 34.6975L73.8463 42.0135C74.1062 42.4553 74.5466 42.7534 75.0549 42.82C75.5633 42.8868 76.0717 42.7138 76.4331 42.3536L91.5711 27.209C92.2149 26.5628 93.2656 26.5637 93.921 27.209C94.565 27.8552 94.565 28.9059 93.921 29.552L75.9137 47.5504C75.4846 47.9866 74.9762 48.1593 74.3661 48.0791C73.756 47.9978 73.3042 47.6995 72.9992 47.1663L66.752 36.3538C66.5373 35.9744 66.4808 35.5281 66.5938 35.0988L66.5935 35.0985ZM79.2955 0.929688H77.4003C66.5996 1.20203 56.6251 6.14945 49.8517 14.6137L39.1534 19.5177C38.0237 20.0397 37.2894 21.0993 37.1989 22.3511C37.1199 23.6029 37.696 24.7518 38.758 25.4237L43.0396 28.143C42.2488 31.1559 41.8534 34.2681 41.8534 37.4123C41.8534 57.5366 58.2226 73.9082 78.3425 73.9082C98.4624 73.9082 114.843 57.5366 114.843 37.4123C114.843 17.6076 98.9879 1.43687 79.2957 0.929922L79.2955 0.929688ZM70.1521 48.8062C70.9766 50.2218 72.3097 51.1188 73.9365 51.3311C74.1737 51.3627 74.4109 51.3784 74.6371 51.3784C75.9927 51.3784 77.2578 50.8565 78.2408 49.8702L96.2368 31.8719C98.1573 29.947 98.1573 26.8131 96.2368 24.8891V24.888C94.3051 22.963 91.1757 22.963 89.2553 24.888L75.6198 38.5211L72.4679 33.0569C71.8126 31.9192 70.7394 31.1036 69.463 30.7612C68.1863 30.419 66.8535 30.5917 65.7238 31.2491C64.5828 31.9066 63.7693 32.972 63.4304 34.2484C63.0803 35.5251 63.261 36.8559 63.916 37.9945L70.1521 48.8057V48.8062ZM61.363 19.4317L61.4987 33.7009C61.5099 34.9548 60.8661 36.0677 59.7702 36.6766C58.6745 37.2866 57.3866 37.2494 56.3246 36.576L53.7376 34.9335C53.6586 35.7548 53.6134 36.584 53.6134 37.412C53.6134 51.052 64.7071 62.1489 78.3425 62.1489C91.978 62.1489 103.083 51.052 103.083 37.412C103.083 23.7721 91.9892 12.6761 78.3425 12.6761C71.9823 12.6761 65.9724 15.0688 61.3632 19.4317H61.363ZM40.475 22.5735C40.475 22.622 40.475 22.6265 40.509 22.6525L45.8298 26.027C46.4511 26.4201 46.7335 27.1783 46.5188 27.8819C45.6038 30.9604 45.1292 34.1664 45.1292 37.412C45.1292 55.7266 60.0299 70.6274 78.3423 70.6274C96.6547 70.6274 111.567 55.7266 111.567 37.412C111.567 19.0975 96.666 4.19805 78.3423 4.19805C70.8071 4.19805 63.6676 6.6993 57.8947 11.2316C58.5385 11.2227 59.1826 11.3976 59.7474 11.7637C60.7304 12.3862 61.3065 13.4109 61.3178 14.5743V15.1584C66.1867 11.4201 72.1178 9.39461 78.3423 9.39461C93.7965 9.39461 106.37 21.9637 106.37 37.4123C106.37 52.8609 93.7965 65.4299 78.3423 65.4299C62.8881 65.4299 50.3258 52.862 50.3258 37.4123C50.3258 35.5495 50.5178 33.6864 50.8794 31.8745C50.9811 31.3445 51.3425 30.9006 51.8396 30.6895C52.3367 30.4771 52.9128 30.5235 53.3647 30.8125L58.0869 33.8062C58.1209 33.8322 58.1321 33.8334 58.1774 33.8097C58.2113 33.786 58.2226 33.7813 58.2226 33.7328L58.0306 14.6059V14.5607C58.0306 14.5607 58.0194 14.5506 57.9967 14.5335C57.9627 14.5155 57.9514 14.5131 57.9514 14.5131C57.9514 14.5131 57.9402 14.5143 57.9174 14.5279L40.5315 22.5002C40.475 22.5205 40.475 22.5238 40.475 22.5735ZM114.877 79.2154C112.877 81.8521 100.066 89.9024 90.8031 94.8098C84.2284 98.2902 79.3252 100.585 71.3722 100.761C67.4071 100.849 63.2045 100.51 59.1376 100.184C57.3753 100.041 55.7146 99.9069 54.0992 99.8109C47.886 99.4391 40.7914 99.3093 34.3747 102.26L17.9828 85.8716C34.0358 67.0452 40.0459 69.5329 50.8231 74.0064C57.0704 76.5958 64.8428 79.8187 76.5123 79.8187C76.5235 79.8187 76.5463 79.8175 76.5688 79.8163C77.8792 79.7655 79.0653 80.414 79.7319 81.5448C80.3985 82.6757 80.4097 84.0234 79.7319 85.1474C78.5345 87.1752 74.1964 88.2292 68.1524 87.9637C62.5039 87.7176 56.799 86.3652 54.5621 85.1995C53.7601 84.7816 52.7659 85.0945 52.348 85.8977C51.9301 86.702 52.2463 87.6927 53.0485 88.1106C56.0647 89.6786 62.3572 90.9946 68.0056 91.2421C68.6382 91.2693 69.2935 91.2862 69.9601 91.2862C72.9765 91.2862 76.2299 90.9552 78.7829 89.8741C87.7414 87.347 104.461 79.3136 110.629 75.7562C112.787 74.5101 114.572 74.8581 115.329 75.7098C116.074 76.5559 115.905 77.8663 114.877 79.2151L114.877 79.2154ZM32.8836 108.577C33.3015 108.158 33.5389 107.596 33.5389 106.994C33.5389 106.391 33.3017 105.829 32.8836 105.409L14.6052 87.1255C14.1758 86.7053 13.611 86.4737 13.0124 86.4737C12.4138 86.4737 11.8487 86.7053 11.4308 87.1255L4.90111 93.6552L26.3539 115.108L32.8836 108.577V108.577ZM117.792 73.5409C119.588 75.5868 119.475 78.5941 117.487 81.2015C114.662 84.9262 99.4681 93.9355 92.3396 97.7097C85.3581 101.41 80.1275 103.85 71.4402 104.042C67.3056 104.133 63.024 103.788 58.8779 103.454C57.1269 103.314 55.4776 103.181 53.9073 103.087C46.8692 102.666 41.3678 102.847 36.4196 104.939C36.6796 105.582 36.815 106.277 36.815 106.993C36.815 108.471 36.2389 109.858 35.1995 110.899L27.5061 118.589C27.2012 118.896 26.7831 119.07 26.3539 119.07C25.9133 119.07 25.4954 118.896 25.1903 118.589L1.42135 94.8156C0.77752 94.1751 0.77752 93.1368 1.42135 92.4962L9.10322 84.8052C10.1537 83.7648 11.5321 83.192 13.0119 83.192C13.8817 83.192 14.7177 83.392 15.4745 83.7648C23.5517 74.2846 29.8103 69.403 35.6849 67.9818C41.4803 66.5786 46.3944 68.6167 52.0881 70.9755C58.0529 73.4507 65.4751 76.5313 76.4783 76.537C78.9976 76.4521 81.2682 77.6971 82.5561 79.8684C83.4824 81.4251 83.7423 83.1953 83.3469 84.8718C92.2489 81.5052 104.19 75.6829 108.98 72.9152C112.764 70.7336 116.131 71.6577 117.792 73.5409Z" fill="#024F2D"/>
</svg>
