<svg width="120" height="120" viewBox="0 0 120 120" fill="none" xmlns="http://www.w3.org/2000/svg">
<path fill-rule="evenodd" clip-rule="evenodd" d="M52.5766 8.56422L57.248 13.2353C58.1571 14.1445 58.5567 15.3094 58.3973 16.585L57.5465 23.3953C57.3869 24.6709 57.7868 25.8363 58.6959 26.7454L94.1996 62.2491C98.5215 60.7057 103.536 61.664 106.997 65.1243C111.783 69.9109 111.783 77.6713 106.997 82.4578C102.21 87.2444 94.4496 87.2444 89.6631 82.4578C86.2028 78.9975 85.2447 73.9827 86.7879 69.661L51.2842 34.1571C50.3751 33.248 49.2099 32.8481 47.934 33.0077L41.1238 33.8585C39.8482 34.0179 38.6835 33.6183 37.7744 32.7092L33.1028 28.0378C32.2779 27.2129 31.8788 26.1917 31.9256 25.0258L32.3122 15.4112L41.2097 24.3087L48.6036 24.0646L48.8477 16.6707L39.9502 7.77342L49.5648 7.38702C50.7308 7.33998 51.7517 7.73934 52.5766 8.56422ZM95.2448 70.706C93.541 72.4097 93.541 75.1721 95.2448 76.8759C96.9485 78.5797 99.7109 78.5797 101.415 76.8759C103.118 75.1721 103.118 72.41 101.415 70.706C99.7109 69.0025 96.9485 69.0022 95.2448 70.706Z" fill="#D69212"/>
<path fill-rule="evenodd" clip-rule="evenodd" d="M31.372 57.3202C33.9179 56.1634 36.617 55.4535 39.3506 55.1886L43.9043 48.1762C44.0745 47.9134 44.3805 47.7966 44.6827 47.8772L52.6168 50.0031C52.6327 50.3802 52.6591 50.7709 52.696 51.1772C52.8244 52.5884 52.3658 53.8554 51.3638 54.8574L43.2499 62.9713C38.3421 62.5592 33.2923 64.2294 29.537 67.9846C23.1964 74.3252 22.8825 84.1182 28.0838 90.8446C31.3399 95.0554 36.0422 97.3318 41.2835 97.5598C51.2419 97.85 59.4026 89.6893 59.1124 79.731L58.8182 72.8554C59.3147 72.3618 67.7071 71.2436 68.0707 70.9599C68.4707 70.6479 69.4939 70.3515 70.1399 70.3282L72.2695 70.3201L74.1523 77.3468C74.2329 77.649 74.116 77.955 73.8532 78.1251L66.8428 82.6777C66.5783 85.4125 65.867 88.112 64.7099 90.6589L68.5012 98.1001C68.6433 98.3782 68.5917 98.702 68.3707 98.923L60.4756 106.818C60.2546 107.039 59.9308 107.09 59.6527 106.949L52.21 103.157C49.6641 104.313 46.9651 105.024 44.2312 105.289L39.6775 112.301C39.5073 112.563 39.2011 112.681 38.8991 112.6L28.1145 109.71C27.8123 109.629 27.6062 109.374 27.5894 109.063L27.1523 100.718C24.9019 99.1054 22.924 97.1276 21.3115 94.8769L12.9667 94.4398C12.6551 94.4233 12.4003 94.2169 12.3191 93.9147L9.42954 83.1301C9.34866 82.8282 9.46578 82.5219 9.72834 82.352L16.7407 77.7982C17.0056 75.0646 17.7158 72.3654 18.8726 69.8194L15.0808 62.377C14.9387 62.0986 14.9901 61.7749 15.2111 61.5538L23.1062 53.6588C23.3272 53.4378 23.651 53.3864 23.9294 53.5285L31.372 57.3202Z" fill="#3D8C58"/>
<path fill-rule="evenodd" clip-rule="evenodd" d="M83.2667 33.7287C85.0087 35.4706 85.0087 38.3206 83.2667 40.0626C85.0087 38.3206 87.8589 38.3209 89.6006 40.0626C91.3423 41.8045 91.3423 44.6545 89.6006 46.3962L88.7675 47.2292C90.3136 45.686 92.8408 45.6867 94.3857 47.2316C95.9315 48.7774 95.9313 51.3068 94.3857 52.8524L89.3716 57.8665C89.0707 58.1674 88.7313 58.4077 88.3694 58.5874C88.2643 58.8349 88.1114 59.0665 87.9103 59.2676L80.83 66.3478C78.9007 68.2772 76.8705 69.5511 74.2941 70.4492C70.8731 71.6415 62.7285 72.3152 60.9619 74.3782L41.0447 97.6386C33.0811 97.375 26.2953 91.7022 24.6611 83.8832L42.2315 62.247C45.3837 58.3654 48.9902 54.0267 48.8215 51.7114C48.5066 47.3962 49.9331 43.508 53.0275 40.449L58.7882 34.7542C60.6952 32.8688 62.8934 31.6402 64.8268 33.1671L70.5993 27.3946C72.341 25.653 75.1912 25.653 76.9329 27.3946C78.6748 29.1363 78.6748 31.9866 76.9329 33.7282C78.6748 31.987 81.5251 31.987 83.2667 33.7287Z" fill="#EFC89F"/>
<path fill-rule="evenodd" clip-rule="evenodd" d="M100.259 75.7104C99.1976 76.7717 97.4615 76.7688 96.4072 75.7104C95.3543 74.6491 95.3543 72.9257 96.4072 71.8644C98.0999 70.1705 101.049 71.3493 101.049 73.7875C101.048 74.5135 100.771 75.1963 100.259 75.7104ZM94.0794 69.5395C91.738 71.8824 91.738 75.6924 94.0794 78.0338C96.4223 80.3767 100.226 80.3921 102.572 78.0338C104.943 75.6511 104.934 71.8997 102.572 69.5395C100.231 67.1981 96.4208 67.1966 94.0794 69.5395ZM105.828 81.2897C107.837 79.2864 108.945 76.6219 108.945 73.7875C108.945 66.503 101.682 61.3361 94.7584 63.7941C94.1488 64.0089 93.4837 63.8577 93.0404 63.4075L89.5768 59.9522C89.2708 60.389 85.2263 64.3586 84.5197 65.0647L87.9556 68.495C88.3988 68.9441 88.5512 69.6132 88.3434 70.2117C86.9579 74.0577 87.9416 78.4053 90.8233 81.2899C94.9664 85.4318 101.695 85.4457 105.828 81.2897ZM73.9208 68.8123C72.8262 69.1961 71.0807 69.5424 69.224 69.9096C64.4996 70.8446 61.2853 71.5819 59.8859 73.2235L40.5032 95.8565C33.8696 95.3114 28.3021 90.6737 26.6209 84.1992L44.0363 62.7605C48.1511 57.702 50.8252 54.1857 50.631 51.5064C50.354 47.6673 51.6424 44.2188 54.358 41.5325L60.1216 35.8382C62.7318 33.2585 63.723 34.0889 64.2088 34.5801L75.3618 45.7248C74.2256 46.7445 73.0758 47.2682 71.8705 47.3167C69.5567 47.4067 66.7859 45.7968 63.4052 42.3859C62.2028 41.1624 60.1602 42.4159 60.662 44.0347C62.768 50.7487 61.7704 56.0258 57.6001 60.167C56.546 61.2084 57.3061 62.9781 58.7502 62.9781C59.1796 62.9781 59.5952 62.8188 59.914 62.5001C63.8627 58.5806 65.5252 53.7273 64.8877 48.0317C67.5488 49.9555 69.8987 50.7631 72.3414 50.5795C71.686 55.6536 77.1347 59.1499 81.4578 56.6575C81.9479 58.1661 83.3104 59.5625 84.783 60.1543L79.8368 65.1005C78.0911 66.8517 76.2623 67.9961 73.9208 68.8123ZM57.4477 81.1193L45.0894 95.5613C51.9467 94.0968 57.0616 88.1961 57.4477 81.1193ZM37.9679 65.0174C31.1797 66.7058 26.4121 72.7046 26.1361 79.5912L37.9679 65.0174ZM72.3829 77.1139L71.2468 72.8577C68.726 73.3776 63.278 74.3174 62.3797 75.3641L60.5648 77.4837C61.4238 83.4079 59.4565 89.4002 55.203 93.6521C47.8009 101.051 35.7805 101.051 28.3804 93.6521C20.9819 86.2536 20.9819 74.2166 28.3804 66.8169C31.7747 63.4212 36.236 61.4733 41.002 61.2806C43.2272 58.553 47.4616 53.4365 47.3473 51.7459C47.3197 51.2513 47.3058 50.7636 47.3058 50.2785L44.9089 49.6385L40.7248 56.0796C40.4615 56.5008 40.0043 56.7722 39.5056 56.8209C36.9148 57.0732 34.407 57.7423 32.0519 58.8146C31.5947 59.021 31.0681 59.01 30.6248 58.7813L23.7944 55.2967L16.8532 62.2325L20.3444 69.0684C20.5662 69.5157 20.5799 70.0396 20.372 70.4954C19.3052 72.8534 18.6263 75.3612 18.3769 77.9534C18.3354 78.4507 18.0582 78.8997 17.6425 79.1741L11.2007 83.3582L13.736 92.8293L21.3978 93.2311C21.8965 93.2575 22.3537 93.508 22.6446 93.9141C24.1801 96.0614 25.9744 97.8336 28.1171 99.3758C28.5188 99.6681 28.7682 100.128 28.796 100.628L29.1978 108.294L38.6744 110.832L42.8586 104.389C43.1219 103.97 43.5791 103.696 44.0778 103.648C46.6686 103.398 49.1764 102.728 51.5317 101.657C51.9889 101.449 52.5155 101.461 52.9588 101.688L59.7892 105.172L66.7304 98.2387L63.2528 91.4028C63.0174 90.9581 63.0035 90.4317 63.2113 89.9757C64.292 87.6163 64.9571 85.1059 65.2064 82.5163C65.248 82.0188 65.5252 81.5685 65.9545 81.2942L72.3829 77.1139ZM52.4461 32.9909L55.3696 35.9085L57.808 33.4992C58.9163 32.3921 59.9555 31.6814 60.8838 31.2588L57.531 27.9045C56.2703 26.6383 55.6883 24.9631 55.924 23.1871L56.769 16.3776C56.866 15.6086 56.6305 14.9409 56.09 14.3935L51.4211 9.72309C50.9224 9.22581 50.3404 8.99421 49.6338 9.02613L43.7732 9.26301L50.008 15.5045C50.3267 15.8246 50.5067 16.265 50.4928 16.721L50.2434 24.1152C50.2158 24.9811 49.5229 25.6752 48.664 25.7042L41.2655 25.9481C40.8083 25.9632 40.365 25.7901 40.0463 25.4673L33.8116 19.2264L33.5761 25.0896C33.5485 25.7906 33.77 26.3738 34.2688 26.8713L38.9377 31.5432C39.4919 32.0889 40.1569 32.3205 40.9189 32.2236L47.7354 31.3728C49.509 31.1481 51.1854 31.7261 52.4461 32.9909ZM71.9396 28.4717L67.34 33.0631L71.3579 37.0713L75.9438 32.4799C77.0521 31.3757 77.0521 29.5773 75.9438 28.4717C74.8352 27.3686 73.034 27.3674 71.9396 28.4717ZM82.2752 34.806C81.1669 33.7017 79.3657 33.7017 78.2711 34.806L73.6715 39.3948L77.6893 43.4057L82.2752 38.8142C83.3821 37.7021 83.385 35.9301 82.2752 34.806ZM84.6028 41.1403L78.5761 47.1698L78.5622 47.1588C78.3822 47.3556 78.202 47.5425 78.022 47.7225L76.2071 49.5569C75.2927 50.675 75.3757 52.3361 76.3871 53.3573C77.4954 54.4601 79.2966 54.4629 80.4049 53.3546L82.7603 51.0021L88.6069 45.1485C89.7152 44.0429 89.7152 42.246 88.6069 41.1403C87.4984 40.0346 85.7111 40.0346 84.6028 41.1403ZM93.4004 51.606C94.3009 50.6957 94.3009 49.2175 93.4004 48.3101C92.486 47.4026 91.0036 47.4026 90.1031 48.3074L85.0878 53.327C84.2288 54.1819 84.2288 55.5715 85.0878 56.4264L85.2817 56.6203C86.127 57.4752 87.5262 57.4752 88.3852 56.6203L93.4004 51.606ZM108.156 63.9576C104.637 60.4303 99.4273 59.0793 94.6612 60.3804L91.9595 57.6857L95.714 53.9311C99.0073 50.6462 97.0825 45.0883 92.5967 44.4048C93.3956 40.5168 90.3839 36.8851 86.3759 37.0298C86.3898 36.9578 86.3898 36.8858 86.3898 36.8109C86.3898 33.335 83.5132 30.5618 80.0581 30.6981C80.1135 29.0577 79.5179 27.3979 78.2708 26.1482C75.874 23.7612 71.9946 23.7612 69.6116 26.1482L65.0118 30.7368L59.8578 25.5801C59.3176 25.0315 59.0819 24.365 59.1788 23.5961L60.0239 16.7865C60.2456 15.0103 59.6776 13.3353 58.4168 12.0691L53.734 7.39725C52.5841 6.24861 51.1292 5.67381 49.4946 5.73885L39.8795 6.12813C38.4604 6.18549 37.7814 7.92429 38.7851 8.93229L47.1815 17.3256L47.0152 22.4683L41.8751 22.6373L33.4792 14.244C32.4503 13.2245 30.7249 13.9341 30.6666 15.3413L30.2788 24.9549C30.2233 26.5802 30.7914 28.0459 31.9412 29.1972L36.6102 33.8676C37.8848 35.1353 39.5473 35.7089 41.3207 35.4857L48.1372 34.6349C48.9131 34.5379 49.5781 34.7678 50.1184 35.3165L53.0279 38.2219L52.0441 39.1958C49.7996 41.418 48.3311 44.0561 47.68 46.9737L45.1031 46.2837C44.1193 46.0205 43.0804 46.4196 42.526 47.2757L38.3972 53.6364C35.9864 53.9412 33.6589 54.5659 31.4284 55.4985L24.6812 52.0584C23.7668 51.5928 22.6722 51.7689 21.952 52.4921L14.0548 60.3852C13.3204 61.1112 13.1543 62.2099 13.6115 63.1202L17.0612 69.8717C16.1192 72.0967 15.4957 74.4341 15.1909 76.8391L8.83164 80.9678C7.97268 81.5234 7.58484 82.5612 7.84788 83.5531L10.7298 94.3375C10.9931 95.3239 11.866 96.0237 12.8773 96.0777L20.4558 96.4754C21.9097 98.4048 23.6372 100.111 25.5544 101.575L25.9422 109.145C25.9976 110.165 26.7042 111.029 27.688 111.294L38.4808 114.184C39.4453 114.448 40.4944 114.059 41.0579 113.194L45.1866 106.833C47.5974 106.528 49.9249 105.903 52.1555 104.971L58.9026 108.409C59.817 108.874 60.9114 108.7 61.6458 107.977L69.5291 100.081C70.2635 99.3583 70.4296 98.2596 69.9724 97.3493L66.5226 90.6007C67.4648 88.3716 68.0881 86.0342 68.3929 83.6289L74.7522 79.5002C75.6112 78.9432 76.0129 77.9069 75.736 76.9178L74.4474 72.0965C74.6413 72.0369 74.8352 71.9774 75.0015 71.9165C77.8002 70.9425 80.0723 69.5155 82.1644 67.4263L82.192 67.3915L84.9212 70.1167C83.619 74.8896 84.9767 80.088 88.4958 83.6153C93.9174 89.0376 102.711 89.0601 108.156 83.6153C113.598 78.1733 113.586 69.3739 108.156 63.9576Z" fill="#024F2D"/>
</svg>
