<svg width="120" height="120" viewBox="0 0 120 120" fill="none" xmlns="http://www.w3.org/2000/svg">
<path fill-rule="evenodd" clip-rule="evenodd" d="M64.6759 53.7866C64.6759 49.4889 61.1783 45.991 56.8806 45.991C52.5833 45.991 49.0853 49.4893 49.0853 53.7866C49.0853 58.085 52.5824 61.5819 56.8806 61.5819C61.1795 61.5821 64.6759 58.0857 64.6759 53.7866ZM104.173 58.1767C104.518 58.1767 104.832 57.9887 104.997 57.6859C105.16 57.3852 105.146 57.0177 104.96 56.7303L100.158 49.3147C99.9859 49.0487 99.6894 48.8858 99.3721 48.8858H90.0233C89.5054 48.8858 89.0856 49.3056 89.0856 49.8233V57.2389C89.0856 57.7583 89.5039 58.1767 90.0233 58.1767H104.173ZM49.6733 78.6095C47.544 78.6095 45.8125 80.3403 45.8125 82.4696C45.8125 84.5975 47.5454 86.3298 49.6733 86.3298C51.8005 86.3298 53.5309 84.5961 53.5309 82.4696C53.5309 80.3417 51.8017 78.6095 49.6733 78.6095ZM91.6593 82.4696C91.6593 84.5971 93.3918 86.3298 95.5192 86.3298C97.6459 86.3298 99.38 84.5966 99.38 82.4696C99.38 80.3413 97.6471 78.6095 95.5192 78.6095C93.3904 78.6095 91.6593 80.341 91.6593 82.4696ZM43.7832 55.13V52.4429L44.3849 52.3553C45.8085 52.1478 46.9527 51.2279 47.5021 49.9011C48.0514 48.5741 47.8904 47.1172 47.0326 45.9629L46.6707 45.4759L48.5696 43.5756L49.0574 43.9396C50.21 44.7995 51.669 44.9579 52.9949 44.409C54.3217 43.8599 55.2418 42.7152 55.4493 41.2916L55.5369 40.6899H58.224L58.3117 41.2916C58.5191 42.7147 59.4388 43.8599 60.7651 44.409C62.091 44.9581 63.55 44.7995 64.7026 43.9396L65.1901 43.5758L67.0904 45.4756L66.7283 45.9629C65.8703 47.1179 65.7104 48.5741 66.26 49.9011C66.8092 51.2272 67.9515 52.1478 69.3751 52.3553L69.9768 52.4429V55.13L69.3761 55.2184C67.9527 55.4277 66.8097 56.345 66.26 57.6721C65.7111 58.9981 65.8696 60.4567 66.7281 61.61L67.0904 62.0968L65.1906 64.0002L64.7026 63.636C63.5497 62.7756 62.0917 62.6174 60.7654 63.1667C59.4395 63.7156 58.5193 64.8587 58.3117 66.2816L58.224 66.8832H55.5369L55.4493 66.2813C55.2421 64.858 54.3231 63.7135 52.9968 63.1639C51.669 62.6138 50.2112 62.7749 49.0571 63.6357L48.5689 63.9999L46.67 62.0956L47.0331 61.6088C47.893 60.4562 48.0507 58.9974 47.5018 57.6716C46.9522 56.3438 45.8073 55.4272 44.3837 55.2179L43.7832 55.13ZM82.9916 44.0436H101.264C102.327 44.0436 103.224 44.5323 103.802 45.4243L112.061 58.1788C112.395 58.6951 112.546 59.2067 112.546 59.8217V78.0233H104.318L104.117 77.6642C102.372 74.5553 99.0974 72.6139 95.5192 72.6139C91.94 72.6139 88.6642 74.5541 86.9195 77.6642L86.7179 78.0233H82.9918L82.9916 44.0436ZM57.651 82.4696C57.651 86.8698 54.0744 90.4501 49.6733 90.4501C45.2727 90.4501 41.6924 86.8703 41.6924 82.4696C41.6924 78.0688 45.2725 74.4892 49.6733 74.4892C54.0744 74.4892 57.651 78.0692 57.651 82.4696ZM95.5189 74.4892C99.9198 74.4892 103.5 78.0688 103.5 82.4696C103.5 86.8703 99.9196 90.4501 95.5189 90.4501C91.1183 90.4501 87.5392 86.8703 87.5392 82.4696C87.5392 78.069 91.1181 74.4892 95.5189 74.4892Z" fill="#D69212"/>
<path fill-rule="evenodd" clip-rule="evenodd" d="M49.673 83.7516C48.9649 83.7516 48.3905 83.1748 48.3905 82.4696C48.3905 81.7615 48.9649 81.1873 49.673 81.1873C50.3787 81.1873 50.9522 81.7615 50.9522 82.4696C50.9522 83.1746 50.3787 83.7516 49.673 83.7516ZM49.673 77.9063C47.1555 77.9063 45.109 79.9524 45.109 82.4696C45.109 84.9842 47.1555 87.0328 49.673 87.0328C52.1883 87.0328 54.2337 84.9842 54.2337 82.4696C54.2337 79.9524 52.1883 77.9063 49.673 77.9063ZM95.5186 83.7516C94.8117 83.7516 94.2361 83.1748 94.2361 82.4696C94.2361 81.7615 94.8117 81.1873 95.5186 81.1873C96.2243 81.1873 96.8011 81.7615 96.8011 82.4696C96.8011 83.1746 96.2245 83.7516 95.5186 83.7516ZM95.5186 77.9063C93.0023 77.9063 90.9555 79.9524 90.9555 82.4696C90.9555 84.9842 93.0021 87.0328 95.5186 87.0328C98.0339 87.0328 100.083 84.9842 100.083 82.4696C100.083 79.9524 98.0339 77.9063 95.5186 77.9063ZM56.8802 59.0037C54.0045 59.0037 51.6623 56.6649 51.6623 53.7865C51.6623 50.9107 54.0045 48.5693 56.8802 48.5693C59.7584 48.5693 62.097 50.9107 62.097 53.7865C62.097 56.6646 59.7584 59.0037 56.8802 59.0037ZM65.3787 53.7865C65.3787 49.1014 61.5666 45.2881 56.8802 45.2881C52.1948 45.2881 48.3818 49.1014 48.3818 53.7865C48.3818 58.4743 52.1948 62.285 56.8802 62.285C61.5666 62.285 65.3787 58.4743 65.3787 53.7865ZM56.1448 66.1803H57.6157C57.855 64.5396 58.9146 63.1711 60.4959 62.5172C62.0782 61.8607 63.7941 62.0808 65.1227 63.0727L66.1636 62.03C65.1745 60.701 64.954 58.9854 65.61 57.4032C66.2639 55.8211 67.6324 54.7641 69.2733 54.5227V53.0508C67.6324 52.8118 66.2639 51.7521 65.61 50.1701C64.954 48.5883 65.1745 46.8748 66.1636 45.5436L65.1227 44.5029C63.7941 45.4943 62.0782 45.7125 60.4959 45.0586C58.9146 44.4026 57.855 43.0339 57.6157 41.393H56.1448C55.9055 43.0336 54.8459 44.4026 53.2634 45.0586C51.6809 45.7125 49.9652 45.4946 48.6363 44.5029L47.5964 45.5436C48.5857 46.875 48.8051 48.5886 48.1512 50.1701C47.4952 51.7521 46.1266 52.8118 44.4858 53.0508V54.5227C46.1266 54.7639 47.4949 55.8211 48.1512 57.4032C48.8051 58.9852 48.5878 60.701 47.5964 62.03L48.6363 63.0727C49.9685 62.0789 51.6841 61.8589 53.2655 62.5149C54.8456 63.1686 55.9055 64.5375 56.1448 66.1803ZM60.8454 66.9C60.8454 65.993 61.5389 65.6368 61.7508 65.5477C61.9636 65.4612 62.7068 65.2221 63.3464 65.8643C63.8316 66.3471 64.4756 66.6143 65.1605 66.6143C65.8453 66.6143 66.487 66.3471 66.9722 65.8643L68.9571 63.8792C69.4402 63.3943 69.708 62.7518 69.708 62.0675C69.708 61.3831 69.4402 60.7388 68.9571 60.256C68.3154 59.6136 68.5547 58.8706 68.6407 58.6596C68.73 58.4466 69.0862 57.7528 69.9937 57.7528C71.4073 57.7528 72.5552 56.6042 72.5552 55.1909V52.3833C72.5552 50.9721 71.4073 49.8218 69.9937 49.8218C69.0862 49.8218 68.73 49.1278 68.6407 48.9169C68.5547 48.7036 68.3154 47.9607 68.9571 47.3211C69.9562 46.32 69.9562 44.6961 68.9571 43.695L66.9722 41.7125C66.487 41.2273 65.8453 40.9599 65.1605 40.9599C64.4756 40.9599 63.8316 41.2273 63.3487 41.7125C62.707 42.3521 61.9638 42.1156 61.751 42.0263C61.5394 41.9398 60.8456 41.581 60.8456 40.6744C60.8456 39.2632 59.6967 38.1122 58.2841 38.1122H55.4766C54.0628 38.1122 52.9151 39.2632 52.9151 40.6744C52.9151 41.581 52.2204 41.9398 52.0097 42.0263C51.7969 42.1156 51.0537 42.3518 50.4141 41.7125C49.9277 41.2273 49.286 40.9599 48.5991 40.9599C47.9154 40.9599 47.2737 41.2273 46.7873 41.7125L44.8048 43.695C43.8047 44.6961 43.8047 46.32 44.8048 47.3211C45.4444 47.9607 45.2084 48.7039 45.1191 48.9169C45.033 49.1278 44.6735 49.8218 43.7672 49.8218C42.3558 49.8218 41.2045 50.9724 41.2045 52.3833V55.1909C41.2045 56.6042 42.3558 57.7528 43.7672 57.7528C44.6735 57.7528 45.033 58.4464 45.1191 58.6596C45.2084 58.8708 45.4444 59.6138 44.8048 60.256C44.3196 60.7388 44.0529 61.3831 44.0529 62.0675C44.0529 62.7518 44.3196 63.3964 44.8048 63.8792L46.7873 65.8643C47.2737 66.3471 47.9154 66.6143 48.5991 66.6143C49.286 66.6143 49.9277 66.3471 50.4141 65.8643C51.0558 65.2221 51.7969 65.4586 52.0097 65.5456C52.2202 65.6344 52.9151 65.9909 52.9151 66.9003C52.9151 68.3135 54.063 69.462 55.4766 69.462H58.2841C59.6965 69.4618 60.8454 68.3133 60.8454 66.9ZM114.609 83.9975C114.609 84.1805 114.454 84.3373 114.269 84.3373H105.909C106.016 83.7303 106.077 83.1071 106.077 82.4696C106.077 81.8321 106.016 81.2084 105.909 80.6014H114.269C114.454 80.6014 114.609 80.7561 114.609 80.9412V83.9975ZM95.5186 71.911C91.5645 71.911 88.1152 74.0951 86.3055 77.3204H83.6944V44.7467H101.264C102.089 44.7467 102.763 45.1151 103.211 45.8063L111.47 58.5607C111.733 58.9641 111.843 59.3414 111.843 59.8217V77.3201H104.73C102.92 74.0951 99.4709 71.911 95.5186 71.911ZM95.5186 89.7469C99.5313 89.7469 102.796 86.4818 102.796 82.4696C102.796 78.4568 99.5313 75.1922 95.5186 75.1922C91.5059 75.1922 88.242 78.4568 88.242 82.4696C88.242 86.4821 91.5061 89.7469 95.5186 89.7469ZM60.0605 84.3373C60.1709 83.7303 60.2292 83.1071 60.2292 82.4696C60.2292 81.8321 60.1709 81.2084 60.0605 80.6014H85.1292C85.0212 81.2084 84.9605 81.8321 84.9605 82.4696C84.9605 83.1071 85.0209 83.7303 85.1292 84.3373H60.0605ZM49.673 71.911C53.6238 71.911 57.0743 74.0951 58.8837 77.3204H80.4138V30.2532H33.3464V42.2485H36.7305C37.6348 42.2485 38.3714 42.9821 38.3714 43.8891C38.3714 44.7936 37.6348 45.5297 36.7305 45.5297H33.3464V52.1459H36.7305C37.6348 52.1459 38.3714 52.8795 38.3714 53.7865C38.3714 54.6936 37.6348 55.4271 36.7305 55.4271H33.3464V62.0433H36.7305C37.6348 62.0433 38.3714 62.7795 38.3714 63.6839C38.3714 64.5912 37.6348 65.3246 36.7305 65.3246H33.3464V77.3199H40.4599C42.2695 74.0951 45.7188 71.911 49.673 71.911ZM49.673 89.7469C53.6857 89.7469 56.9475 86.4818 56.9475 82.4696C56.9475 78.4568 53.6857 75.1922 49.673 75.1922C45.6602 75.1922 42.3952 78.4568 42.3952 82.4696C42.3952 86.4821 45.6602 89.7469 49.673 89.7469ZM31.7055 84.3373C31.5225 84.3373 31.3659 84.1805 31.3659 83.9975V80.9412C31.3659 80.7561 31.5225 80.6014 31.7055 80.6014H39.2834C39.1753 81.2084 39.1146 81.8321 39.1146 82.4696C39.1146 83.1071 39.1753 83.7303 39.2834 84.3373H31.7055ZM115.125 77.4256V59.8217C115.125 58.7086 114.832 57.7123 114.225 56.7774L105.968 44.0227C104.915 42.3982 103.2 41.4657 101.264 41.4657H83.6944V28.6123C83.6944 27.7079 82.9589 26.9717 82.0535 26.9717H31.7055C30.8013 26.9717 30.0647 27.7079 30.0647 28.6123V42.2482H23.688C22.7805 42.2482 22.0472 42.9818 22.0472 43.8889C22.0472 44.7933 22.7805 45.5295 23.688 45.5295H30.0649V52.1457H13.7196C12.8121 52.1457 12.0787 52.8793 12.0787 53.7863C12.0787 54.6933 12.8121 55.4269 13.7196 55.4269H30.0649V62.0431H3.74906C2.84484 62.0431 2.10938 62.7793 2.10938 63.6837C2.10938 64.591 2.84484 65.3243 3.74906 65.3243H30.0649V77.716C28.8938 78.3162 28.0845 79.5347 28.0845 80.941V83.997C28.0845 85.9939 29.7087 87.6183 31.7058 87.6183H40.4602C42.2695 90.8433 45.7188 93.0275 49.6732 93.0275C53.6241 93.0275 57.0745 90.8431 58.8839 87.6183H86.3058C88.1154 90.8433 91.5645 93.0275 95.5188 93.0275C99.4709 93.0275 102.92 90.8431 104.73 87.6183H114.269C116.266 87.6183 117.89 85.9941 117.89 83.997V80.9412C117.89 79.2399 116.709 77.8123 115.125 77.4256ZM91.6636 55.5982H101.156L98.4792 51.4641H91.6636V55.5982ZM105.614 58.0217C105.902 57.4946 105.876 56.8521 105.55 56.3482L100.748 48.9326C100.446 48.4664 99.9272 48.1826 99.3715 48.1826H90.0227C89.1152 48.1826 88.3819 48.9188 88.3819 49.8232V57.2389C88.3819 58.1461 89.1152 58.8797 90.0227 58.8797H104.172C104.775 58.8797 105.327 58.5514 105.614 58.0217Z" fill="#024F2D"/>
</svg>
