<svg width="120" height="120" viewBox="0 0 120 120" fill="none" xmlns="http://www.w3.org/2000/svg">
<g clip-path="url(#clip0_363_327)">
<path d="M65.18 35.68C64.1961 36.5973 63.5601 37.8269 63.38 39.16L56.16 90H15.52C12.2524 89.9836 9.10288 88.7761 6.66182 86.6039C4.22075 84.4316 2.6557 81.4436 2.26 78.2C2.09191 76.7326 2.00511 75.257 2 73.78C2 53.32 19.02 18.22 40 18.22C49.66 18.22 58.48 25.66 65.18 35.68Z" fill="#3D8C58"/>
<path d="M39.9995 18.22C39.0009 18.2282 38.0045 18.3151 37.0195 18.48C45.4915 19.834 53.1855 26.716 59.1795 35.68C58.1956 36.5973 57.5596 37.8269 57.3795 39.16L50.1595 90H56.1595L63.3795 39.16C63.5596 37.8269 64.1957 36.5973 65.1795 35.68C58.4795 25.66 49.6595 18.22 39.9995 18.22Z" fill="#024F2D"/>
<path d="M49.0584 2.00003C49.8064 1.96757 50.5513 2.11397 51.2314 2.42707C51.9115 2.74017 52.5071 3.21095 52.9688 3.80034C53.4305 4.38972 53.745 5.08072 53.8861 5.81599C54.0273 6.55125 53.991 7.30958 53.7804 8.02803C53.0043 11.0508 51.2102 13.7138 48.7002 15.5684C46.1902 17.423 43.1178 18.3559 40.0004 18.21C36.883 18.3559 33.8106 17.423 31.3006 15.5684C28.7906 13.7138 26.9965 11.0508 26.2204 8.02803C26.0098 7.30958 25.9736 6.55125 26.1147 5.81599C26.2559 5.08072 26.5703 4.38972 27.032 3.80034C27.4937 3.21095 28.0893 2.74017 28.7694 2.42707C29.4495 2.11397 30.1944 1.96757 30.9424 2.00003H49.0584Z" fill="#3D8C58"/>
<path d="M49.058 2.00003H43.058C43.806 1.96757 44.5509 2.11397 45.231 2.42707C45.9111 2.74017 46.5067 3.21095 46.9684 3.80034C47.4301 4.38972 47.7445 5.08072 47.8857 5.81599C48.0269 6.55125 47.9906 7.30958 47.78 8.02803C47.1272 10.5448 45.7635 12.8204 43.8518 14.5827C41.9402 16.3451 39.5614 17.5196 37 17.966C37.9913 18.1319 38.9949 18.2135 40 18.21C43.1174 18.3559 46.1898 17.423 48.6998 15.5684C51.2098 13.7138 53.0039 11.0508 53.78 8.02803C53.9906 7.30958 54.0269 6.55125 53.8857 5.81599C53.7445 5.08072 53.4301 4.38972 52.9684 3.80034C52.5067 3.21095 51.9111 2.74017 51.231 2.42707C50.5509 2.11397 49.806 1.96757 49.058 2.00003Z" fill="#024F2D"/>
<path d="M106.06 118H65.9396C64.2242 117.994 62.5301 117.62 60.9717 116.903C59.4133 116.186 58.027 115.143 56.9065 113.845C55.7859 112.546 54.9572 111.022 54.4764 109.375C53.9957 107.728 53.874 105.998 54.1196 104.3L63.3796 39.16C63.5787 37.7308 64.2874 36.4217 65.3752 35.4735C66.463 34.5254 67.8566 34.0021 69.2996 34H69.9996C71.0605 34 72.0779 34.4214 72.828 35.1716C73.5782 35.9217 73.9996 36.9391 73.9996 38V60C74.0028 61.0599 74.4252 62.0755 75.1747 62.8249C75.9241 63.5744 76.9397 63.9968 77.9996 64H93.9996C95.0595 63.9968 96.0751 63.5744 96.8245 62.8249C97.574 62.0755 97.9964 61.0599 97.9996 60V38C97.9996 36.9391 98.421 35.9217 99.1712 35.1716C99.9213 34.4214 100.939 34 102 34H102.7C104.143 34.0021 105.536 34.5254 106.624 35.4735C107.712 36.4217 108.42 37.7308 108.62 39.16L117.88 104.3C118.125 105.998 118.004 107.728 117.523 109.375C117.042 111.022 116.213 112.546 115.093 113.845C113.972 115.143 112.586 116.186 111.027 116.903C109.469 117.62 107.775 117.994 106.06 118Z" fill="#E6A62D"/>
<path d="M117.88 104.3L108.62 39.16C108.421 37.7308 107.712 36.4217 106.624 35.4735C105.536 34.5254 104.143 34.0021 102.7 34H102C101.148 34.0019 100.32 34.2774 99.6377 34.786C100.436 35.2385 101.12 35.8681 101.637 36.6263C102.154 37.3846 102.49 38.2514 102.62 39.16L111.88 104.3C112.125 105.998 112.004 107.728 111.523 109.375C111.042 111.022 110.213 112.546 109.093 113.845C107.972 115.143 106.586 116.186 105.028 116.903C103.469 117.62 101.775 117.994 100.06 118H106.06C107.775 117.994 109.469 117.62 111.028 116.903C112.586 116.186 113.972 115.143 115.093 113.845C116.213 112.546 117.042 111.022 117.523 109.375C118.004 107.728 118.125 105.998 117.88 104.3Z" fill="#D69212"/>
<path d="M15.52 92.0002H53.848L52.14 104.02C51.8583 106.011 52.0073 108.04 52.577 109.969C53.1466 111.897 54.1236 113.681 55.442 115.2C56.7462 116.705 58.3584 117.913 60.1695 118.741C61.9807 119.569 63.9485 119.998 65.94 120H106.06C108.051 119.998 110.019 119.569 111.831 118.741C113.642 117.913 115.254 116.705 116.558 115.2C117.878 113.68 118.855 111.894 119.425 109.964C119.995 108.033 120.143 106.003 119.86 104.01L110.6 38.8782C110.325 36.9758 109.376 35.2354 107.926 33.9733C106.477 32.7111 104.622 32.011 102.7 32.0002H102C100.409 32.0002 98.8826 32.6323 97.7574 33.7575C96.6322 34.8827 96 36.4089 96 38.0002V60.0002C96 60.5306 95.7893 61.0393 95.4142 61.4144C95.0392 61.7895 94.5304 62.0002 94 62.0002H78C77.4696 62.0002 76.9609 61.7895 76.5858 61.4144C76.2107 61.0393 76 60.5306 76 60.0002V38.0002C76 36.4089 75.3679 34.8827 74.2426 33.7575C73.1174 32.6323 71.5913 32.0002 70 32.0002H69.3C68.0398 32.0092 66.8002 32.3213 65.686 32.9102C60.464 25.5762 54.6 20.4962 48.558 18.0002C52.0204 15.8822 54.563 12.5431 55.684 8.64216C56.0002 7.67058 56.0802 6.63764 55.9174 5.62897C55.7546 4.6203 55.3537 3.66496 54.748 2.84216C54.0896 1.95468 53.2313 1.23487 52.2427 0.74109C51.2541 0.247314 50.163 -0.00652543 49.058 0.000156815H30.942C29.8375 -0.00721904 28.7468 0.245696 27.7582 0.738411C26.7696 1.23113 25.9111 1.94978 25.252 2.83616C24.6463 3.65896 24.2454 4.6143 24.0826 5.62297C23.9198 6.63164 23.9998 7.66458 24.316 8.63616C25.4402 12.556 28.0012 15.9077 31.488 18.0222C13.726 25.4902 0 54.5562 0 73.7802C0.00410958 75.3387 0.0955864 76.8958 0.274 78.4442C0.727223 82.1733 2.52652 85.6087 5.33387 88.1048C8.14123 90.601 11.7634 91.9862 15.52 92.0002ZM70 36.0002C70.5304 36.0002 71.0392 36.2109 71.4142 36.5859C71.7893 36.961 72 37.4697 72 38.0002V60.0002C72 61.5915 72.6322 63.1176 73.7574 64.2428C74.8826 65.368 76.4087 66.0002 78 66.0002H94C95.5913 66.0002 97.1174 65.368 98.2427 64.2428C99.3679 63.1176 100 61.5915 100 60.0002V38.0002C100 37.4697 100.211 36.961 100.586 36.5859C100.961 36.2109 101.47 36.0002 102 36.0002H102.7C103.661 36.0052 104.587 36.3557 105.311 36.9877C106.034 37.6197 106.506 38.4909 106.64 39.4422L115.9 104.58C116.101 106.005 115.995 107.456 115.587 108.836C115.18 110.216 114.482 111.493 113.54 112.58C112.61 113.652 111.462 114.512 110.171 115.102C108.881 115.692 107.479 115.998 106.06 116H65.94C64.5214 115.999 63.1196 115.693 61.8292 115.104C60.5388 114.515 59.3899 113.655 58.46 112.584C57.5177 111.497 56.8195 110.22 56.4124 108.84C56.0053 107.46 55.8988 106.009 56.1 104.584L65.36 39.4442C65.4936 38.4926 65.9652 37.6209 66.6887 36.9885C67.4122 36.3561 68.3391 36.0052 69.3 36.0002H70ZM28.124 7.41616C28.0027 7.04477 27.9722 6.64968 28.0352 6.26408C28.0982 5.87849 28.2528 5.51363 28.486 5.20016C28.77 4.81881 29.1412 4.51092 29.5684 4.30217C29.9956 4.09342 30.4666 3.98987 30.942 4.00016H49.058C49.5334 3.98987 50.0044 4.09342 50.4316 4.30217C50.8588 4.51092 51.23 4.81881 51.514 5.20016C51.7485 5.51454 51.9038 5.88079 51.9669 6.26791C52.0299 6.65503 51.9987 7.05163 51.876 7.42416C51.2374 10.0469 49.6992 12.3625 47.5292 13.9679C45.3592 15.5734 42.6948 16.3668 40 16.2102C37.3041 16.3664 34.6389 15.5718 32.4687 13.9649C30.2985 12.3579 28.761 10.0404 28.124 7.41616ZM35.768 20.7762C33.0748 24.8418 31.512 29.551 31.24 34.4202C31.24 34.9506 31.4507 35.4593 31.8258 35.8344C32.2009 36.2094 32.7096 36.4202 33.24 36.4202C33.7704 36.4202 34.2791 36.2094 34.6542 35.8344C35.0293 35.4593 35.24 34.9506 35.24 34.4202C35.6107 29.8048 37.249 25.3815 39.974 21.6382C41.838 24.4182 44.706 29.4902 44.706 34.4202C44.706 34.9506 44.9167 35.4593 45.2918 35.8344C45.6669 36.2094 46.1756 36.4202 46.706 36.4202C47.2364 36.4202 47.7451 36.2094 48.1202 35.8344C48.4953 35.4593 48.706 34.9506 48.706 34.4202C48.4329 29.5407 46.8644 24.8221 44.162 20.7502C50.55 22.3242 56.974 27.4502 62.686 35.5962C62.0162 36.5796 61.5766 37.7014 61.4 38.8782L54.416 88.0002H33.24C27.934 88.0002 24.282 86.6362 22.386 83.9462C19.2 79.4222 21.654 72.3162 21.71 72.1462C21.8131 71.896 21.8643 71.6275 21.8606 71.3569C21.8569 71.0863 21.7983 70.8193 21.6884 70.5721C21.5786 70.3248 21.4196 70.1024 21.2213 69.9183C21.023 69.7343 20.7893 69.5923 20.5346 69.5012C20.2798 69.41 20.0092 69.3715 19.7391 69.388C19.469 69.4045 19.205 69.4756 18.9632 69.597C18.7214 69.7185 18.5068 69.8877 18.3323 70.0945C18.1578 70.3013 18.027 70.5414 17.948 70.8002C17.814 71.1722 14.706 79.9702 19.102 86.2382C19.5645 86.8807 20.0919 87.4738 20.676 88.0082H15.52C12.7431 87.9974 10.0657 86.9735 7.99024 85.1286C5.91481 83.2836 4.58413 80.7446 4.248 77.9882C4.08731 76.5912 4.00452 75.1863 4 73.7802C4 55.1042 18.418 25.1342 35.768 20.7762Z" fill="#024F2D"/>
</g>
<defs>
<clipPath id="clip0_363_327">
<rect width="120" height="120" fill="white"/>
</clipPath>
</defs>
</svg>
