<svg width="120" height="120" viewBox="0 0 120 120" fill="none" xmlns="http://www.w3.org/2000/svg">
<path d="M3.75 65.625V99.375C3.75 108.696 22.2188 116.25 45 116.25H101.25L95.625 110.625L101.25 105L95.625 99.375L101.25 93.75L95.625 88.125L101.25 82.5H45C22.2188 82.5 3.75 74.9456 3.75 65.625Z" fill="#3D8C58"/>
<path d="M86.25 65.625V82.5H45C67.7812 82.5 86.25 74.9456 86.25 65.625Z" fill="#024F2D"/>
<path d="M33.75 49.3856C37.4847 48.9582 41.2409 48.7459 45 48.75C67.7812 48.75 86.25 56.3044 86.25 65.625V70.6144C103.564 68.6119 116.25 62.1 116.25 54.375V20.625C116.25 29.9456 97.7812 37.5 75 37.5C52.2188 37.5 33.75 29.9456 33.75 20.625V49.3856Z" fill="#D69212"/>
<path d="M101.25 33.6431C98.7919 34.4612 96.2875 35.133 93.75 35.6549V69.4049C96.2876 68.8832 98.792 68.2114 101.25 67.3931V33.6431Z" fill="#B52F28"/>
<path d="M97.5 63.6338V34.7588C96.2906 35.0794 95.0419 35.3794 93.75 35.6494V64.7494C95.0512 64.41 96.3075 64.0369 97.5 63.6338Z" fill="#D23F34"/>
<path d="M45 82.5C67.7817 82.5 86.25 74.9448 86.25 65.625C86.25 56.3052 67.7817 48.75 45 48.75C22.2183 48.75 3.75 56.3052 3.75 65.625C3.75 74.9448 22.2183 82.5 45 82.5Z" fill="#C0DAFC"/>
<path d="M45 71.25C53.2843 71.25 60 68.7316 60 65.625C60 62.5184 53.2843 60 45 60C36.7157 60 30 62.5184 30 65.625C30 68.7316 36.7157 71.25 45 71.25Z" fill="#034327"/>
<path d="M44.9992 71.25C52.802 71.25 59.1273 69.5711 59.1273 67.5C59.1273 65.4289 52.802 63.75 44.9992 63.75C37.1965 63.75 30.8711 65.4289 30.8711 67.5C30.8711 69.5711 37.1965 71.25 44.9992 71.25Z" fill="#F5F5F5"/>
<path d="M75 37.5C97.7817 37.5 116.25 29.9448 116.25 20.625C116.25 11.3052 97.7817 3.75 75 3.75C52.2183 3.75 33.75 11.3052 33.75 20.625C33.75 29.9448 52.2183 37.5 75 37.5Z" fill="#EDA213"/>
<path d="M75 26.25C83.2843 26.25 90 23.7316 90 20.625C90 17.5184 83.2843 15 75 15C66.7157 15 60 17.5184 60 20.625C60 23.7316 66.7157 26.25 75 26.25Z" fill="#034327"/>
<path d="M74.9992 26.25C82.802 26.25 89.1273 24.5711 89.1273 22.5C89.1273 20.4289 82.802 18.75 74.9992 18.75C67.1965 18.75 60.8711 20.4289 60.8711 22.5C60.8711 24.5711 67.1965 26.25 74.9992 26.25Z" fill="#F5F5F5"/>
<path d="M45 73.125C53.3869 73.125 61.875 70.5487 61.875 65.625C61.875 60.7013 53.3869 58.125 45 58.125C36.6131 58.125 28.125 60.7013 28.125 65.625C28.125 70.5487 36.6131 73.125 45 73.125ZM45 61.875C53.5256 61.875 58.125 64.5375 58.125 65.625C58.125 66.7125 53.5256 69.375 45 69.375C36.4744 69.375 31.875 66.7125 31.875 65.625C31.875 64.5375 36.4744 61.875 45 61.875Z" fill="#024F2D"/>
<path d="M75 1.875C50.8125 1.875 31.875 10.1119 31.875 20.625V47.7281C14.3025 50.0887 1.875 57.1087 1.875 65.625V99.375C1.875 109.888 20.8125 118.125 45 118.125H101.25C101.621 118.125 101.983 118.015 102.291 117.809C102.6 117.603 102.84 117.31 102.982 116.967C103.124 116.625 103.161 116.248 103.089 115.884C103.016 115.521 102.838 115.187 102.576 114.924L98.2763 110.625L102.576 106.326C102.927 105.974 103.125 105.497 103.125 105C103.125 104.503 102.927 104.026 102.576 103.674L98.2763 99.375L102.576 95.0756C102.927 94.724 103.125 94.2472 103.125 93.75C103.125 93.2528 102.927 92.776 102.576 92.4244L98.2763 88.125L102.576 83.8256C102.838 83.5634 103.016 83.2293 103.089 82.8657C103.161 82.502 103.124 82.1251 102.982 81.7825C102.84 81.44 102.6 81.1472 102.291 80.9411C101.983 80.7351 101.621 80.6251 101.25 80.625H88.125V72.2531C106.125 69.8363 118.125 62.7544 118.125 54.375V20.625C118.125 10.1119 99.1875 1.875 75 1.875ZM75 5.625C98.5537 5.625 114.375 13.3819 114.375 20.625C114.375 27.8681 98.5537 35.625 75 35.625C51.4463 35.625 35.625 27.8681 35.625 20.625C35.625 13.3819 51.4463 5.625 75 5.625ZM99.375 36.1875V66.0206C98.1806 66.3956 96.9262 66.735 95.625 67.0519V37.1644C96.9175 36.8644 98.1675 36.5387 99.375 36.1875ZM45 50.625C68.5537 50.625 84.375 58.3819 84.375 65.625C84.375 72.8681 68.5537 80.625 45 80.625C21.4462 80.625 5.625 72.8681 5.625 65.625C5.625 58.3819 21.4462 50.625 45 50.625ZM94.2994 89.4506L98.5987 93.75L94.2994 98.0494C93.9479 98.401 93.7504 98.8778 93.7504 99.375C93.7504 99.8722 93.9479 100.349 94.2994 100.701L98.5987 105L94.2994 109.299C93.9479 109.651 93.7504 110.128 93.7504 110.625C93.7504 111.122 93.9479 111.599 94.2994 111.951L96.7237 114.375H45C21.4462 114.375 5.625 106.618 5.625 99.375V73.3931C12.2981 79.9238 27.2288 84.375 45 84.375H96.7237L94.2994 86.7994C93.9479 87.151 93.7504 87.6278 93.7504 88.125C93.7504 88.6222 93.9479 89.099 94.2994 89.4506ZM71.1694 80.625C76.0538 79.2252 80.5649 76.7547 84.375 73.3931V80.625H71.1694ZM88.125 65.625C88.125 55.1119 69.1875 46.875 45 46.875C41.7694 46.875 38.6362 47.0269 35.625 47.3062V28.3931C42.2981 34.9237 57.2288 39.375 75 39.375C80.6565 39.3937 86.3035 38.9118 91.875 37.935V67.875C90.6619 68.1038 89.4037 68.3006 88.125 68.4806V65.625ZM103.125 64.6987V34.9406C107.284 33.5522 111.113 31.3236 114.375 28.3931V54.375C114.375 58.2262 110.079 61.9313 103.125 64.6987Z" fill="#024F2D"/>
<path d="M75 28.125C83.3869 28.125 91.875 25.5487 91.875 20.625C91.875 15.7013 83.3869 13.125 75 13.125C66.6131 13.125 58.125 15.7013 58.125 20.625C58.125 25.5487 66.6131 28.125 75 28.125ZM75 16.875C83.5256 16.875 88.125 19.5356 88.125 20.625C88.125 21.7144 83.5256 24.375 75 24.375C66.4744 24.375 61.875 21.7144 61.875 20.625C61.875 19.5356 66.4744 16.875 75 16.875Z" fill="#024F2D"/>
</svg>
