<svg width="120" height="120" viewBox="0 0 120 120" fill="none" xmlns="http://www.w3.org/2000/svg">
<g clip-path="url(#clip0_363_293)">
<path d="M95.8346 103.38V113.16C95.8346 115.369 94.0437 117.16 91.8345 117.16H50.4345C49.3299 117.16 48.4346 116.265 48.4346 115.16V101.38C48.4346 100.275 49.3301 99.3801 50.4345 99.3801H91.8345C94.0435 99.3799 95.8346 101.171 95.8346 103.38Z" fill="#024F2D"/>
<path d="M89.8346 103.38V113.16C89.828 115.366 88.0409 117.153 85.8345 117.16H50.4345C49.3299 117.16 48.4346 116.265 48.4346 115.16V101.38C48.4346 100.275 49.3301 99.3801 50.4345 99.3801H85.8345C88.0409 99.3865 89.8278 101.174 89.8346 103.38Z" fill="#3D8C58"/>
<path d="M91.893 99.38V88.2L113.559 66.5361C116.646 63.4489 116.645 58.4438 113.558 55.3571C110.471 52.2704 105.466 52.2708 102.379 55.358L95.2652 62.4741C94.6997 63.0387 93.8496 63.207 93.1116 62.9007C92.3735 62.5943 91.8926 61.8734 91.8933 61.0742V16.4321C91.8914 14.7861 91.2056 13.2146 90 12.094C88.7944 10.9735 87.1772 10.4039 85.5354 10.5221C82.3596 10.8607 79.9706 13.5729 80.0353 16.7661V8.76613C80.0747 6.62348 78.9541 4.62637 77.1047 3.54355C75.2552 2.46074 72.9654 2.46074 71.1159 3.54355C69.2665 4.62637 68.1459 6.62348 68.1853 8.76613V16.4321C68.2247 14.2894 67.1041 12.2923 65.2547 11.2095C63.4052 10.1267 61.1154 10.1267 59.2659 11.2095C57.4165 12.2923 56.2959 14.2894 56.3353 16.4321V30.256C56.3353 28.6179 55.6634 36.5459 54.5974 35.48C53.382 34.2598 51.6949 33.6303 49.9774 33.7559C46.808 34.1023 44.4279 36.8121 44.4935 39.9999V68.9539C44.4947 72.1043 44.9665 75.237 45.8934 78.2478L52.3934 99.3797H91.893V99.38Z" fill="#46A767"/>
<path d="M78.3351 103.72L74.0151 105.28L39.415 117.88C38.3767 118.255 37.2309 117.718 36.8549 116.68L32.155 103.74C31.8644 102.958 32.0967 102.077 32.7351 101.54C32.9074 101.379 33.1117 101.256 33.3351 101.18L72.2552 87.0198C73.2496 86.6551 74.3484 86.7013 75.3089 87.1478C76.2693 87.5943 77.0128 88.4045 77.3751 89.3999L80.7152 98.5799C81.4696 100.656 80.4065 102.952 78.3351 103.72Z" fill="#024F2D"/>
<path d="M74.0151 105.28L39.415 117.88C38.3767 118.255 37.2309 117.718 36.8549 116.68L32.155 103.74C31.8644 102.958 32.0967 102.077 32.7351 101.54L67.1151 89.0199C69.1914 88.2652 71.4874 89.3283 72.2552 91.4L75.5953 100.6C76.2403 102.337 75.5814 104.289 74.0151 105.28Z" fill="#3D8C58"/>
<path d="M72.2947 87L68.4706 76.496L81.4187 48.7261C82.6526 46.1609 82.4119 43.1304 80.7884 40.7923C79.1652 38.4542 76.4098 37.1693 73.5753 37.4288C70.7408 37.6882 68.2646 39.4519 67.0927 42.0459L62.8348 51.162C62.4964 51.8852 61.756 52.3336 60.9584 52.2987C60.1609 52.2638 59.4627 51.7521 59.1889 51.0021L43.9226 9.04993C43.3578 7.50282 42.1751 6.26016 40.658 5.61962C39.1409 4.97907 37.4255 4.99782 35.9227 5.67188C33.0601 7.07931 31.7473 10.4409 32.8988 13.4159L42.9209 40.9399L32.7887 13.102L30.1667 5.90204C29.4671 3.88102 27.7323 2.39415 25.628 2.01165C23.5238 1.62915 21.3767 2.41079 20.0108 4.05634C18.6446 5.70188 18.2717 7.9561 19.0348 9.95415L21.6549 17.1541L31.7848 45L21.6528 17.156C20.9609 15.1263 19.2259 13.6289 17.1169 13.2413C15.0078 12.8536 12.8539 13.6359 11.4851 15.2869C10.1164 16.9378 9.74702 19.1995 10.5188 21.2002L15.2469 34.2002C14.6816 32.6536 13.4989 31.4114 11.9818 30.7706C10.4647 30.1299 8.74976 30.1486 7.24695 30.8222C4.38265 32.2282 3.06874 35.5908 4.22093 38.5662L17.3469 74.6161C18.4234 77.5756 19.9362 80.3576 21.8349 82.8701L35.173 100.506L72.2947 87Z" fill="#46A767"/>
<path d="M48.1751 95.78L35.1752 100.5L21.8353 82.88C19.9338 80.3684 18.4233 77.5836 17.3552 74.6199L15.6152 69.8398C19.77 68.2885 24.3012 68.0511 28.5952 69.1599C41.3951 72.48 44.1551 84.9 48.1751 95.78Z" fill="#D69212"/>
<path d="M59.515 51.5598L58.835 53.0399C58.4936 53.7576 57.756 54.2012 56.9619 54.1663C56.1681 54.1314 55.472 53.6247 55.195 52.8801L39.9151 10.9199C39.3836 9.4417 38.2813 8.23865 36.8551 7.57982C35.9884 7.1699 35.0324 6.98404 34.0752 7.03982C34.5847 6.45201 35.2206 5.98724 35.9352 5.67974C37.4321 4.99959 39.145 4.97568 40.6604 5.61388C42.1757 6.25185 43.3557 7.49381 43.9152 9.03974L59.195 50.9999C59.2651 51.2052 59.3736 51.3953 59.515 51.5598Z" fill="#3D8C58"/>
<path d="M81.4145 48.7198L68.4745 76.4998L72.2945 86.9998L68.1545 88.4998L64.4746 78.3598L77.4147 50.5997C79.247 46.639 77.5415 41.9419 73.5946 40.0798C72.186 39.4189 70.6115 39.196 69.0747 39.4397C71.8846 36.991 76.0244 36.8417 79.0033 39.0819C81.982 41.3222 82.9874 45.3408 81.4145 48.7198Z" fill="#3D8C58"/>
<path d="M91.9147 61.18L90.6146 62.4801C90.0477 63.0442 89.1971 63.2123 88.4582 62.9062C87.7192 62.6001 87.2366 61.8799 87.2347 61.0799V16.4399C87.2359 14.0798 85.8379 11.9437 83.6748 10.9999C84.2572 10.7193 84.8893 10.5562 85.5348 10.5199C87.1787 10.401 88.798 10.9713 90.0046 12.0944C91.2111 13.2173 91.8957 14.7916 91.8948 16.4399V61.0799C91.8896 61.1146 91.8967 61.15 91.9147 61.18Z" fill="#3D8C58"/>
<path d="M115.876 60.9401C115.871 63.0396 115.037 65.0527 113.555 66.54L91.8954 88.2V99.3799H87.2354V88.2L108.895 66.54C110.377 65.0524 111.211 63.0396 111.215 60.9401C111.214 58.8457 110.38 56.8378 108.895 55.3601C107.984 54.4474 106.865 53.7682 105.635 53.3801C108.035 52.6486 110.638 53.0956 112.656 54.5855C114.674 56.0749 115.868 58.4318 115.876 60.9401Z" fill="#3D8C58"/>
<path d="M15.467 75.3C16.61 78.4472 18.2171 81.4059 20.2349 84.078L31.9848 99.612C30.3331 100.591 29.6103 102.606 30.2628 104.412L34.9707 117.354C35.3317 118.353 36.0751 119.167 37.037 119.617C37.9988 120.067 39.1004 120.117 40.0986 119.754L46.1406 117.554C46.7666 119.039 48.223 120.003 49.8345 120H91.9346C95.2485 120 97.9346 117.314 97.9346 114V103.96C97.925 101.392 96.2738 99.1177 93.8347 98.3137V88.9641L115.339 68.044C119.178 64.1156 119.142 57.8292 115.257 53.9456C111.372 50.062 105.086 50.0273 101.159 53.868L93.9348 61.1002V15.78C93.9343 13.5544 93.0067 11.4293 91.3749 9.9157C89.743 8.40211 87.5544 7.63688 85.3349 7.80398C84.1196 7.89844 82.9449 8.28469 81.9109 8.92992V8.01984C81.9109 3.59062 78.3203 0 73.891 0C69.4618 0 65.8709 3.59063 65.8709 8.02008V8.89008C64.6599 8.17125 63.2792 7.78805 61.8709 7.78008C57.4494 7.78008 53.8618 11.3585 53.8508 15.78V30.484L45.8028 8.36391C45.0472 6.29672 43.4668 4.63641 41.4392 3.77977C39.4119 2.92313 37.1197 2.94703 35.1106 3.84586C34.0267 4.34133 33.0765 5.08805 32.3387 6.02391L32.0448 5.22398C31.3234 3.25055 29.851 1.6425 27.9488 0.75C25.0445 -0.608672 21.6074 -0.0825001 19.2425 2.08266C16.8777 4.24781 16.051 7.62539 17.1491 10.638L17.435 11.4C16.0775 11.1502 14.6783 11.2641 13.3789 11.73C9.26447 13.2279 7.14127 17.7759 8.63494 21.892L11.0349 28.4501C9.4815 28.167 7.87884 28.357 6.43486 28.9962C2.60564 30.8243 0.825563 35.2891 2.34689 39.2501L15.467 75.3ZM19.235 73.932L18.215 71.1319C21.452 70.2787 24.8532 70.2649 28.097 71.0918C38.3331 73.7477 41.511 82.8398 44.8749 92.4677C45.1229 93.1777 45.377 93.8677 45.627 94.5818L35.8911 98.1258L23.435 81.6659C21.6577 79.3113 20.2421 76.7046 19.235 73.932ZM38.739 116L34.0351 103.052L35.8091 102.406L72.9371 88.8919C73.1556 88.8122 73.3864 88.7714 73.6192 88.7719C74.461 88.7707 75.2134 89.2969 75.5012 90.0879L78.8352 99.2719C79.0166 99.7711 78.992 100.322 78.767 100.803C78.542 101.284 78.1346 101.655 77.6352 101.836L38.739 116ZM93.939 114C93.939 115.105 93.0437 116 91.9391 116H50.4231L66.9631 109.98H85.9351V111.98C85.9351 113.085 86.8306 113.98 87.935 113.98C89.0394 113.98 89.9349 113.085 89.9349 111.98V109.98C89.9272 107.766 88.1286 105.977 85.9149 105.98H77.953L79.011 105.596C80.6844 104.98 81.9936 103.646 82.5788 101.962H91.9349C93.0395 101.962 93.9348 102.858 93.9348 103.962L93.939 114ZM85.6351 11.8001C86.7435 11.7166 87.8366 12.0982 88.6522 12.8534C89.4678 13.6083 89.9326 14.6686 89.9352 15.7802V61.1002C89.9307 62.722 90.906 64.1859 92.4043 64.8068C93.9027 65.4274 95.6274 65.0822 96.7712 63.9321L103.985 56.7C106.352 54.4645 110.067 54.514 112.374 56.8113C114.682 59.1087 114.747 62.8233 112.521 65.2001L90.4351 86.6862V86.6981C90.2361 86.899 90.0814 87.1397 89.9811 87.4041C89.8921 87.6277 89.8447 87.8655 89.8412 88.106V88.1201V97.9601H82.6112C82.6112 97.942 82.6112 97.9221 82.5971 97.9041L79.2531 88.718C78.381 86.3609 76.1324 84.7971 73.6192 84.7999L70.6332 76.5998L83.2332 49.572C84.853 46.1433 84.3371 42.0865 81.9111 39.172V16.1201C81.8556 13.9362 83.4669 12.067 85.6351 11.8001ZM69.875 8.02008C69.875 5.79984 71.6748 4.00008 73.895 4.00008C76.1153 4.00008 77.915 5.79984 77.915 8.02008V36.2201C75.3095 35.1799 72.3835 35.3037 69.875 36.5602V8.02008ZM57.8551 15.78C57.8586 14.1595 58.8371 12.7005 60.335 12.0823C61.8329 11.464 63.5556 11.8078 64.7012 12.9539C65.4547 13.7009 65.8777 14.7188 65.8752 15.78V40.2C65.6544 40.5204 65.454 40.8544 65.2752 41.2001L61.0752 50.3241L57.8551 41.4762V15.78ZM8.06892 32.6461C9.06385 32.202 10.1987 32.19 11.2028 32.6135C12.2068 33.0368 12.9903 33.8576 13.367 34.8802L20.7969 55.2982C20.8848 55.5262 21.0137 55.7362 21.1768 55.9181C21.223 55.9666 21.2717 56.0128 21.3228 56.0562C21.4478 56.1745 21.5877 56.276 21.7388 56.3583C21.8 56.3916 21.8626 56.4216 21.9268 56.4483C22.0972 56.5191 22.2772 56.5643 22.4607 56.5823C22.5128 56.5823 22.5608 56.6044 22.6147 56.6063C22.6346 56.6063 22.6548 56.6063 22.6768 56.6063C23.3295 56.606 23.9413 56.2873 24.3153 55.7522C24.6894 55.2171 24.7789 54.5334 24.5549 53.9201L17.1268 33.5161L12.3969 20.524C11.6588 18.4873 12.7081 16.2375 14.743 15.4941C16.7795 14.7581 19.0281 15.8055 19.775 17.838L29.907 45.6759C29.9935 45.9042 30.1217 46.1145 30.2851 46.2959C30.3331 46.3498 30.387 46.392 30.4391 46.4419C30.56 46.5546 30.6943 46.6519 30.8392 46.7318C30.9034 46.7695 30.9704 46.803 31.0391 46.8319C31.1987 46.8959 31.3663 46.938 31.5371 46.958C31.6011 46.958 31.6592 46.984 31.7232 46.9859C31.7413 46.9859 31.7593 46.9859 31.7792 46.9859C32.012 46.9863 32.2431 46.9451 32.4613 46.8638C32.9603 46.6833 33.3669 46.3118 33.5921 45.8313C33.8171 45.3509 33.842 44.8005 33.6613 44.3018L20.9113 9.26976C20.1732 7.23305 21.2225 4.98328 23.2574 4.23984C24.2347 3.87984 25.3159 3.92813 26.2574 4.37391C27.1991 4.81453 27.9294 5.60859 28.2894 6.58383L41.0354 41.6238C41.3614 42.5168 42.271 43.0568 43.2111 42.9157C44.1512 42.7746 44.862 41.9911 44.9115 41.0419C44.9258 40.7745 44.8848 40.5068 44.7915 40.2558L42.5914 34.2237L34.7835 12.7317C34.0009 10.7426 34.847 8.48367 36.7435 7.49766C37.7392 7.05211 38.8752 7.03992 39.8802 7.46391C40.8852 7.88789 41.6694 8.70984 42.0453 9.73383L57.3153 51.6858C57.8614 53.1987 59.2684 54.2309 60.8752 54.2979C62.4901 54.3945 63.995 53.4785 64.6513 51.9998L68.9033 42.8838C69.7159 41.111 71.3551 39.8571 73.2788 39.5365C75.2024 39.2159 77.1596 39.8705 78.5033 41.2837C80.1999 43.0369 80.6399 45.6544 79.6093 47.8657L66.6573 75.6457C66.6327 75.7221 66.6142 75.8004 66.6013 75.8796C66.5354 76.0462 66.493 76.2213 66.4752 76.3997C66.4625 76.6664 66.5033 76.9329 66.5952 77.1837L69.7311 85.7998L49.377 93.1997C49.1331 92.5118 48.883 91.8277 48.6411 91.1358C45.241 81.4137 41.3952 70.3978 29.0912 67.2077C25.0627 66.1779 20.8346 66.2236 16.8292 67.3397L6.10486 37.882C5.32299 35.8913 6.17049 33.6314 8.06892 32.6461Z" fill="#024F2D"/>
<path d="M73.8353 96.9418C73.0797 94.8836 70.8039 93.8221 68.7414 94.5658L65.1754 95.8637C65.1433 95.8757 65.1114 95.8858 65.0793 95.8998L40.9033 104.7C40.2184 104.934 39.7138 105.52 39.5835 106.232C39.4532 106.944 39.7178 107.671 40.2754 108.133C40.8327 108.594 41.5961 108.718 42.2713 108.458L66.5633 99.5999C66.6203 99.5823 66.6765 99.5615 66.7314 99.5378L70.0813 98.3158L70.7573 100.172C71.0024 100.843 71.5869 101.333 72.2908 101.456C72.9946 101.58 73.7108 101.318 74.1698 100.77C74.6287 100.222 74.7601 99.4712 74.5152 98.8L73.8353 96.9418Z" fill="#024F2D"/>
</g>
<defs>
<clipPath id="clip0_363_293">
<rect width="120" height="120" fill="white"/>
</clipPath>
</defs>
</svg>
