<svg width="120" height="120" viewBox="0 0 120 120" fill="none" xmlns="http://www.w3.org/2000/svg">
<g clip-path="url(#clip0_363_313)">
<path d="M10 98H6C3.79086 98 2 99.7909 2 102V114C2 116.209 3.79086 118 6 118H10C12.2091 118 14 116.209 14 114V102C14 99.7909 12.2091 98 10 98Z" fill="#D69212"/>
<path d="M66 98H62C59.7909 98 58 99.7909 58 102V114C58 116.209 59.7909 118 62 118H66C68.2091 118 70 116.209 70 114V102C70 99.7909 68.2091 98 66 98Z" fill="#D69212"/>
<path d="M64 58V98H62C60.9401 98.0032 59.9245 98.4256 59.1751 99.1751C58.4256 99.9245 58.0032 100.94 58 102V110H14V102C13.9968 100.94 13.5744 99.9245 12.8249 99.1751C12.0755 98.4256 11.0599 98.0032 10 98H8V58C7.99843 55.1105 8.5664 52.249 9.67144 49.5791C10.7765 46.9092 12.3969 44.4833 14.4401 42.4401C16.4833 40.3969 18.9092 38.7765 21.5791 37.6714C24.249 36.5664 27.1105 35.9984 30 36H42C44.8895 35.9984 47.751 36.5664 50.4209 37.6714C53.0908 38.7765 55.5167 40.3969 57.5599 42.4401C59.6031 44.4833 61.2235 46.9092 62.3286 49.5791C63.4336 52.249 64.0016 55.1105 64 58Z" fill="#3D8C58"/>
<path d="M42 36H36C38.8895 35.9984 41.751 36.5664 44.4209 37.6714C47.0908 38.7765 49.5167 40.3969 51.5599 42.4401C53.6031 44.4833 55.2235 46.9092 56.3286 49.5791C57.4336 52.249 58.0016 55.1105 58 58V98H56C54.9401 98.0032 53.9245 98.4256 53.1751 99.1751C52.4256 99.9245 52.0032 100.94 52 102V110H58V102C58.0032 100.94 58.4256 99.9245 59.1751 99.1751C59.9245 98.4256 60.9401 98.0032 62 98H64V58C64.0016 55.1105 63.4336 52.249 62.3286 49.5791C61.2235 46.9092 59.6031 44.4833 57.5599 42.4401C55.5167 40.3969 53.0908 38.7765 50.4209 37.6714C47.751 36.5664 44.8895 35.9984 42 36Z" fill="#3D8C58"/>
<path d="M32 28H40C40.5304 28 41.0391 28.2107 41.4142 28.5858C41.7893 28.9609 42 29.4696 42 30V36H30V30C30 29.4696 30.2107 28.9609 30.5858 28.5858C30.9609 28.2107 31.4696 28 32 28Z" fill="#D69212"/>
<path d="M102 28V102H94V28C94 23.2261 92.1036 18.6477 88.7279 15.2721C85.3523 11.8964 80.7739 10 76 10H58C53.2261 10 48.6477 11.8964 45.2721 15.2721C41.8964 18.6477 40 23.2261 40 28H32C32 21.1044 34.7393 14.4912 39.6152 9.61522C44.4912 4.73928 51.1044 2 58 2H76C79.4144 2 82.7953 2.67251 85.9498 3.97913C89.1042 5.28575 91.9705 7.2009 94.3848 9.61522C96.7991 12.0295 98.7142 14.8958 100.021 18.0502C101.327 21.2047 102 24.5856 102 28Z" fill="#3D8C58"/>
<path d="M76 2H70C73.4144 2 76.7953 2.67251 79.9498 3.97913C83.1042 5.28575 85.9704 7.2009 88.3848 9.61522C90.7991 12.0295 92.7142 14.8958 94.0209 18.0502C95.3275 21.2047 96 24.5856 96 28V102H102V28C102 24.5856 101.327 21.2047 100.021 18.0502C98.7142 14.8958 96.7991 12.0295 94.3848 9.61522C91.9704 7.2009 89.1042 5.28575 85.9498 3.97913C82.7953 2.67251 79.4144 2 76 2Z" fill="#024F2D"/>
<path d="M84 102H112C113.591 102 115.117 102.632 116.243 103.757C117.368 104.883 118 106.409 118 108V116C118 116.53 117.789 117.039 117.414 117.414C117.039 117.789 116.53 118 116 118H80C79.4696 118 78.9609 117.789 78.5858 117.414C78.2107 117.039 78 116.53 78 116V108C78 106.409 78.6321 104.883 79.7574 103.757C80.8826 102.632 82.4087 102 84 102Z" fill="#3D8C58"/>
<path d="M112 102H106C107.591 102 109.117 102.632 110.243 103.757C111.368 104.883 112 106.409 112 108V116C112 116.53 111.789 117.039 111.414 117.414C111.039 117.789 110.53 118 110 118H116C116.53 118 117.039 117.789 117.414 117.414C117.789 117.039 118 116.53 118 116V108C118 106.409 117.368 104.883 116.243 103.757C115.117 102.632 113.591 102 112 102Z" fill="#3D8C58"/>
<path d="M51.8592 71.9999H45.9992V91.9999C45.9992 93.0608 45.5778 94.0782 44.8277 94.8284C44.0775 95.5785 43.0601 95.9999 41.9992 95.9999H29.9992C28.9384 95.9999 27.921 95.5785 27.1708 94.8284C26.4207 94.0782 25.9992 93.0608 25.9992 91.9999V71.9999H20.1392C19.714 72.0122 19.2953 71.8929 18.9404 71.6583C18.5855 71.4237 18.3117 71.0853 18.1564 70.6892C18.001 70.2932 17.9717 69.8588 18.0724 69.4455C18.1732 69.0322 18.3991 68.6601 18.7192 68.3799L34.5592 54.5399C34.9591 54.1937 35.4703 54.0032 35.9992 54.0032C36.5282 54.0032 37.0394 54.1937 37.4392 54.5399L53.2792 68.3799C53.5994 68.6601 53.8253 69.0322 53.926 69.4455C54.0268 69.8588 53.9975 70.2932 53.8421 70.6892C53.6868 71.0853 53.413 71.4237 53.0581 71.6583C52.7032 71.8929 52.2845 72.0122 51.8592 71.9999Z" fill="#D69212"/>
<path d="M112 100H104V28C103.992 20.5764 101.04 13.4591 95.7902 8.20978C90.5409 2.96048 83.4236 0.00794113 76 0L58 0C50.8372 0.00937502 43.9503 2.76347 38.7562 7.69571C33.562 12.6279 30.4556 19.3632 30.076 26.516C29.4497 26.8577 28.9267 27.3612 28.5615 27.9741C28.1963 28.5869 28.0024 29.2866 28 30V34.102C22.0067 34.6073 16.4211 37.3429 12.3475 41.768C8.27388 46.193 6.00878 51.9854 6 58V96C4.4087 96 2.88258 96.6321 1.75736 97.7574C0.632141 98.8826 0 100.409 0 102L0 114C0 115.591 0.632141 117.117 1.75736 118.243C2.88258 119.368 4.4087 120 6 120H10C11.5913 120 13.1174 119.368 14.2426 118.243C15.3679 117.117 16 115.591 16 114V112H56V114C56 115.591 56.6321 117.117 57.7574 118.243C58.8826 119.368 60.4087 120 62 120H66C67.5913 120 69.1174 119.368 70.2426 118.243C71.3679 117.117 72 115.591 72 114V102C72 100.409 71.3679 98.8826 70.2426 97.7574C69.1174 96.6321 67.5913 96 66 96V58C65.9912 51.9854 63.7261 46.193 59.6525 41.768C55.5789 37.3429 49.9933 34.6073 44 34.102V30C43.9963 29.3157 43.8171 28.6438 43.4796 28.0485C43.142 27.4532 42.6574 26.9545 42.072 26.6C42.425 22.6173 44.2552 18.9107 47.2027 16.209C50.1501 13.5072 54.0017 12.0059 58 12H76C80.242 12.0048 84.3089 13.692 87.3084 16.6916C90.308 19.6911 91.9952 23.758 92 28V100H84C81.8783 100 79.8434 100.843 78.3431 102.343C76.8429 103.843 76 105.878 76 108V116C76 117.061 76.4214 118.078 77.1716 118.828C77.9217 119.579 78.9391 120 80 120H116C117.061 120 118.078 119.579 118.828 118.828C119.579 118.078 120 117.061 120 116V108C120 105.878 119.157 103.843 117.657 102.343C116.157 100.843 114.122 100 112 100ZM32 30H40V34H32V30ZM12 114C12 114.53 11.7893 115.039 11.4142 115.414C11.0391 115.789 10.5304 116 10 116H6C5.46957 116 4.96086 115.789 4.58579 115.414C4.21071 115.039 4 114.53 4 114V102C4 101.47 4.21071 100.961 4.58579 100.586C4.96086 100.211 5.46957 100 6 100H10C10.5304 100 11.0391 100.211 11.4142 100.586C11.7893 100.961 12 101.47 12 102V114ZM68 102V114C68 114.53 67.7893 115.039 67.4142 115.414C67.0391 115.789 66.5304 116 66 116H62C61.4696 116 60.9609 115.789 60.5858 115.414C60.2107 115.039 60 114.53 60 114V102C60 101.47 60.2107 100.961 60.5858 100.586C60.9609 100.211 61.4696 100 62 100H66C66.5304 100 67.0391 100.211 67.4142 100.586C67.7893 100.961 68 101.47 68 102ZM62 58V96C60.4087 96 58.8826 96.6321 57.7574 97.7574C56.6321 98.8826 56 100.409 56 102V108H16V102C16 100.409 15.3679 98.8826 14.2426 97.7574C13.1174 96.6321 11.5913 96 10 96V58C10.0058 52.6975 12.1148 47.6138 15.8643 43.8643C19.6138 40.1148 24.6975 38.0058 30 38H42C47.3025 38.0058 52.3862 40.1148 56.1357 43.8643C59.8852 47.6138 61.9942 52.6975 62 58ZM76 8H58C53.0437 8.0062 48.2657 9.84996 44.59 13.1747C40.9142 16.4995 38.6019 21.0691 38.1 26H34.084C34.5927 20.0048 37.3318 14.4185 41.76 10.3451C46.1882 6.27167 51.9832 4.0075 58 4H76C82.3631 4.00688 88.4636 6.53766 92.963 11.037C97.4623 15.5364 99.9931 21.6369 100 28V100H96V28C95.9942 22.6975 93.8852 17.6138 90.1357 13.8643C86.3862 10.1148 81.3025 8.00582 76 8ZM116 116H80V108C80 106.939 80.4214 105.922 81.1716 105.172C81.9217 104.421 82.9391 104 84 104H112C113.061 104 114.078 104.421 114.828 105.172C115.579 105.922 116 106.939 116 108V116Z" fill="#024F2D"/>
<path d="M33.2444 53.034L17.4144 66.868C16.7862 67.4016 16.3381 68.1163 16.1315 68.9143C15.925 69.7123 15.97 70.5546 16.2604 71.326C16.5524 72.1174 17.082 72.7992 17.7766 73.2779C18.4712 73.7566 19.2969 74.0088 20.1404 74H24.0004V92C24.0004 93.5913 24.6325 95.1174 25.7578 96.2426C26.883 97.3679 28.4091 98 30.0004 98H42.0004C43.5917 98 45.1178 97.3679 46.243 96.2426C47.3683 95.1174 48.0004 93.5913 48.0004 92V74H51.8604C52.7039 74.0088 53.5296 73.7566 54.2242 73.2779C54.9188 72.7992 55.4484 72.1174 55.7404 71.326C56.0302 70.5566 56.0758 69.7166 55.8711 68.9203C55.6664 68.1241 55.2213 67.4103 54.5964 66.876L38.7584 53.036C37.9942 52.3705 37.0151 52.0038 36.0018 52.0034C34.9884 52.0031 34.0091 52.3691 33.2444 53.034ZM51.8604 70H46.0004C45.47 70 44.9613 70.2107 44.5862 70.5858C44.2111 70.9608 44.0004 71.4696 44.0004 72V92C44.0004 92.5304 43.7897 93.0391 43.4146 93.4142C43.0395 93.7893 42.5308 94 42.0004 94H30.0004C29.47 94 28.9613 93.7893 28.5862 93.4142C28.2111 93.0391 28.0004 92.5304 28.0004 92V72C28.0004 71.4696 27.7897 70.9608 27.4146 70.5858C27.0395 70.2107 26.5308 70 26.0004 70L20.0364 69.886L35.8804 56.042C35.9148 56.0153 35.9569 56.0006 36.0004 56C36.0455 56.0003 36.0892 56.0158 36.1244 56.044L51.9664 69.972C51.9664 69.972 51.9404 70 51.8604 70Z" fill="#024F2D"/>
</g>
<defs>
<clipPath id="clip0_363_313">
<rect width="120" height="120" fill="white"/>
</clipPath>
</defs>
</svg>
