<svg width="64" height="64" viewBox="0 0 64 64" fill="none" xmlns="http://www.w3.org/2000/svg">
<path fill-rule="evenodd" clip-rule="evenodd" d="M60.9398 60.4872C61.6482 61.4964 61.4012 62.8895 60.392 63.595C59.3829 64.3034 57.9898 64.0564 57.2843 63.0472L52.465 56.165C51.7565 55.1559 52.0036 53.7628 53.0127 53.0543C54.0218 52.3488 55.4149 52.5929 56.1204 53.605L60.9398 60.4872Z" fill="#D69212"/>
<path fill-rule="evenodd" clip-rule="evenodd" d="M62.1753 47.7498C63.4285 48.4732 64.137 49.8663 63.9792 51.304C63.8214 52.7388 62.8302 53.9474 61.452 54.382L55.299 56.3228L51.3727 61.4399C50.4946 62.5859 49.0181 63.1039 47.616 62.7615C46.211 62.4162 45.1424 61.2761 44.8923 59.8533L41.9215 42.9751C41.6745 41.579 42.2609 40.168 43.4188 39.3554C44.5798 38.5457 46.1068 38.4773 47.3333 39.1857L62.1753 47.7498ZM46.6248 43.9306L48.9675 57.2426L52.1853 53.0454C52.4652 52.6823 52.8492 52.4144 53.2867 52.2745L58.3293 50.6849L46.6248 43.9306Z" fill="#D69212"/>
<path d="M11.9069 12.6512C13.1399 12.6512 14.1394 11.6516 14.1394 10.4186C14.1394 9.18559 13.1399 8.18604 11.9069 8.18604C10.6739 8.18604 9.67432 9.18559 9.67432 10.4186C9.67432 11.6516 10.6739 12.6512 11.9069 12.6512Z" fill="#D69212"/>
<path d="M19.3488 12.6512C20.5818 12.6512 21.5813 11.6516 21.5813 10.4186C21.5813 9.18559 20.5818 8.18604 19.3488 8.18604C18.1158 8.18604 17.1162 9.18559 17.1162 10.4186C17.1162 11.6516 18.1158 12.6512 19.3488 12.6512Z" fill="#D69212"/>
<path d="M26.7907 12.6512C28.0237 12.6512 29.0232 11.6516 29.0232 10.4186C29.0232 9.18559 28.0237 8.18604 26.7907 8.18604C25.5577 8.18604 24.5581 9.18559 24.5581 10.4186C24.5581 11.6516 25.5577 12.6512 26.7907 12.6512Z" fill="#D69212"/>
<path fill-rule="evenodd" clip-rule="evenodd" d="M64 37.9535C64 39.1859 62.9998 40.186 61.7674 40.186C60.5351 40.186 59.5349 39.1859 59.5349 37.9535V9.67442C59.5349 8.29321 58.9872 6.96856 58.0078 5.99219C57.0314 5.01284 55.7068 4.46512 54.3256 4.46512H9.67442C6.79591 4.46512 4.46512 6.79591 4.46512 9.67442V54.3256C4.46512 55.7068 5.01284 57.0314 5.99219 58.0078C6.96856 58.9872 8.29321 59.5349 9.67442 59.5349H37.9535C39.1859 59.5349 40.186 60.5351 40.186 61.7674C40.186 62.9998 39.1859 64 37.9535 64H9.67442C7.10847 64 4.6467 62.982 2.83386 61.1661C1.01805 59.3533 0 56.8915 0 54.3256V9.67442C0 4.33116 4.33116 0 9.67442 0H54.3256C56.8915 0 59.3533 1.01805 61.1661 2.83386C62.982 4.6467 64 7.10847 64 9.67442V37.9535Z" fill="#D69212"/>
<path fill-rule="evenodd" clip-rule="evenodd" d="M61.7674 16.3721C62.9998 16.3721 64 17.3723 64 18.6046C64 19.837 62.9998 20.8372 61.7674 20.8372H2.23256C1.00019 20.8372 0 19.837 0 18.6046C0 17.3723 1.00019 16.3721 2.23256 16.3721H61.7674Z" fill="#D69212"/>
</svg>
