<svg width="69" height="65" viewBox="0 0 69 65" fill="none" xmlns="http://www.w3.org/2000/svg">
<path d="M68.5 38.4535C68.5 34.8583 66.3745 31.7604 63.3261 30.3458V29.5233C63.3261 13.5196 50.3949 0.5 34.5 0.5C18.6051 0.5 5.67391 13.5196 5.67391 29.5233V30.3458C2.62545 31.7604 0.5 34.8583 0.5 38.4535C0.5 43.3775 4.4786 47.3837 9.36957 47.3837H12.3261C13.1425 47.3837 13.8043 46.7173 13.8043 45.8953V31.0116C13.8043 30.1897 13.1425 29.5233 12.3261 29.5233H9.36957C9.12009 29.5233 8.87477 29.5405 8.63043 29.561V29.5233C8.63043 15.1613 20.2356 3.47674 34.5 3.47674C48.7644 3.47674 60.3696 15.1613 60.3696 29.5233V29.561C60.1252 29.5405 59.8799 29.5233 59.6304 29.5233H56.6739C55.8575 29.5233 55.1957 30.1897 55.1957 31.0116V45.8953C55.1957 46.7173 55.8575 47.3837 56.6739 47.3837H59.6304C59.8799 47.3837 60.1252 47.3665 60.3696 47.346V49.6163C60.3696 54.5403 56.391 58.5465 51.5 58.5465H40.413C40.413 56.9052 39.0871 55.5698 37.4565 55.5698H30.0652C28.4347 55.5698 27.1087 56.9052 27.1087 58.5465V61.5233C27.1087 63.1646 28.4347 64.5 30.0652 64.5H37.4565C39.0871 64.5 40.413 63.1646 40.413 61.5233H51.5C58.0208 61.5233 63.3261 56.1817 63.3261 49.6163V46.5611C66.3745 45.1466 68.5 42.0487 68.5 38.4535ZM10.8478 32.5V44.407H9.36957C6.10916 44.407 3.45652 41.7362 3.45652 38.4535C3.45652 35.1708 6.10916 32.5 9.36957 32.5H10.8478ZM30.0652 61.5233V58.5465H37.4565L37.4576 60.0242C37.4576 60.0278 37.4565 60.0312 37.4565 60.0349C37.4565 60.0386 37.4576 60.0421 37.4576 60.0458L37.4587 61.5233H30.0652ZM59.6304 44.407H58.1522V32.5H59.6304C62.8908 32.5 65.5435 35.1708 65.5435 38.4535C65.5435 41.7362 62.8908 44.407 59.6304 44.407ZM34.5 48.1279C43.4663 48.1279 50.7609 40.7834 50.7609 31.7558C50.7609 22.7282 43.4663 15.3837 34.5 15.3837C25.5337 15.3837 18.2391 22.7282 18.2391 31.7558C18.2391 34.6766 19.0165 37.5312 20.4933 40.0505L19.005 47.847C18.9018 48.3884 19.1039 48.943 19.5312 49.2885C19.7982 49.5044 20.1259 49.6163 20.4565 49.6163C20.655 49.6163 20.8542 49.5763 21.0426 49.4945L27.6796 46.6101C29.8314 47.6177 32.1224 48.1279 34.5 48.1279ZM22.4357 45.6468L23.5047 40.0447C23.5762 39.6701 23.5025 39.2823 23.2983 38.9611C21.9225 36.7991 21.1957 34.3074 21.1957 31.7558C21.1957 24.3695 27.1643 18.3605 34.5 18.3605C41.8357 18.3605 47.8043 24.3695 47.8043 31.7558C47.8043 39.1421 41.8357 45.1512 34.5 45.1512C32.3627 45.1512 30.3099 44.6461 28.3986 43.6501C28.0052 43.4448 27.5403 43.4277 27.1332 43.6054L22.4357 45.6468ZM34.5 36.2209H27.1087C26.2923 36.2209 25.6304 35.5545 25.6304 34.7326C25.6304 33.9106 26.2923 33.2442 27.1087 33.2442H34.5C35.3164 33.2442 35.9783 33.9106 35.9783 34.7326C35.9783 35.5545 35.3164 36.2209 34.5 36.2209ZM25.6304 28.7791C25.6304 27.9571 26.2923 27.2907 27.1087 27.2907H41.8913C42.7077 27.2907 43.3696 27.9571 43.3696 28.7791C43.3696 29.601 42.7077 30.2674 41.8913 30.2674H27.1087C26.2923 30.2674 25.6304 29.601 25.6304 28.7791Z" fill="#D69212" stroke="#D69212"/>
</svg>
