<svg width="64" height="64" viewBox="0 0 64 64" fill="none" xmlns="http://www.w3.org/2000/svg">
<g clip-path="url(#clip0_350_378)">
<path d="M60.1125 55.8625C59.7 54.325 59.0375 52.9 58.175 51.6375C58.9875 51.1625 59.725 50.575 60.3625 49.85C61.95 48.0125 62.675 45.675 62.4125 43.2375C62.2 41.45 60.0125 40.7 58.7625 42L56.6875 43.875C56.0125 44.4375 54.9125 44.5 54.2 43.8375C53.4875 43.2125 53.3125 42.175 53.775 41.4125L55.375 39.05C56.5 37.6125 55.4 35.55 53.6375 35.625C51.2375 35.7 48.9625 36.775 47.3875 38.5875C45.7625 40.4625 45.05 42.9125 45.3625 45.3125L42.65 45.025C42.6 45.025 42.5625 45.0125 42.5125 45.0125C40.9625 45.0125 39.7 43.75 39.7 42.2V38.65C43.0375 35.6625 46.275 32.0375 46.275 28.05V20.6625H46.3125H48.4875C49.2125 20.6625 49.7875 20.075 49.7875 19.3625C49.7875 18.65 49.2 18.0625 48.4875 18.0625H47.6C47.3625 11.875 43.6 6.5875 38.25 4.175C38.3625 1.9125 36.575 0 34.2625 0H29.1375C26.7875 0 25.0625 1.975 25.175 4.175C19.825 6.5875 16.0625 11.875 15.825 18.0625H14.925C14.2 18.0625 13.625 18.65 13.625 19.3625C13.625 20.075 14.2125 20.6625 14.925 20.6625H17.1H17.125V28.05C17.125 32.05 20.3875 35.675 23.725 38.6625V42.2C23.725 43.75 22.4625 45.0125 20.9125 45.0125C20.8625 45.0125 20.825 45.0125 20.775 45.025C16.55 45.4625 16.4625 45.475 14.6125 45.675C9.15 46.525 4.7125 50.5125 3.3 55.85L1.575 62.35C1.3875 63.05 1.8 63.7625 2.5 63.95C3.2 64.1375 3.9125 63.725 4.1 63.025L5.825 56.525C6.95 52.2875 10.425 49.1 14.675 48.325V53.1C12.7 53.65 11.0625 55.1375 10.35 57.125L8.525 62.25C8.2875 62.925 8.6375 63.675 9.3125 63.9125C9.9875 64.15 10.7375 63.8 10.975 63.125L12.8 58C13.3375 56.4875 14.7875 55.4625 16.3875 55.4625H37.65L37.2375 55.9375C35.4875 57.9625 35.7 61.0375 37.725 62.8C39.7625 64.5625 42.8375 64.325 44.5875 62.3125L49.6 56.525C50.025 56.925 50.3625 57.425 50.5625 58L52.3875 63.125C52.625 63.8 53.375 64.1625 54.05 63.9125C54.725 63.675 55.0875 62.925 54.8375 62.25L53.0125 57.125C52.65 56.1125 52.05 55.25 51.3 54.55L52.875 52.7375C53.8 52.85 54.7125 52.7875 55.6125 52.6C56.4875 53.75 57.1625 55.075 57.55 56.525L59.275 63.025C59.4625 63.7125 60.175 64.1375 60.875 63.95C61.575 63.7625 61.9875 63.05 61.8 62.35L60.1125 55.8625ZM25.7 6.825L27.2375 13.7375C27.4 14.4375 28.1 14.8875 28.8 14.725C29.5 14.5625 29.95 13.875 29.7875 13.1625L27.8 4.2625C27.6125 3.4 28.2625 2.6 29.125 2.6H34.25C35.125 2.6 35.7875 3.4375 35.575 4.2625L33.625 13.175C33.4625 13.875 33.9125 14.575 34.6125 14.7375C35.3125 14.9 36.0125 14.45 36.175 13.75L37.7125 6.8375C41.8625 8.95 44.7625 13.175 44.9875 18.0875C29.875 18.0875 33.5125 18.0875 18.4375 18.0875C18.65 13.1625 21.55 8.9375 25.7 6.825ZM19.75 28.0625V20.675H43.65V28.0625C43.65 32.2875 37.9625 36.7625 34.5125 39.625C34.2 39.8875 33.8 40.0375 33.3875 40.0375H30C29.6 40.0375 29.2 39.8875 28.875 39.625C25.55 36.8625 19.75 32.3125 19.75 28.0625ZM27.2125 41.6375C28 42.2875 28.9875 42.65 30.0125 42.65H33.4C34.4125 42.65 35.4125 42.2875 36.2 41.6375C36.2875 41.5625 35.875 41.9125 37.0875 40.9V42.2125C37.0875 44.1125 38.075 45.7875 39.55 46.75C34.3 49.8875 29.1375 49.8875 23.8875 46.75C25.375 45.775 26.35 44.1125 26.35 42.2125V40.9125C26.4375 40.9875 26.0375 40.65 27.2125 41.6375ZM17.3 52.8625V48.025L20.5625 47.6875C24.2625 50.3875 27.9875 51.75 31.7 51.75C35.425 51.75 39.15 50.3875 42.8375 47.6875L44.275 47.8375L39.925 52.8625H17.3ZM52.675 50.0625C52.2125 49.9625 51.725 50.125 51.4125 50.4875L42.6375 60.6125C40.6875 62.8625 37.3 59.9 39.2375 57.6625L48 47.5375C48.3125 47.175 48.4 46.675 48.2375 46.2375C47.5 44.2125 47.925 41.95 49.3375 40.3125C50.225 39.2875 51.375 38.625 52.675 38.3625L51.5625 40.025C50.4125 41.925 50.8 44.3625 52.475 45.825C54.125 47.25 56.575 47.35 58.3875 45.8625L59.825 44.5625C59.75 45.8875 59.25 47.125 58.375 48.15C56.9625 49.7625 54.775 50.5125 52.675 50.0625Z" fill="#D69212" stroke="#D69212" stroke-width="0.75"/>
</g>
<defs>
<clipPath id="clip0_350_378">
<rect width="64" height="64" fill="white"/>
</clipPath>
</defs>
</svg>
