<svg width="64" height="64" viewBox="0 0 64 64" fill="none" xmlns="http://www.w3.org/2000/svg">
<g clip-path="url(#clip0_350_385)">
<path d="M60.5587 18.9968C60.2807 18.56 59.7012 18.4312 59.2644 18.7092C58.8275 18.9872 58.6988 19.5666 58.9768 20.0035C61.007 23.1938 62.1252 27.4545 62.1252 32.0002C62.1252 36.546 61.007 40.8063 58.9768 43.9968C58.6988 44.4336 58.8277 45.0131 59.2644 45.2911C59.4204 45.3905 59.5947 45.4378 59.7668 45.4378C60.0767 45.4378 60.3799 45.2842 60.5587 45.0035C62.7779 41.516 64.0002 36.8981 64.0002 32.0002C64.0002 27.1022 62.7779 22.4842 60.5587 18.9968Z" fill="#D69212" stroke="#D69212" stroke-width="0.5"/>
<path d="M57.9068 23.1633C57.6289 22.7266 57.0494 22.5976 56.6126 22.8756C56.1757 23.1536 56.0469 23.733 56.3249 24.1699C57.6469 26.2473 58.3751 29.0281 58.3751 31.9999C58.3751 34.9716 57.6469 37.7525 56.3249 39.83C56.0469 40.2668 56.1758 40.8463 56.6126 41.1243C56.7686 41.2236 56.9428 41.271 57.1149 41.271C57.4248 41.271 57.7281 41.1174 57.9068 40.8366C59.4179 38.462 60.2501 35.3238 60.2501 31.9999C60.2501 28.676 59.4179 25.5378 57.9068 23.1633Z" fill="#D69212" stroke="#D69212" stroke-width="0.5"/>
<path d="M55.2549 27.3303C54.9769 26.8935 54.3977 26.7647 53.9607 27.0427C53.5239 27.3207 53.3952 27.9001 53.673 28.337C54.9368 30.3227 54.9368 33.678 53.673 35.6636C53.395 36.1003 53.5239 36.6798 53.9607 36.9578C54.1168 37.0572 54.2909 37.1046 54.4632 37.1046C54.773 37.1046 55.0763 36.951 55.2549 36.6702C56.9214 34.0515 56.9214 29.949 55.2549 27.3303Z" fill="#D69212" stroke="#D69212" stroke-width="0.5"/>
<path d="M1.875 31.9997C1.875 27.4539 2.99312 23.1935 5.02338 20.003C5.30137 19.5663 5.1725 18.9868 4.73575 18.7088C4.299 18.4305 3.71962 18.5597 3.4415 18.9964C1.22225 22.4839 0 27.1018 0 31.9997C0 36.8977 1.22225 41.5157 3.4415 45.003C3.62025 45.2839 3.9235 45.4374 4.23325 45.4374C4.40538 45.4374 4.57963 45.39 4.73575 45.2907C5.17263 45.0127 5.30137 44.4333 5.02338 43.9964C2.99312 40.806 1.875 36.5454 1.875 31.9997Z" fill="#D69212" stroke="#D69212" stroke-width="0.5"/>
<path d="M5.625 32.0002C5.625 29.0284 6.35313 26.2475 7.67513 24.17C7.95312 23.7333 7.82425 23.1538 7.3875 22.8758C6.95075 22.5975 6.37137 22.7267 6.09325 23.1634C4.58212 25.538 3.75 28.6763 3.75 32.0002C3.75 35.324 4.58212 38.4623 6.09325 40.8368C6.272 41.1175 6.57525 41.2712 6.88513 41.2712C7.05725 41.2712 7.2315 41.2238 7.3875 41.1244C7.82437 40.8464 7.95312 40.267 7.67513 39.8302C6.35313 37.7528 5.625 34.9719 5.625 32.0002Z" fill="#D69212" stroke="#D69212" stroke-width="0.5"/>
<path d="M10.0392 27.0423C9.60237 26.7641 9.02299 26.8931 8.74499 27.33C7.07849 29.9486 7.07849 34.0512 8.74499 36.6698C8.92374 36.9507 9.22687 37.1042 9.53674 37.1042C9.70887 37.1042 9.88312 37.0568 10.0392 36.9575C10.476 36.6795 10.6047 36.1001 10.3269 35.6632C9.06312 33.6775 9.06312 30.3222 10.3269 28.3366C10.6049 27.8997 10.4761 27.3202 10.0392 27.0423Z" fill="#D69212" stroke="#D69212" stroke-width="0.5"/>
<path d="M49.1876 9.679C49.1836 6.98387 47.3187 4.49675 43.9352 2.67488C40.7317 0.95 36.4933 0 32.0003 0C27.5073 0 23.2687 0.95 20.0654 2.67475C16.6819 4.49662 14.817 6.98375 14.813 9.67875C12.6757 10.1141 11.0625 12.0081 11.0625 14.2721V21.7721C11.0625 24.036 12.6756 25.93 14.8127 26.3654V37.6348C12.6756 38.0701 11.0625 39.9641 11.0625 42.228V49.728C11.0625 51.9919 12.6757 53.8859 14.813 54.3213C14.817 57.0163 16.6818 59.5034 20.0653 61.3252C23.2688 63.05 27.5074 64 32.0003 64C36.4931 64 40.7317 63.05 43.9351 61.3252C47.3186 59.5034 49.1835 57.0161 49.1875 54.3211C51.3245 53.8856 52.9374 51.9916 52.9374 49.728V42.228C52.9374 39.9644 51.3245 38.0705 49.1876 37.6349V26.3652C51.3245 25.9296 52.9374 24.0357 52.9374 21.7721V14.2721C52.9375 12.0084 51.3245 10.1145 49.1876 9.679ZM32.0003 1.875C40.3005 1.875 47.3128 5.45262 47.3128 9.6875V10.516C47.3128 10.518 47.3125 10.52 47.3125 10.522C47.3125 10.524 47.3128 10.526 47.3128 10.528V16.3953C45.167 15.2238 42.8958 14.3033 40.5405 13.6525C40.0415 13.5146 39.525 13.8074 39.3872 14.3065C39.2494 14.8055 39.5421 15.3219 40.0412 15.4599C42.4257 16.1187 44.7192 17.0712 46.8725 18.296L40.5262 26.7574C37.8796 25.483 34.9489 24.8125 32 24.8125C29.051 24.8125 26.1201 25.483 23.4734 26.7577L17.1271 18.2962C21.6449 15.7277 26.7642 14.375 32 14.375C33.5018 14.375 35.0104 14.4865 36.4839 14.7063C36.9958 14.7826 37.473 14.4294 37.5494 13.9172C37.6257 13.4051 37.2726 12.9281 36.7604 12.8518C35.1955 12.6184 33.5939 12.5 31.9996 12.5C26.6262 12.5 21.3669 13.8422 16.6877 16.3949V9.6875C16.6877 5.45262 23.7001 1.875 32.0003 1.875ZM39.8667 40.4776C37.4329 41.6794 34.7253 42.3125 31.9998 42.3125C29.2746 42.3125 26.5671 41.6795 24.1331 40.4777V28.5224C26.5669 27.3206 29.2746 26.6875 32 26.6875C34.7251 26.6875 37.4327 27.3205 39.8667 28.5222V40.4776ZM23.803 42.3973C26.3625 43.5713 29.1729 44.1875 31.9998 44.1875C34.827 44.1875 37.6375 43.5711 40.197 42.397L42.2579 50.024C42.6565 51.4995 41.7816 53.0431 40.3076 53.4651C37.619 54.2348 34.8239 54.625 31.9998 54.625C29.1761 54.625 26.3811 54.2347 23.6925 53.4652C22.2185 53.0432 21.3436 51.4995 21.7423 50.024L23.803 42.3973ZM12.9375 21.7721V14.2721C12.9375 13.0499 13.7215 12.0078 14.8127 11.6208V18.0278C14.8127 18.0344 14.8126 18.0411 14.8127 18.0478V24.4234C13.7215 24.0365 12.9375 22.9944 12.9375 21.7721ZM32.0003 62.125C23.7 62.125 16.6877 58.5474 16.6877 54.3125V47.8529C16.6877 47.335 16.268 46.9154 15.7502 46.9154C15.2325 46.9154 14.8127 47.335 14.8127 47.8529V52.3792C13.7214 51.9924 12.9375 50.9501 12.9375 49.7279V42.2279C12.9375 41.0056 13.7215 39.9635 14.8127 39.5765V44.1029C14.8127 44.6208 15.2325 45.0404 15.7502 45.0404C16.268 45.0404 16.6877 44.6208 16.6877 44.1029V20.8354L22.258 28.2625V40.9266L19.932 49.5349C19.2676 51.9936 20.723 54.5654 23.1764 55.2676C26.0329 56.0855 29.0015 56.5 32 56.5C34.9985 56.5 37.9671 56.0854 40.8236 55.2676C43.2769 54.5654 44.7324 51.9938 44.0679 49.535L41.7417 40.9263V28.2624L47.3129 20.8342V25.5161C47.3129 25.5181 47.3126 25.5201 47.3126 25.5221C47.3126 25.5241 47.3129 25.5261 47.3129 25.5281V38.4719C47.3129 38.4739 47.3126 38.4759 47.3126 38.4779C47.3126 38.4799 47.3129 38.4819 47.3129 38.4839V53.4717C47.3129 53.4737 47.3126 53.4757 47.3126 53.4777C47.3126 53.4797 47.3129 53.4818 47.3129 53.4837V54.3122C47.3127 58.5474 40.3005 62.125 32.0003 62.125ZM51.0625 42.2279V49.7279C51.0625 50.9499 50.2789 51.9919 49.1878 52.379V39.5768C50.2789 39.9639 51.0625 41.0059 51.0625 42.2279ZM51.0625 21.7721C51.0625 22.9941 50.2789 24.0361 49.1878 24.4233V11.621C50.2788 12.0081 51.0625 13.0501 51.0625 14.2721V21.7721Z" fill="#D69212" stroke="#D69212" stroke-width="0.5"/>
</g>
<defs>
<clipPath id="clip0_350_385">
<rect width="64" height="64" fill="white"/>
</clipPath>
</defs>
</svg>
