<svg width="64" height="64" viewBox="0 0 64 64" fill="none" xmlns="http://www.w3.org/2000/svg">
<g clip-path="url(#clip0_350_361)">
<path d="M63.8462 61.3765L52.5527 35.0278C52.2559 34.3359 51.5752 33.8872 50.8228 33.8872H43.6504C46.5532 28.8159 48.9404 23.2031 48.9404 18.4541C48.9404 -6.00197 15.0596 -6.30031 15.0596 18.4541C15.0596 23.2031 17.4468 28.8159 20.3496 33.8872H13.1772C12.4243 33.8872 11.7436 34.3359 11.4473 35.0278L0.153802 61.3765C-0.377448 62.6157 0.532708 64 1.88378 64H62.1162C63.4644 64 64.3784 62.6186 63.8462 61.3765ZM49.5811 37.6514L55.1538 50.6523C54.9795 50.7432 36.8418 60.1616 36.7119 60.2358H32.772C32.6724 60.1245 33.519 60.9756 21.2515 48.7095L28.0654 45.2222C29.4546 46.9951 30.4277 48.1216 30.5796 48.2964C31.3296 49.1597 32.6709 49.1582 33.4199 48.2964C33.7349 47.9341 37.5718 43.4883 41.3516 37.6514H49.5811ZM32 3.77391C38.3457 3.77391 45.1758 8.36815 45.1758 18.4541C45.1758 26.9346 35.6694 39.5552 32 44.1099C28.3306 39.5547 18.8242 26.9346 18.8242 18.4541C18.8242 8.31346 25.4414 3.77391 32 3.77391ZM14.4185 37.6514C23.5366 37.6514 22.5005 37.6528 22.6465 37.6484C23.7065 39.2856 24.771 40.8135 25.7612 42.1728L8.74853 50.8799L14.4185 37.6514ZM6.42675 56.2969L17.7305 50.5117L27.4561 60.2358H4.73828L6.42675 56.2969ZM44.8701 60.2358L56.6411 54.1216L59.2617 60.2358H44.8701Z" fill="#D69212"/>
<path d="M37.6465 16.9487C37.6465 13.8354 35.1133 11.3022 32 11.3022C28.8862 11.3022 26.353 13.8354 26.353 16.9487C26.353 20.062 28.8862 22.5947 32 22.5947C35.1133 22.5947 37.6465 20.062 37.6465 16.9487ZM30.1177 16.9487C30.1177 15.9106 30.9619 15.0664 32 15.0664C33.0376 15.0664 33.8823 15.9106 33.8823 16.9487C33.8823 17.9863 33.0376 18.8306 32 18.8306C30.9619 18.8306 30.1177 17.9863 30.1177 16.9487Z" fill="#D69212"/>
</g>
<defs>
<clipPath id="clip0_350_361">
<rect width="64" height="64" fill="white"/>
</clipPath>
</defs>
</svg>
