<svg width="79" height="64" viewBox="0 0 79 64" fill="none" xmlns="http://www.w3.org/2000/svg">
<path fill-rule="evenodd" clip-rule="evenodd" d="M29.1001 12.1125C33.7739 7.99086 39.9106 5.48571 46.6287 5.48571C61.261 5.48571 73.143 17.3678 73.143 32C73.143 46.6322 61.261 58.5143 46.6287 58.5143C39.9106 58.5143 33.7739 56.0091 29.1001 51.8875C27.9663 50.8855 26.2292 50.9915 25.2271 52.1289C24.2251 53.2626 24.3348 54.9961 25.4685 55.9982C31.1115 60.9792 38.5209 64 46.6287 64C64.2891 64 78.6287 49.6603 78.6287 32C78.6287 14.3397 64.2891 0 46.6287 0C38.5209 0 31.1115 3.0208 25.4685 8.00183C24.3348 9.00389 24.2251 10.7374 25.2271 11.8711C26.2292 13.0085 27.9663 13.1145 29.1001 12.1125Z" fill="#D69212"/>
<path fill-rule="evenodd" clip-rule="evenodd" d="M42.4229 15.9084V30.537C42.4229 31.2647 42.7118 31.9632 43.2274 32.4752L54.9303 44.1781C55.9982 45.2496 57.739 45.2496 58.8068 44.1781C59.8784 43.1102 59.8784 41.3694 58.8068 40.3015L47.9086 29.3996V15.9084C47.9086 14.3943 46.6798 13.1655 45.1657 13.1655C43.6517 13.1655 42.4229 14.3943 42.4229 15.9084Z" fill="#D69212"/>
<path fill-rule="evenodd" clip-rule="evenodd" d="M2.74286 21.9427H24.6857C26.1998 21.9427 27.4286 20.7139 27.4286 19.1999C27.4286 17.6858 26.1998 16.457 24.6857 16.457H2.74286C1.2288 16.457 0 17.6858 0 19.1999C0 20.7139 1.2288 21.9427 2.74286 21.9427Z" fill="#D69212"/>
<path fill-rule="evenodd" clip-rule="evenodd" d="M6.40008 34.743H28.3429C29.857 34.743 31.0858 33.5142 31.0858 32.0002C31.0858 30.4861 29.857 29.2573 28.3429 29.2573H6.40008C4.88603 29.2573 3.65723 30.4861 3.65723 32.0002C3.65723 33.5142 4.88603 34.743 6.40008 34.743Z" fill="#D69212"/>
<path fill-rule="evenodd" clip-rule="evenodd" d="M10.0573 47.5428H32.0002C33.5142 47.5428 34.743 46.314 34.743 44.8C34.743 43.2859 33.5142 42.0571 32.0002 42.0571H10.0573C8.54325 42.0571 7.31445 43.2859 7.31445 44.8C7.31445 46.314 8.54325 47.5428 10.0573 47.5428Z" fill="#D69212"/>
</svg>
