<svg width="120" height="120" viewBox="0 0 120 120" fill="none" xmlns="http://www.w3.org/2000/svg">
<g clip-path="url(#clip0_350_665)">
<path d="M24.9169 71.0275C20.4891 71.0275 16.8867 74.6296 16.8867 79.0574V88.4701H32.9463V79.0574C32.9463 74.6296 29.3442 71.0275 24.9169 71.0275Z" fill="#F5F5F5"/>
<path d="M91.6901 63.4813C90.9373 63.9419 89.9881 63.9419 89.2353 63.4813C74.8981 54.7077 65.3661 45.5422 65.3661 27.6034V20.4995H16.5596C15.9125 20.4995 15.3877 21.0243 15.3877 21.6714V68.0195C17.9464 65.8075 21.2766 64.465 24.9162 64.465C32.9623 64.465 39.5084 71.0111 39.5084 79.0574V88.4701H43.0475C44.2107 88.4701 45.1568 89.4165 45.1568 90.5795V109.097H93.7268C94.3739 109.097 94.8987 108.573 94.8987 107.926V61.454C93.8586 62.1346 92.7886 62.8091 91.6901 63.4813Z" fill="#F5F5F5"/>
<path d="M17.1211 79.0571V88.2355H25.2553V71.2703C25.1428 71.2654 25.0301 71.2616 24.9166 71.2616C20.6182 71.2618 17.1211 74.7589 17.1211 79.0571Z" fill="#F3F3F3"/>
<path d="M24.9162 64.2306C25.0299 64.2306 25.1419 64.2367 25.2549 64.2393V21.6714C25.2549 21.0243 25.7796 20.4995 26.4268 20.4995H16.5596C15.9125 20.4995 15.3877 21.0243 15.3877 21.6714V67.7005C17.9649 65.5361 21.2874 64.2306 24.9162 64.2306Z" fill="#F3F3F3"/>
<path d="M66.6621 13.3741C65.8678 13.7711 65.3662 14.5828 65.3662 15.4706V27.6035C65.3662 45.5423 74.898 54.708 89.2354 63.4814C89.9882 63.9419 90.9377 63.9419 91.6903 63.4814C106.027 54.7078 115.559 45.5423 115.559 27.6035V15.4706C115.559 14.5828 115.058 13.7711 114.264 13.3741L91.5105 2.0027C90.851 1.67293 90.0745 1.67293 89.415 2.0027L66.6621 13.3741Z" fill="#EDB448"/>
<path d="M73.7918 23.7363V9.81091L66.6623 13.3741C65.868 13.7711 65.3662 14.5828 65.3662 15.4706V27.6035C65.3662 45.5423 74.898 54.708 89.2354 63.4814C89.9882 63.9419 90.9375 63.9419 91.6903 63.4814C93.7783 62.2036 95.7635 60.9173 97.6329 59.5971C83.3114 50.8289 73.7918 41.6634 73.7918 23.7363Z" fill="#D69212"/>
<path d="M90.3577 46.0366C99.2111 46.0366 106.388 38.8594 106.388 30.006C106.388 21.1526 99.2111 13.9755 90.3577 13.9755C81.5043 13.9755 74.3271 21.1526 74.3271 30.006C74.3271 38.8594 81.5043 46.0366 90.3577 46.0366Z" fill="#3D8C58"/>
<path d="M81.1254 30.006C81.1254 22.3195 86.5367 15.8995 93.7568 14.3402C92.6609 14.1034 91.5244 13.9757 90.3577 13.9757C81.5044 13.9757 74.3271 21.1527 74.3271 30.0063C74.3271 38.8598 81.5042 46.0368 90.3577 46.0368C91.5244 46.0368 92.6609 45.9091 93.7568 45.6723C86.5369 44.1126 81.1254 37.6928 81.1254 30.006Z" fill="#024F2D"/>
<path d="M17.1206 88.2358V79.0574C17.1206 74.759 20.6177 71.2618 24.9162 71.2618C29.2146 71.2618 32.7117 74.759 32.7117 79.0574V88.2358H39.743V79.0574C39.743 70.8688 33.1048 64.2308 24.9164 64.2308C16.728 64.2308 10.0898 70.869 10.0898 79.0574V88.2358H17.1206Z" fill="#F3F3F3"/>
<path d="M14.063 88.2357V79.0574C14.063 71.5429 19.6545 65.3385 26.903 64.367C26.2528 64.2798 25.5905 64.2306 24.9164 64.2306C16.7278 64.2306 10.0898 70.8688 10.0898 79.0572V88.2355H14.063V88.2357Z" fill="#B7B7B7"/>
<path d="M43.0477 118.242H6.78516C5.4907 118.242 4.44141 117.193 4.44141 115.898V90.5795C4.44141 89.285 5.4907 88.2357 6.78516 88.2357H43.0477C44.3421 88.2357 45.3914 89.285 45.3914 90.5795V115.898C45.3914 117.193 44.3421 118.242 43.0477 118.242Z" fill="#EDB448"/>
<path d="M14.2973 115.898V90.5795C14.2973 89.285 15.3466 88.2357 16.6411 88.2357H6.78516C5.4907 88.2357 4.44141 89.285 4.44141 90.5795V115.898C4.44141 117.193 5.4907 118.242 6.78516 118.242H16.6411C15.3466 118.242 14.2973 117.193 14.2973 115.898Z" fill="#D69212"/>
<path d="M34.6982 55.4817H44.7665C45.7375 55.4817 46.5243 54.6947 46.5243 53.7239C46.5243 52.7531 45.7375 51.9661 44.7665 51.9661H34.6982C33.7272 51.9661 32.9404 52.7531 32.9404 53.7239C32.9404 54.6947 33.7272 55.4817 34.6982 55.4817Z" fill="black"/>
<path d="M34.6982 64.0007H75.5896C76.5607 64.0007 77.3475 63.2137 77.3475 62.2429C77.3475 61.2721 76.5607 60.4851 75.5896 60.4851H34.6982C33.7272 60.4851 32.9404 61.2721 32.9404 62.2429C32.9404 63.2137 33.7272 64.0007 34.6982 64.0007Z" fill="black"/>
<path d="M75.5887 69.0039H64.6875C63.7165 69.0039 62.9297 69.7909 62.9297 70.7617C62.9297 71.7325 63.7165 72.5195 64.6875 72.5195H75.5887C76.5598 72.5195 77.3466 71.7325 77.3466 70.7617C77.3466 69.7909 76.5595 69.0039 75.5887 69.0039Z" fill="black"/>
<path d="M115.049 11.8017L92.2966 0.430488C91.1484 -0.143496 89.7776 -0.143496 88.6294 0.430488L65.8763 11.8017C65.876 11.8017 65.876 11.8017 65.876 11.8017C64.4773 12.5008 63.6082 13.9066 63.6082 15.4706V18.7417H38.9067C37.9357 18.7417 37.1489 19.5288 37.1489 20.4995C37.1489 21.4703 37.9357 22.2574 38.9067 22.2574H63.6084V27.6032C63.6084 30.1673 63.8006 32.6048 64.1852 34.9279H34.6978C33.7268 34.9279 32.94 35.7149 32.94 36.6857C32.94 37.6565 33.7268 38.4435 34.6978 38.4435H64.9376C65.3984 40.1779 65.981 41.8436 66.6848 43.447H34.6978C33.7268 43.447 32.94 44.234 32.94 45.2048C32.94 46.1756 33.7268 46.9626 34.6978 46.9626H68.482C69.0994 48.0119 69.7756 49.0326 70.5124 50.0263C70.9976 50.6807 71.5104 51.3264 72.053 51.966H51.7973C50.8263 51.966 50.0395 52.7531 50.0395 53.7238C50.0395 54.6946 50.8263 55.4817 51.7973 55.4817H75.4064C78.7205 58.6005 82.9092 61.671 88.3179 64.9809C88.9793 65.3856 89.7209 65.5879 90.4627 65.5879C91.2045 65.5879 91.946 65.3856 92.6077 64.9809C92.7874 64.871 92.9637 64.7615 93.1406 64.6523V107.34H47.1492V104.062C47.1492 103.092 46.3624 102.305 45.3914 102.305C44.4204 102.305 43.6336 103.092 43.6336 104.062V115.898C43.6336 116.221 43.3709 116.484 43.0477 116.484H6.78516C6.46195 116.484 6.19922 116.221 6.19922 115.898V90.5795C6.19922 90.2566 6.46195 89.9936 6.78516 89.9936H43.0477C43.3709 89.9936 43.6336 90.2566 43.6336 90.5795V95.8593C43.6336 96.8301 44.4204 97.6171 45.3914 97.6171C46.3624 97.6171 47.1492 96.8301 47.1492 95.8593V90.5795C47.1492 90.2263 47.0995 89.8851 47.0152 89.5579H75.5892C76.5602 89.5579 77.347 88.7709 77.347 87.8001C77.347 86.8293 76.5602 86.0423 75.5892 86.0423H41.5008V81.0388H75.589C76.56 81.0388 77.3468 80.2518 77.3468 79.281C77.3468 78.3102 76.56 77.5232 75.589 77.5232H41.4272C41.2648 75.7619 40.8272 74.0795 40.1555 72.5198H58.3598C59.3309 72.5198 60.1177 71.7327 60.1177 70.762C60.1177 69.7912 59.3309 69.0042 58.3598 69.0042H38.0941C35.0611 65.0378 30.2836 62.4728 24.9164 62.4728C22.1098 62.4728 19.4653 63.176 17.1457 64.4118V22.2574H30.7036C31.6746 22.2574 32.4614 21.4703 32.4614 20.4995C32.4614 19.5288 31.6746 18.7417 30.7036 18.7417H16.5598C14.9442 18.7417 13.6301 20.0559 13.6301 21.6714V66.9208C10.3739 69.9508 8.33203 74.2692 8.33203 79.0572V86.4777H6.78516C4.52367 86.4777 2.68359 88.3178 2.68359 90.5793V115.898C2.68359 118.16 4.52367 120 6.78516 120H43.0477C45.3091 120 47.1492 118.16 47.1492 115.898V110.855H93.7268C95.3423 110.855 96.6565 109.541 96.6565 107.926V62.3941C102.913 58.207 107.245 54.2985 110.413 50.0263C115.059 43.7615 117.317 36.4267 117.317 27.6035V15.4706C117.317 13.9068 116.448 12.501 115.049 11.8017ZM30.9541 86.478H18.8789V79.0574C18.8789 75.7281 21.5876 73.0197 24.9166 73.0197C28.2457 73.0197 30.9544 75.7281 30.9544 79.0574V86.478H30.9541ZM11.8477 79.0574C11.8477 71.8511 17.7105 65.9885 24.9166 65.9885C32.1227 65.9885 37.9854 71.8511 37.9854 79.0574V86.478H34.47V79.0574C34.47 73.7896 30.1845 69.5041 24.9166 69.5041C19.6488 69.5041 15.3633 73.7896 15.3633 79.0574V86.478H11.8477V79.0574ZM113.802 27.6035C113.802 44.4963 104.99 53.2821 90.773 61.982C90.5841 62.0976 90.3408 62.0974 90.1528 61.982C75.9354 53.2818 67.1238 44.4963 67.1238 27.6035V15.4706C67.1238 15.247 67.248 15.0461 67.448 14.9463L90.2009 3.57486C90.3647 3.49283 90.5604 3.49283 90.7247 3.57486L113.477 14.946C113.677 15.0459 113.801 15.2467 113.801 15.4703V27.6035H113.802Z" fill="black"/>
<path d="M90.3575 12.2179C80.5489 12.2179 72.5693 20.1977 72.5693 30.006C72.5693 39.8144 80.5491 47.7941 90.3575 47.7941C97.8614 47.7941 104.596 43.0457 107.115 35.9781C107.441 35.0638 106.964 34.0581 106.049 33.7321C105.135 33.4061 104.129 33.8833 103.803 34.7976C101.782 40.4683 96.3783 44.2783 90.3575 44.2783C82.4876 44.2783 76.085 37.8756 76.085 30.0058C76.085 22.1359 82.4876 15.7333 90.3575 15.7333C97.2865 15.7333 103.194 20.6788 104.405 27.4923C104.575 28.4481 105.488 29.0863 106.443 28.9157C107.399 28.746 108.036 27.8334 107.866 26.8776C106.357 18.3831 98.9939 12.2179 90.3575 12.2179Z" fill="black"/>
<path d="M96.4542 25.1957L89.5281 32.1217L85.5009 28.0942C84.8144 27.4077 83.7016 27.4075 83.0149 28.0942C82.3284 28.7807 82.3284 29.8938 83.0149 30.58L88.285 35.8504C88.6148 36.1802 89.0617 36.3653 89.5281 36.3653C89.9945 36.3653 90.4413 36.1802 90.7713 35.8504L98.9402 27.6815C99.6267 26.995 99.6267 25.882 98.9402 25.1957C98.2537 24.5095 97.1409 24.5095 96.4542 25.1957Z" fill="black"/>
</g>
<defs>
<clipPath id="clip0_350_665">
<rect width="120" height="120" fill="white"/>
</clipPath>
</defs>
</svg>
