<svg width="120" height="120" viewBox="0 0 120 120" fill="none" xmlns="http://www.w3.org/2000/svg">
<path fill-rule="evenodd" clip-rule="evenodd" d="M66.2586 3.92345C71.6812 10.3065 77.1038 16.6971 82.5263 23.0802C82.8365 23.4357 82.8969 23.9122 82.7002 24.3432C82.5035 24.7667 82.1028 25.0237 81.6264 25.0237H74.0485V64.5093C74.0485 65.81 72.9896 66.8689 71.6887 66.8689H59.0362C57.7353 66.8689 56.6689 65.81 56.6689 64.5093V25.0237H49.0911C48.6221 25.0237 48.2214 24.7667 48.0247 24.3432C47.8205 23.9122 47.8885 23.4357 48.1911 23.0802C53.6136 16.6971 59.0362 10.3065 64.4588 3.92345C64.6932 3.64368 65.0033 3.50745 65.3588 3.50745C65.7216 3.50745 66.0318 3.64368 66.2586 3.92345ZM103.096 22.2267C107.475 27.3818 111.854 32.543 116.234 37.698C116.484 37.9851 116.533 38.3698 116.374 38.718C116.216 39.0599 115.892 39.2677 115.507 39.2677H109.387V64.0978C109.387 65.1484 108.532 66.0034 107.481 66.0034H97.2628C96.2122 66.0034 95.3511 65.1484 95.3511 64.0978V39.2677H89.231C88.8522 39.2677 88.5285 39.0599 88.3699 38.718C88.2049 38.3698 88.2598 37.9851 88.5042 37.698C92.8835 32.543 97.2628 27.3818 101.642 22.2267C101.832 22.0009 102.082 21.8907 102.369 21.8907C102.662 21.8907 102.912 22.0009 103.096 22.2267ZM28.3986 22.2267C32.7779 27.3818 37.1572 32.543 41.5365 37.698C41.7871 37.9851 41.8358 38.3698 41.6769 38.718C41.5181 39.0599 41.1946 39.2677 40.8096 39.2677H34.6896V64.0978C34.6896 65.1484 33.8346 66.0034 32.784 66.0034H22.5656C21.515 66.0034 20.6539 65.1484 20.6539 64.0978V39.2677H14.5339C14.155 39.2677 13.8313 39.0599 13.6725 38.718C13.5078 38.3698 13.5626 37.9851 13.8068 37.698C18.1863 32.543 22.5656 27.3818 26.9449 22.2267C27.1343 22.0009 27.3847 21.8907 27.6718 21.8907C27.9649 21.8907 28.2153 22.0009 28.3986 22.2267Z" fill="#3D8C58"/>
<path fill-rule="evenodd" clip-rule="evenodd" d="M64.1822 4.24909C64.2742 4.14039 64.3664 4.03192 64.4586 3.92345C64.693 3.64368 65.0031 3.50745 65.3586 3.50745C65.7215 3.50745 66.0316 3.64368 66.2584 3.92345C71.681 10.3065 77.1036 16.6971 82.5262 23.0802C82.8363 23.4357 82.8968 23.9122 82.7001 24.3432C82.5034 24.7667 82.1026 25.0237 81.6262 25.0237H79.2732C79.7497 25.0237 80.1504 24.7667 80.3471 24.3432C80.5438 23.9122 80.4833 23.4357 80.1732 23.0802C74.8429 16.8056 69.5125 10.5237 64.1822 4.24909ZM74.0483 25.0237V64.5093C74.0483 65.81 72.9895 66.8689 71.6885 66.8689H69.3356C70.6365 66.8689 71.6953 65.81 71.6953 64.5093V25.0237H74.0483ZM101.192 22.7562C101.342 22.5797 101.492 22.4032 101.642 22.2267C101.831 22.0009 102.082 21.8907 102.369 21.8907C102.662 21.8907 102.912 22.0009 103.096 22.2267C107.475 27.3818 111.854 32.543 116.233 37.698C116.484 37.9851 116.533 38.3698 116.374 38.718C116.215 39.0599 115.892 39.2677 115.507 39.2677H113.154C113.539 39.2677 113.862 39.0599 114.021 38.718C114.18 38.3698 114.131 37.9851 113.881 37.698C109.651 32.7192 105.422 27.735 101.192 22.7562ZM109.387 39.2677V64.0978C109.387 65.1484 108.532 66.0034 107.481 66.0034H105.128C106.179 66.0034 107.034 65.1484 107.034 64.0978V39.2677H109.387ZM26.4951 22.7562L26.9448 22.2267C27.1342 22.0009 27.3845 21.8907 27.6716 21.8907C27.9648 21.8907 28.2151 22.0009 28.3984 22.2267C32.7777 27.3818 37.157 32.543 41.5363 37.698C41.7869 37.9851 41.8356 38.3698 41.6768 38.718C41.5179 39.0599 41.1944 39.2677 40.8095 39.2677H38.4565C38.8415 39.2677 39.165 39.0599 39.3238 38.718C39.4826 38.3698 39.4339 37.9851 39.1834 37.698C34.9539 32.7192 30.7245 27.735 26.4951 22.7562ZM34.6895 39.2677V64.0978C34.6895 65.1484 33.8344 66.0034 32.7838 66.0034H30.4309C31.4815 66.0034 32.3365 65.1484 32.3365 64.0978V39.2677H34.6895Z" fill="#024F2D"/>
<path fill-rule="evenodd" clip-rule="evenodd" d="M11.0614 89.8912L29.0698 79.4594C32.4513 77.5001 35.8868 76.1107 39.6047 77.3157C43.7458 78.6615 50.5087 81.5436 57.407 82.7865C59.9689 83.6168 61.5647 86.1787 60.8698 88.7785C60.1696 91.3782 57.9769 92.7189 54.8724 92.2413L57.2877 92.6267C60.0503 93.0717 62.5849 92.6919 65.0056 91.2806L82.3195 81.1964C95.7797 73.3589 97.7555 85.4189 93.2833 88.1761L61.8576 107.525C58.9703 109.3 55.8058 109.718 52.5277 108.839L29.7374 102.733L21.2922 107.607C19.6694 108.54 17.5851 107.981 16.6463 106.358L9.81831 94.5371C8.8849 92.9142 9.44396 90.8302 11.0614 89.8912Z" fill="#F6DCCD"/>
<path fill-rule="evenodd" clip-rule="evenodd" d="M11.0614 89.8912L29.0698 79.4594C32.4513 77.5001 35.8868 76.1107 39.6047 77.3157C41.8192 78.0319 44.788 79.1935 48.1207 80.3062L13.2322 100.453L9.81831 94.5371C8.8849 92.9142 9.44396 90.8302 11.0614 89.8912Z" fill="#F1CBBC"/>
<path fill-rule="evenodd" clip-rule="evenodd" d="M13.1506 84.7025L27.436 109.941C28.1252 111.162 27.691 112.725 26.4753 113.414L21.6122 116.166C20.3965 116.855 18.8334 116.421 18.1386 115.2L3.85881 89.9618C3.16398 88.7406 3.5981 87.1773 4.81928 86.4881L9.67692 83.7364C10.8983 83.047 12.4614 83.4813 13.1506 84.7025Z" fill="#F3F3F3"/>
<path fill-rule="evenodd" clip-rule="evenodd" d="M20.6675 102.043L23.1913 106.51L25.6934 110.928C26.3828 112.144 25.9541 113.702 24.7383 114.397L26.475 113.414C27.6908 112.725 28.1249 111.162 27.4358 109.941L24.9282 105.506L19.8915 96.6051L14.8492 87.6985L13.1503 84.7025C12.5534 83.6442 11.2998 83.1774 10.1816 83.5192L13.1179 88.7079L18.1546 97.6091L20.6621 102.038L20.6675 102.043Z" fill="#B7B7B7"/>
<path fill-rule="evenodd" clip-rule="evenodd" d="M65.3605 31.0668C78.388 31.0668 88.9489 41.6277 88.9489 54.6552C88.9489 67.6825 78.388 78.2435 65.3605 78.2435C52.3329 78.2435 41.7725 67.6825 41.7725 54.6552C41.7725 41.6277 52.3329 31.0668 65.3605 31.0668Z" fill="#EDB448"/>
<path fill-rule="evenodd" clip-rule="evenodd" d="M65.3601 31.0668C78.3881 31.0668 88.9491 41.6277 88.9491 54.6552C88.9491 67.6828 78.3881 78.2435 65.3601 78.2435C64.6803 78.2435 64.0067 78.2127 63.3408 78.1564C75.4232 77.132 84.91 67.0023 84.91 54.6552C84.91 42.308 75.4232 32.1783 63.3408 31.1538C64.0067 31.0974 64.6803 31.0668 65.3601 31.0668Z" fill="#D69212"/>
<path fill-rule="evenodd" clip-rule="evenodd" d="M27.7038 106.586L28.9998 108.876C29.0007 108.878 29.0014 108.879 29.0024 108.881C30.196 111.004 29.4388 113.713 27.3283 114.905L22.4864 117.649C22.4845 117.65 22.4826 117.651 22.4807 117.652C20.3577 118.846 17.6487 118.089 16.456 115.977L2.21814 90.819C1.01367 88.6938 1.77062 85.9823 3.88426 84.7887L8.73156 82.0444L8.7332 82.0435C10.8459 80.8503 13.5558 81.6 14.7588 83.7127L14.7612 83.7169L15.7972 85.5475L28.3311 78.2908C32.1854 76.0618 36.1259 74.6183 40.3593 75.9931C44.4306 77.3131 51.077 80.16 57.8605 81.3858C57.9436 81.4009 58.0254 81.4214 58.1057 81.4473C61.6181 82.5847 63.7499 86.1378 62.7908 89.7044C62.6788 90.1216 62.5393 90.5162 62.3732 90.887C62.9763 90.6882 63.5687 90.4211 64.1527 90.0807L81.417 80.0258C87.7384 76.3433 91.956 76.7687 94.3417 78.3691C96.4153 79.7604 97.3793 82.1341 97.3174 84.4661C97.2548 86.8235 96.1266 89.0729 94.2779 90.2115L62.9513 109.499C59.6156 111.558 55.9617 112.041 52.1763 111.031L52.1741 111.031L30.2031 105.143L27.7038 106.586ZM25.7212 110.727L11.4868 85.5748C11.3064 85.2586 10.9014 85.1425 10.5847 85.3214L5.73885 88.0647L5.73744 88.0656C5.42309 88.243 5.31438 88.6468 5.4932 88.9626L5.49391 88.9635L19.7323 114.123L19.7332 114.124C19.9116 114.44 20.3172 114.549 20.6346 114.371L25.4718 111.63L25.4744 111.628C25.7901 111.45 25.8991 111.044 25.7212 110.727ZM25.8494 103.309L28.9958 101.492C29.4283 101.243 29.9421 101.175 30.4245 101.304L53.1471 107.394C55.896 108.127 58.5516 107.79 60.9739 106.295L60.9758 106.294L92.3038 87.0058C93.1346 86.4941 93.5259 85.4254 93.5541 84.3661C93.6358 81.2936 90.5525 79.0607 83.312 83.2788L66.0483 93.3334C63.2452 94.9668 60.3078 95.4197 57.1061 94.9101C57.104 94.9096 54.8793 94.5461 54.8784 94.5458C50.9791 93.7454 47.3626 92.5677 43.3497 91.4891C42.3464 91.2195 41.7508 90.1861 42.0205 89.1828C42.2901 88.1795 43.3236 87.584 44.3268 87.8536C48.2372 88.9044 51.7624 90.0571 55.5586 90.8421C57.3878 91.0421 58.7339 90.296 59.1548 88.7277L59.1551 88.727C59.5807 87.1449 58.5861 85.6153 57.052 85.0651C50.129 83.7924 43.3537 80.9216 39.1977 79.5741L39.1967 79.5738C36.0179 78.5414 33.1104 79.876 30.216 81.5496L17.6516 88.8242L25.8494 103.309ZM9.81509 88.1383C10.9139 87.9748 11.9344 88.7336 12.0979 89.8324C12.2548 90.9315 11.496 91.9583 10.3972 92.1153C9.29814 92.2788 8.27791 91.5136 8.11438 90.4148C7.95744 89.3157 8.71603 88.2955 9.81509 88.1383ZM75.932 31.6402C84.7127 35.6682 90.8365 44.5477 90.8365 54.8113C90.8365 68.8419 79.3925 80.2858 65.3619 80.2858C51.3313 80.2858 39.8873 68.8419 39.8873 54.8113C39.8873 44.5491 46.0094 35.6708 54.788 31.6418C54.788 29.9327 54.788 27.0623 54.788 27.0623H49.0925C47.8751 27.0623 46.8344 26.3962 46.3217 25.2985C45.7939 24.1776 45.9727 22.9402 46.7579 22.0176C52.1793 15.6357 57.601 9.24631 63.0198 2.86773C63.6304 2.14067 64.4351 1.78137 65.36 1.78137C66.3083 1.78137 67.1113 2.15125 67.7057 2.87408C73.1224 9.25031 78.5393 15.6341 83.956 22.0103C84.7537 22.9334 84.9233 24.1644 84.4141 25.2804C84.4125 25.2844 84.4106 25.2882 84.409 25.292C83.8991 26.3901 82.8631 27.0623 81.6278 27.0623H75.932V31.6402ZM58.5527 30.2635C60.7214 29.6597 63.0052 29.3367 65.3619 29.3367C67.7172 29.3367 69.9998 29.6593 72.1673 30.2623V25.18C72.1673 24.1404 73.0101 23.2976 74.0497 23.2976H80.1101C75.1934 17.5094 70.2767 11.7157 65.36 5.92773C60.4433 11.7157 55.5268 17.5094 50.6101 23.2976H56.6704C57.7099 23.2976 58.5527 24.1404 58.5527 25.18V30.2635ZM65.3619 76.5211C77.3191 76.5211 87.0718 66.7684 87.0718 54.8113C87.0718 42.8543 77.3191 33.1014 65.3619 33.1014C53.405 33.1014 43.652 42.8543 43.652 54.8113C43.652 66.7684 53.405 76.5211 65.3619 76.5211ZM63.4796 41.5258V39.887C63.4796 38.848 64.3231 38.0047 65.3619 38.0047C66.401 38.0047 67.2443 38.848 67.2443 39.887V41.5028C70.0671 42.0117 72.7134 43.7409 74.0476 46.9202C74.4497 47.8781 73.9984 48.9823 73.0403 49.3842C72.0824 49.7863 70.9781 49.3348 70.5763 48.3769C69.2388 45.1901 65.6739 44.5251 63.1099 45.5338C61.5829 46.1346 60.3763 47.3783 60.4654 49.1706L60.4657 49.175C60.5325 50.5929 61.4346 51.4157 62.5301 51.9508C63.5026 52.4256 64.6266 52.6938 65.6883 52.8668L65.6913 52.8673C69.7221 53.531 74.1796 55.3178 74.756 60.1094C75.3346 64.887 71.3108 67.5465 67.2443 68.1529V69.7435C67.2443 70.7823 66.401 71.6258 65.3619 71.6258C64.3231 71.6258 63.4796 70.7823 63.4796 69.7435V68.1258C59.9694 67.5315 56.8906 65.3131 55.9706 61.6171C55.7198 60.6089 56.3346 59.5868 57.3426 59.3357C58.3508 59.0849 59.373 59.6997 59.624 60.7077C60.2932 63.3967 62.993 64.5858 65.6226 64.5207H65.6269C67.0186 64.4891 68.5664 64.1369 69.7078 63.3498C70.5845 62.7451 71.173 61.836 71.0186 60.5616L71.0184 60.5595C70.8285 58.98 69.7697 58.0983 68.5196 57.5306C67.444 57.0418 66.2233 56.7703 65.0831 56.5826C61.1539 55.9426 56.9252 54.012 56.705 49.3531C56.5311 45.8138 58.7153 43.2171 61.7318 42.0303C62.2908 41.8106 62.8774 41.6414 63.4796 41.5258ZM104.542 21.1764L104.543 21.1781C108.917 26.3263 113.29 31.4804 117.664 36.6287C118.402 37.4833 118.559 38.6223 118.088 39.6553C118.086 39.6593 118.085 39.663 118.083 39.6668C117.611 40.6835 116.652 41.3061 115.508 41.3061H111.271V64.2541C111.271 66.3423 109.571 68.0421 107.483 68.0421H97.264C95.1774 68.0421 93.4699 66.3407 93.4699 64.2541V41.3061H89.2323C88.1052 41.3061 87.1414 40.6896 86.6668 39.6734C86.1781 38.6355 86.344 37.4896 87.0708 36.6355C91.4501 31.4807 95.8292 26.3197 100.208 21.1649C100.773 20.4957 101.516 20.1647 102.37 20.1647C103.247 20.1647 103.99 20.507 104.542 21.1764ZM91.2407 37.5414H95.3523C96.392 37.5414 97.2346 38.3842 97.2346 39.4237V64.2541C97.2346 64.2687 97.2494 64.2774 97.264 64.2774H107.483C107.495 64.2774 107.506 64.267 107.506 64.2541V39.4237C107.506 38.3842 108.348 37.5414 109.388 37.5414H113.5C109.79 33.1736 106.08 28.8023 102.37 24.4348C98.6605 28.8023 94.9506 33.1736 91.2407 37.5414ZM29.8447 21.1764L29.8461 21.1781C34.2198 26.3263 38.5932 31.4804 42.9666 36.6287C43.7045 37.4833 43.8621 38.6223 43.3908 39.6553C43.3892 39.6593 43.3876 39.663 43.3857 39.6668C42.9137 40.6835 41.9548 41.3061 40.8111 41.3061H36.5734V64.2541C36.5734 66.3423 34.8737 68.0421 32.7854 68.0421H22.5668C20.4803 68.0421 18.7727 66.3407 18.7727 64.2541V41.3061H14.5351C13.408 41.3061 12.4443 40.6896 11.9697 39.6734C11.481 38.6355 11.6469 37.4896 12.3737 36.6355C16.7527 31.4807 21.132 26.3197 25.5111 21.1649C26.076 20.4957 26.8191 20.1647 27.673 20.1647C28.5501 20.1647 29.2927 20.507 29.8447 21.1764ZM16.5436 37.5414H20.6551C21.6948 37.5414 22.5374 38.3842 22.5374 39.4237V64.2541C22.5374 64.2687 22.5523 64.2774 22.5668 64.2774H32.7854C32.7981 64.2774 32.8087 64.267 32.8087 64.2541V39.4237C32.8087 38.3842 33.6513 37.5414 34.6911 37.5414H38.8026C35.0927 33.1736 31.3828 28.8023 27.673 24.4348C23.9633 28.8023 20.2534 33.1736 16.5436 37.5414Z" fill="black"/>
</svg>
