<svg width="120" height="120" viewBox="0 0 120 120" fill="none" xmlns="http://www.w3.org/2000/svg">
<g clip-path="url(#clip0_350_647)">
<path d="M60.0006 118.241C118.802 94.1604 117.122 26.3984 117.122 26.3984C98.6417 7.91789 60.0006 1.75781 60.0006 1.75781C60.0006 1.75781 21.3594 7.91789 2.87893 26.3984C2.87893 26.3984 1.19893 94.1604 60.0006 118.241Z" fill="#3D8C58"/>
<path d="M60.0003 118.242C1.19847 94.1603 2.87894 26.3983 2.87894 26.3983C20.9584 8.31886 58.3339 2.03081 59.9464 1.76831C58.693 2.01183 35.5932 6.61472 19.3152 19.12C14.1908 23.0568 11.4479 29.3479 11.991 35.7871C13.6316 55.2438 21.6123 99.696 60.0003 118.242Z" fill="#024F2D"/>
<path d="M60.001 104.55C41.8184 95.6984 28.8664 80.7103 21.4627 59.9297C17.3677 48.4355 16.0255 37.8872 15.5879 31.8753C28.5245 21.9551 50.0422 16.301 59.9902 14.45C69.9406 16.3182 91.509 22.0039 104.414 31.88C103.977 37.88 102.636 48.4313 98.5388 59.9295C91.1354 80.7104 78.1836 95.6984 60.001 104.55Z" fill="#F5F5F5"/>
<path d="M60.0017 104.552C41.8189 95.6996 28.8676 80.7115 21.4637 59.9297C17.3668 48.436 16.0262 37.887 15.5879 31.8753C28.5254 21.9565 50.0431 16.3013 59.9898 14.4497C54.9516 15.5304 46.4935 17.907 38.0926 21.6708C27.3945 26.4638 21.4726 38.0843 23.8843 49.5563C24.5766 52.8495 25.4527 56.3435 26.5613 59.9297C32.9855 80.7115 44.2236 95.6996 60.0017 104.552Z" fill="#B7B7B7"/>
<path d="M58.7957 80.5962C57.2514 80.5962 55.7585 79.9854 54.6529 78.8801L39.9222 64.1494C37.634 61.8612 37.634 58.1513 39.9222 55.8631C42.2106 53.5749 45.9203 53.5749 48.2085 55.8631L57.6546 65.3088L74.5933 37.3308C76.2691 34.5624 79.8719 33.6774 82.6403 35.3531C85.4085 37.0292 86.294 40.6317 84.618 43.3999L63.8083 77.7713C62.876 79.3111 61.2874 80.3372 59.5003 80.5535C59.2654 80.5821 59.0299 80.5962 58.7957 80.5962Z" fill="#3D8C58"/>
<path d="M60.0005 120C59.7741 120 59.5477 119.956 59.3342 119.869C45.6532 114.266 34.0737 105.851 24.9171 94.8568C17.6049 86.0769 11.8214 75.65 7.72808 63.8658C0.77347 43.8439 1.10394 27.0589 1.12128 26.3541C1.13253 25.9032 1.31675 25.4738 1.6355 25.1548C9.49902 17.2913 21.6771 10.6697 37.8314 5.47435C49.7928 1.62732 59.3239 0.0856006 59.7237 0.0218506C59.9072 -0.00744629 60.0935 -0.00744629 60.2771 0.0218506C60.6769 0.0856006 70.208 1.62709 82.1693 5.47412C98.3236 10.6695 110.502 17.2911 118.365 25.1546C118.684 25.4736 118.868 25.9029 118.879 26.3539C118.891 26.8114 119.117 37.7311 115.595 52.4747C113.526 61.1349 110.584 69.3066 106.849 76.7635C102.17 86.108 96.2278 94.3491 89.1879 101.258C88.4951 101.937 87.3821 101.927 86.7021 101.234C86.0225 100.541 86.0328 99.4283 86.7258 98.7483C93.4735 92.1265 99.1768 84.2197 103.677 75.2471C107.29 68.0452 110.141 60.1433 112.151 51.7606C115.09 39.5061 115.354 29.7608 115.368 27.1376C98.1333 10.4644 63.4589 4.13583 60.0005 3.54029C56.5421 4.13583 21.8679 10.4642 4.63339 27.1372C4.65261 30.5042 5.09323 45.6247 11.0883 62.8243C15.0485 74.1858 20.6255 84.2246 27.6642 92.6611C36.2928 103.004 47.1694 110.967 60.0007 116.339C67.9864 112.995 75.2607 108.625 81.6321 103.344C82.3793 102.725 83.4875 102.828 84.1074 103.576C84.7271 104.323 84.6232 105.431 83.8758 106.051C77.0534 111.706 69.2447 116.355 60.6673 119.869C60.4536 119.956 60.2269 120 60.0005 120Z" fill="black"/>
<path d="M60.001 106.308C59.7378 106.308 59.4743 106.249 59.2315 106.13C40.6278 97.0731 27.3633 81.7276 19.8071 60.5197C15.7603 49.1609 14.325 38.7425 13.8338 32.0028C13.7907 31.4124 14.0478 30.8403 14.5172 30.4801C18.6061 27.3444 23.8228 24.3943 30.0225 21.7116C30.9136 21.3259 31.9484 21.7358 32.3337 22.6269C32.7195 23.518 32.3096 24.5527 31.4187 24.9383C25.865 27.3413 21.1594 29.9502 17.4148 32.701C17.8814 38.2953 19.2303 48.4252 23.1188 59.3399C30.2501 79.355 42.657 93.902 60.001 102.59C77.3449 93.902 89.7518 79.355 96.8831 59.3399C100.609 48.8818 102.047 39.238 102.587 32.7069C97.1229 28.6993 89.7028 25.0393 80.5125 21.8202C71.2275 18.5677 63.2794 16.8681 59.9883 16.2381C56.9876 16.8095 47.9337 18.699 37.8251 22.3909C36.912 22.7241 35.9039 22.2545 35.5709 21.3427C35.2378 20.4308 35.7071 19.4216 36.619 19.0885C47.3766 15.1597 56.9803 13.2214 59.6677 12.721C59.881 12.6812 60.1001 12.6814 60.3139 12.7215C63.2918 13.2805 89.8596 18.5281 105.484 30.4836C105.954 30.8438 106.212 31.4166 106.169 32.0077C105.676 38.7493 104.24 49.1682 100.195 60.5197C92.6391 81.7276 79.3746 97.0731 60.7709 106.13C60.5276 106.249 60.2642 106.308 60.001 106.308Z" fill="black"/>
<path d="M58.7961 82.3541C56.7617 82.3541 54.8492 81.5619 53.4104 80.123L38.6795 65.3923C35.7097 62.4223 35.7097 57.59 38.6795 54.62C41.6495 51.6502 46.4818 51.6505 49.4518 54.62L57.3125 62.4805L73.0899 36.4205C75.2649 32.8278 79.9578 31.6742 83.551 33.8494C85.2917 34.9032 86.5175 36.5717 87.0031 38.5475C87.4888 40.5233 87.1759 42.5701 86.1221 44.3105L65.3124 78.6816C64.0923 80.697 62.0511 82.0154 59.7118 82.2987C59.4099 82.3355 59.1017 82.3541 58.7961 82.3541ZM44.0661 55.9067C43.0159 55.9067 41.9654 56.3063 41.1657 57.106C39.5668 58.7051 39.5668 61.3072 41.166 62.9066L55.8967 77.6373C56.6713 78.4119 57.7011 78.8384 58.7963 78.8384C58.9611 78.8384 59.1271 78.8286 59.2895 78.8089C60.5492 78.6563 61.6482 77.9464 62.3052 76.8612L83.1149 42.4899C83.6825 41.5526 83.851 40.4506 83.5892 39.3868C83.3279 38.323 82.6677 37.4246 81.7304 36.8572C79.7966 35.6865 77.2691 36.3066 76.0977 38.2416L59.1589 66.2197C58.8793 66.6816 58.4026 66.9894 57.8663 67.0545C57.3292 67.1187 56.7938 66.9341 56.412 66.5523L46.966 57.1065C46.1668 56.3066 45.1163 55.9067 44.0661 55.9067Z" fill="black"/>
</g>
<defs>
<clipPath id="clip0_350_647">
<rect width="120" height="120" fill="white"/>
</clipPath>
</defs>
</svg>
