<svg width="124" height="124" viewBox="0 0 124 124" fill="none" xmlns="http://www.w3.org/2000/svg">
<path d="M121.003 102.833L67.8493 13.022C67.248 12.0059 66.3924 11.1639 65.3667 10.5791C64.341 9.99422 63.1807 9.68665 62 9.68665C60.8193 9.68665 59.659 9.99422 58.6333 10.5791C57.6076 11.1639 56.752 12.0059 56.1507 13.022L2.99731 102.833C2.30362 104.006 1.93761 105.345 1.9375 106.708C1.9375 108.725 2.73871 110.659 4.16486 112.085C5.59102 113.511 7.5253 114.313 9.54219 114.313H114.458C116.475 114.313 118.409 113.511 119.835 112.085C121.261 110.659 122.062 108.725 122.062 106.708C122.062 105.345 121.696 104.006 121.003 102.833Z" fill="#024F2D"/>
<path d="M9.77344 106.563L62.0007 18.356L114.205 106.563H9.77344Z" fill="#D69212"/>
<path d="M62 98.8125C65.2102 98.8125 67.8125 96.2102 67.8125 93C67.8125 89.7898 65.2102 87.1875 62 87.1875C58.7898 87.1875 56.1875 89.7898 56.1875 93C56.1875 96.2102 58.7898 98.8125 62 98.8125Z" fill="#024F2D"/>
<path d="M65.875 81.375H58.125L54.25 44.5625H69.75L65.875 81.375Z" fill="#024F2D"/>
</svg>
